<svg id="Layer_1" data-name="Layer 1" xmlns="http://www.w3.org/2000/svg" viewBox="0 0 640 480"><path d="M527.38,173.89l-8.78,2.94c-5,1.69-10.07,3.2-15,5.13-5.75,2.26-11.37,4.9-17.05,7.38a43.23,43.23,0,0,1-5.26,2.27c-3.11.87-4.73,3.43-6.19,6.16a42.5,42.5,0,0,0-3.83,11.2,60.73,60.73,0,0,0-1,16.53,90.44,90.44,0,0,0,1.88,13.23,62,62,0,0,0,3.66,11.76,48.91,48.91,0,0,0,5.73,9.36c3.76,5,8.63,8.64,13.59,12.13,1.64,1.16,3.31.78,4.94,1,4,.63,8,.9,12,1.25,3,.27,25.76,2.09,28.79,2.66-2.68-.13-29.73-1.73-30.74-1.77q-8.18-.39-16.35-.89c-2.42-.15-4.84-.39-7.26-.58-1.41-.11-2.83-.16-4.24-.3-2-.21-3.67.83-5.47,1.42-3.79,1.25-6.84,4-10.1,6.25a30.19,30.19,0,0,0-9.75,11.87,31.15,31.15,0,0,0-1.74,4.1c4.6-8,11-14,18.16-19l-1.13.95c-.42.37-.86.71-1.25,1.1-3.48,3.44-7.12,6.71-10.36,10.41a40.62,40.62,0,0,0-4.66,7.67,50.89,50.89,0,0,0-2.48,5.92,25.19,25.19,0,0,0-1.05,11.95c.22,2,.21,4,.32,6a29,29,0,0,0,3.44,12.39,16.17,16.17,0,0,0,5.23,6.35c.12.07.29.18.3.28.16,2.54,2.4,2.5,3.71,3.5,2.41,1.82,5.08,3.23,7.62,4.83.18.11.25.42.38.64s.31.75.48.76c2.53.2,4.27,2.17,6.31,3.41,4.64,2.83,9.16,5.89,13.73,8.87,6,3.92,12,7.86,18,11.77,2.52,1.64,5.08,3.21,7.49,5.13-1.26-.73-2.54-1.43-3.78-2.2-3-1.81-5.87-3.68-8.82-5.5q-8.44-5.2-16.91-10.37-5.86-3.6-11.78-7.11c-2.42-1.45-4.82-3-7.34-4.2a5.39,5.39,0,0,0-3.06,0,71.41,71.41,0,0,0-7.1,1.44c-3.38.94-6.72,2.06-10.07,3.16-4.93,1.62-8.89,5.15-13.1,8.2a54.37,54.37,0,0,0-8,7.75,53.47,53.47,0,0,0-4.08,4.57c-2.14,2.94-4.13,6-6.09,9.1a52.71,52.71,0,0,0-3.73,6.49c-2.35,5.15-4.48,10.41-5.25,16.2a39.18,39.18,0,0,0-.74,5.31,59.64,59.64,0,0,0,.76,6.5c.24,1.93.43,3.86.74,5.78.15,1,1.32,4,1.66,5.16-.52-.64-2.37-3.54-2.49-3.47l3.5,8.28c-.06.05,7,12.61,7,12.65-.13-.18-7.44-12.86-7.54-13.07q-4.46-9.24-8.9-18.48c-1.33-2.78-2.61-5.59-3.9-8.4a3,3,0,0,0-3.27-1.15,1.31,1.31,0,0,1-1,.08c-3.17-1.56-6.26-3.33-9.48-4.7a38.36,38.36,0,0,0-6.6-1.81,67.56,67.56,0,0,0-8-1.56,44.17,44.17,0,0,0-9.12-.19c-5.69.6-10.77,3.33-15.58,6.55a11.73,11.73,0,0,0-4.48,5.09c-.53,1.22-1.74,2.06-2.38,3.25a14.85,14.85,0,0,0-1.47,4.13,16.57,16.57,0,0,0,.19,3.34c.05,1.54,0,3.09,0,4.63,0,10.59.13,47.47,0,47.47-.18-5.89-.65-27.49-.85-33.38-.16-4.66-.33-9.32-.54-14-.11-2.24-.41-4.47-.49-6.71-.09-2.53,0-5.06,0-7.6,0-1.5-.12-3-.29-4.5-.05-.43-.49-.8-.75-1.2l.51,0c0-6.85,0-13.68,0-20.51a2.28,2.28,0,0,0-1.56-2.5c-5.46-2.18-10.71-5-16.46-6.32a22.46,22.46,0,0,0-10.27-.33c-5,1.2-8.46,4.41-9.58,10.19-.19,1-.4,2-.59,2.92,3.37-.95,6.55-2.34,9.81-2.62s6.76.44,10.12.91a24.87,24.87,0,0,1,9.42,3.52c1.92,1.16,7,6.11,7.59,7.37-.84-.69-1.56-1.32-2.31-1.89a47.72,47.72,0,0,0-11.26-6.49,30.4,30.4,0,0,0-7.08-2,34,34,0,0,0-8.07,0,13.81,13.81,0,0,0-9.08,5.25c-.58.7-.67,1.9-1,2.86s-.78,2.13-1.17,3.19c1.23-.53,2.15-1.32,3.19-1.81a24.68,24.68,0,0,1,5.87-2.35c5.17-.92,10.13,1.17,15.18,1.93a32.47,32.47,0,0,1,8,2.77,40.12,40.12,0,0,1,5.55,3.21,19.12,19.12,0,0,1,2.35,2.09c-1.28-.7-2.53-1.49-3.85-2.06-2.24-.95-4.53-1.79-6.81-2.63-2-.74-4.06-1.47-6.11-2.11a23.43,23.43,0,0,0-9.39-1,33,33,0,0,0-10.39,2.94,10,10,0,0,0-6.18,7.56c-.63,3.05-1.69,6-2.55,9a5.85,5.85,0,0,0-.1.77c15.28-9.4,29.58-7.21,43.18,3.82,0,.13-.07.25-.1.38a42.89,42.89,0,0,0-4.22-2.86,103.58,103.58,0,0,0-10.23-5c-2-.79-4.32-.8-6.5-1a25.6,25.6,0,0,0-5.31-.27c-4.15.39-8.29,1-12,3.37-1.5,1-3,1.82-4.58,2.71-1.1.65-1,2-1.29,3-.7,2.27-.91,4.84-2,6.85-2.93,5.46-3.31,11.78-5.26,17.55-.49,1.44-.73,3-1.13,4.46-.09.33-4,15.25-4.53,15.39.48-2,4.64-18.64,5.09-20.65,2-8.95,4.12-17.88,6.72-26.66,1.06-3.59,2-7.21,3-10.83.64-2.35,1.22-4.72,1.87-7.07.22-.8.52-1.53-.4-2.12a1.77,1.77,0,0,1-.43-1.18c-.19-3.11-1.94-5.47-3.18-8.06a51.2,51.2,0,0,0-3.49-6.5,52.71,52.71,0,0,0-6.17-7.95,108.58,108.58,0,0,0-10.88-9.4,61.94,61.94,0,0,0-13.41-7.62c-4.06-1.72-8.13-3.38-12.19-5.1a14.6,14.6,0,0,0-6.08-1.16c-2.71,0-5.43-.39-8.13-.2-3.79.27-7.29,1.3-10.22,4.54-3.46,3.82-7.39,7.13-11.12,10.67-1,.94-2,1.9-3.27,3.14a18.06,18.06,0,0,0,2.48,0,39.29,39.29,0,0,1,15.22,1,50.12,50.12,0,0,1,11.49,4c2.77,1.44,5.57,2.83,8.26,4.46a41,41,0,0,1,4.15,3.39c3,2.44,6.11,4.77,9,7.31s5.6,5.09,8.32,7.75c2.56,2.5,5.15,5,7.49,7.74,2.91,3.42,5.59,7.06,8.33,10.64a42.79,42.79,0,0,1,3.7,5.89q-1.35-1.85-2.71-3.68c-1.7-2.26-3.34-4.57-5.11-6.75-2.44-3-4.86-6-7.48-8.83a176.4,176.4,0,0,0-13.63-12.9A113.65,113.65,0,0,0,234,376.39a33.83,33.83,0,0,0-7.49-2.57,37.27,37.27,0,0,0-12-1.51c-3.43.18-6.85.45-10.27.56-1.82.07-3.66-.07-5.31.91a26.47,26.47,0,0,0-3.41,2.39c-3.77,3.2-7.48,6.47-11.24,9.69s-7.67,6.5-11.49,9.79c-1.66,1.43-3.25,3-4.88,4.43-.23.2-12.69,11.49-13.13,11.39,1.28-1.18,14.69-13.58,16-14.73,3-2.69,6.06-5.34,9.08-8,4-3.53,8-7,11.95-10.59,2.93-2.64,5.8-5.35,8.67-8.06,3.89-3.68,7.75-7.41,11.65-11.08,2.53-2.39,5.13-4.7,7.68-7.06a5.52,5.52,0,0,0,.56-.95c.26-.39.48-1,.84-1.1,2.52-1,4-3.53,6.08-5.22.74-.61.65-2.5.85-3.83.37-2.54.71-5.09,1-7.65.25-2.28.52-4.57.6-6.86.1-3,0-6.09,0-9.13a40.43,40.43,0,0,0-3-14.71,26.83,26.83,0,0,0-2.29-4.58A42.46,42.46,0,0,1,228,308.22c-1-2.33-2-4.66-3-7-1.68-3.84-3.54-7.54-6.74-10.12-1.33-1.07-2.72-2-4.1-3a.83.83,0,0,0-.63-.12c-4.33,1.17-8.67,2.32-13,3.55-1.49.42-2.93,1-4.58,1.65,3,1.53,4.73,4.16,6.49,6.8a57.43,57.43,0,0,1,6.65,15,46.84,46.84,0,0,1,1.53,9.12,86.63,86.63,0,0,1,.5,10.56c-.12,5.23-.54,10.45-.87,15.67a11.91,11.91,0,0,1-.67,3.25c.1-1.67.22-3.33.29-5,.1-2.53.2-5.05.26-7.58.05-2.19.14-4.37.06-6.55a94.84,94.84,0,0,0-.67-11,82.13,82.13,0,0,0-2.75-11.62,28.74,28.74,0,0,0-5.16-9.38c-2.77-3.5-5.92-6.45-10.25-7.16a9.69,9.69,0,0,0-3.72.4c-1.9.47-3.77,1.12-6,1.8,1.54,1.06,2.77,1.94,4,2.77a28.71,28.71,0,0,1,8.82,9.88A64.12,64.12,0,0,1,202,329a90.78,90.78,0,0,1,1.22,9.22c.59,5.85-.77,11.48-1.79,17.18a6.21,6.21,0,0,1-.07-.73,5.14,5.14,0,0,1,0-.88c.33-2.5.75-5,1-7.49a47.18,47.18,0,0,0,.27-6.17,59.7,59.7,0,0,0-3.32-17.74c-2.54-7.3-7.08-12.92-12.17-18-1.63-1.64-3.94-2.44-5.95-3.61-.5-.28-1.14-.35-1.54-.73-1.61-1.54-3.27-.89-5-.31l-7.78,2.6c1.37.88,2.64,1.69,3.9,2.52a30.46,30.46,0,0,1,8.09,8.52,75.59,75.59,0,0,1,5.63,9.75,43.89,43.89,0,0,1,2.52,7.43,69.85,69.85,0,0,1,1.72,7.58,82.66,82.66,0,0,1,1,8.59,74.49,74.49,0,0,1,0,8.84c-.28,4.08-.81,8.14-1.27,12.2a30.74,30.74,0,0,1-1.06,5.52c.27-2.05.56-4.09.81-6.14.27-2.26.6-4.53.72-6.81a91.11,91.11,0,0,0,.24-10.18,111.75,111.75,0,0,0-1.44-13.05,56,56,0,0,0-3-11.24A78.63,78.63,0,0,0,179,315.14,30.22,30.22,0,0,0,169.58,305a9.65,9.65,0,0,0-9.05-.92c-3.07,1.11-6.23,1.93-9.35,2.88a13.85,13.85,0,0,0-3.22,1.26c.32.07.77.32.93.18,1.53-1.31,3-.21,4.19.43,5.88,3,10.2,8,13.65,14,3.28,5.72,5.19,12.05,6.69,18.51a62.24,62.24,0,0,1,1.28,10.4,90.52,90.52,0,0,1,0,11.53,95.08,95.08,0,0,1-2.07,12.57c.18-1.37.37-2.74.54-4.11.27-2.26.64-4.53.76-6.8.19-3.49.33-7,.27-10.48A63,63,0,0,0,171,335.29c-.95-2.83-2.64-5.14-4.07-7.6-2.85-4.89-6.15-9.43-10.64-12.67-2.71-1.95-5.52-3.75-8.22-5.72-1.65-1.21-3.29-.62-4.92-.21-4.52,1.12-9,2.32-13.62,3.17,1.28-.37,2.56-.77,3.84-1.12a55.78,55.78,0,0,0,5.87-1.58,36.23,36.23,0,0,0,4.59-2.61c.18-.11.38-.29.55-.27,2.28.27,4.3-.72,6.4-1.43s4.1-1,6.11-1.58c3.44-1.05,6.84-2.25,10.26-3.35,2.14-.69,4.3-1.32,6.46-1.95,4.13-1.21,8.27-2.39,12.39-3.61q5.43-1.62,10.84-3.31a9.58,9.58,0,0,0,1.3-.61c4-1.41-3.13.25-4.65.57-3.83.82-7.67,1.62-11.49,2.49-3,.68-5.9,1.44-8.84,2.19-4.05,1-8.08,2.14-12.15,3.11-7.19,1.72-14.4,3.32-21.6,5-5,1.18-10,2.45-15,3.62-6.21,1.45-12.43,2.83-18.64,4.25-.19.05-9.51,2.79-9.8,2.53,1.19-.37,11.52-3.45,12.72-3.74,3.85-.95,7.71-1.83,11.56-2.75L137.61,304c5.95-1.43,11.91-2.8,17.84-4.34,7.5-1.94,15-4.07,22.45-6,5.75-1.49,11.54-2.8,17.31-4.21q5.35-1.31,10.72-2.67a2.36,2.36,0,0,0,1.87-2c1.3-6,2.94-12,3.9-18a65.65,65.65,0,0,0,.55-13.23,49.09,49.09,0,0,0-1.87-11.26,18.25,18.25,0,0,0-6-9.35c-.46-.38-.83-.9-1.27-1.31-1.81-1.72-4-2-6.28-2.14a13.91,13.91,0,0,0-2.67-.06l2.89.85c4.42.2-2.38.21-3.78.09,3,3.64,4.31,7.92,5.22,12.38a21.27,21.27,0,0,1,.45,2.86c.14,2.36.18,4.72.29,7.08a36.2,36.2,0,0,1,.23,4.15c-.26,3.44-.51,6.91-1.09,10.3-.6,3.6-2.5,10.92-2.73,11q1.13-6.09,2.26-12.18c-.1,0-4,14.68-4.09,14.65.14-.89.27-1.79.44-2.68.93-5,2.26-8.83,2.87-14.91.8-3.61.11-7-.58-10.48-.85-4.26-1.66-8.53-2.64-12.75-.92-4-3.34-6.8-6.29-9.11A35.28,35.28,0,0,0,184,228a7.72,7.72,0,0,0-2.29-.5L175,226c-.05.14-.11.29-.17.43.55.51,1.07,1.06,1.65,1.52,3.82,3,5.81,7.38,7.09,12.16a72,72,0,0,1,2.24,18.65,46.58,46.58,0,0,1-2,12.61A120.18,120.18,0,0,1,179,284.68c.45-1.34,1-2.67,1.35-4.05,1.37-5.09,2.91-10.14,4-15.31a38,38,0,0,0,.12-13.71c-.34-2.06-.41-4.17-.63-6.25-.31-2.93-2-5.17-3.14-7.69a14,14,0,0,0-2.1-3.34c1,2.7,2.8,8.2,2.7,8.25-1-2.29-2.1-4.54-3-6.87a15.06,15.06,0,0,0-5.68-7.17c-2,.67-2.91-1.74-4.58-2.12-.67-.16-1.43-.54-.84-1.71l-4.93-1-.15.3c.81,1.05,1.63,2.09,2.42,3.17,4.14,5.63,6.39,12.19,7.51,19.24a56.13,56.13,0,0,1,.79,9.33A71.74,71.74,0,0,1,171.4,269a68.77,68.77,0,0,1-4.23,13,26,26,0,0,1-2.5,4.28c6.57-13.47,9.23-27.58,6.16-42.65-.13,0,.24,6.85.14,6.87-.17-.93-.38-1.86-.52-2.8-.71-4.84-1.56-9.66-3.95-13.88a41.15,41.15,0,0,0-3.85-4.93c-.55-.7-1.11-1.39-1.64-2.11a15.82,15.82,0,0,0-3.41-3.18c-1.68-1.27-3.47-1-5.21-1.34-3.36-.6-6.76-1-10.14-1.51-1.18-.17-2.51-.09-3.51-.67-2.92-1.7-6.15-.86-9.3-1.59.25.48.48,1,.74,1.43,2,3.74,4.27,7.35,5.95,11.26a43.72,43.72,0,0,1,3.21,12.2c.57,4.67-.22,9.15-.89,13.68-.48,3.3-.94,6.62-1.6,9.89-.73,3.63-1.5,7.26-2.55,10.79-1.32,4.4-2.83,8.75-4.46,13a54.51,54.51,0,0,1-6,11.28L130,288.22c2.12-4.79,3.09-10,4.07-15.12-2,4.65-4,9.35-6.12,14s-6.87,13.55-7,13.48c.75-1.6,1.52-3.19,2.27-4.8,1.71-3.67,3.51-7.29,5.09-11,2.25-5.29,4.51-10.6,6.4-16a44.09,44.09,0,0,0,2-9.72,35.07,35.07,0,0,0-.46-7.13c-.32-3.19-.53-6.42-1.13-9.55-.73-3.83-1.75-7.59-2.78-11.33a23.61,23.61,0,0,0-2-5.49c-1.65-2.85-3.39-5.7-6.08-7.57a5.35,5.35,0,0,0-1.27-.47l.47-.24c-1.11-1.73-2.84-1.78-4.49-2-3.18-.38-20.92-3.15-20.91-3.31,1.69.18,14.81,2.1,16.5,2.27,2.55.25,5.1.5,7.65.71.84.07-6.56-1.5-7-2.8l12,1.67,6,.87c.15,0,.29.08.4.46l-7.28-.9c.54,1.83,1.85,1.71,2.93,1.9,3.69.63,7.39,1.18,11.09,1.78,4.22.69,8.43,1.36,12.64,2.11,3.12.56,6.22,1.25,9.33,1.84a4.12,4.12,0,0,0,1.15-.09c-.34-.28-.65-.74-1-.82-2.58-.55-5.18-1-7.77-1.54-3.13-.68-6.24-1.51-9.38-2.16-2.67-.55-5.38-.92-8.07-1.41-1-.18-2-.46-3-.69A50.34,50.34,0,0,1,141,216l13.83,2.79q2.91.6,5.8,1.23c4.38,1,8.74,2,13.13,2.89a34.71,34.71,0,0,0,3.83.34c3.17.29,6.34.67,9.51.85a4.48,4.48,0,0,0,4.2-1.87c.66-.9,1.93-1.24,2.91-1.87a27.53,27.53,0,0,0,7.72-7.46,120,120,0,0,0,7.27-11.59,97.16,97.16,0,0,0,4.25-9.91A62,62,0,0,1,216,185.2l-1.54,5.32a21,21,0,0,0,2.21-4c1.76-4.48,3.71-8.9,5.11-13.52a57.76,57.76,0,0,0,1.82-10.39,84.24,84.24,0,0,0,.53-10.29c0-2.56-.66-5.12-.76-7.69-.16-3.93-3.28-5.23-5.25-7.51-1.77-2.05-3.81-3.83-5.76-5.71-1.28-1.24-2.65-2.38-3.89-3.67-.94-1-1.74-2.12-2.54-3.13.26,2.55.86,5.08.72,7.57-.24,4.4-.81,8.8-1.44,13.17-.84,5.82-3.14,11.13-5,16.59a155.72,155.72,0,0,1-7.2,18.52c-2.41,4.89-4.86,9.77-7.53,14.48a62.14,62.14,0,0,1-9.26,12.77c-4.18,4.3-8.81,7.88-14.52,9.28a7.8,7.8,0,0,1-2.2-.08c0-.12,5.27-1.59,7.47-2.84a33,33,0,0,0,9.41-7.76,124.29,124.29,0,0,0,7.29-10.08c2.12-3.24,4.05-6.65,5.87-10.1,1.36-2.58,2.41-5.36,3.6-8.06.93-2.13,2-4.2,2.76-6.41,1.9-5.55,3.76-11.12,5.44-16.75,1.25-4.22,2.31-8.53,3.23-12.86a30.07,30.07,0,0,0,.61-10.58c-.11-.7.08-1.45,0-2.16a46,46,0,0,0-.64-4.71,4.89,4.89,0,0,0-1.06-2c-1.38-1.62-2.79-3.22-4.27-4.73-2.31-2.35-4.72-4.59-7-6.94-1.52-1.55-2.88-3.28-4.41-4.82-3.3-3.34-6.66-6.6-10-9.9C174,92.53,170.11,88.85,166.39,85c-1.81-1.85-10.77-11.43-12.46-13.41.08-.1,9.58,9,10.5,10,1.69,1.8,3.29,3.7,5,5.47,2.77,2.84,5.6,5.62,8.4,8.43,4.9,4.92,9.82,9.82,14.69,14.78,3.52,3.59,6.93,7.31,10.48,10.87,1.39,1.39,3,2.46,4.5,3.77,1.07,1,2,2.09,3,3.13s2,2.12,3.07,3c3.53,3,7,6.11,10.72,8.84a7,7,0,0,0,4.56.93,30,30,0,0,0,11.67-3.64c1.65-.92,3.28-1.87,4.93-2.81a73.92,73.92,0,0,1-6.4,4.59l0,.19a21.29,21.29,0,0,0,3.59-1.56,94.24,94.24,0,0,0,10.51-7.46,56.55,56.55,0,0,0,8.75-9.69,146,146,0,0,0,8.61-14.4,31.34,31.34,0,0,0,3.52-12c.19-2,.27-3.9.4-5.79.69,2.37.05,4.77,0,7.21-.17,5-2.31,9.24-4.35,13.46A81.69,81.69,0,0,1,261,123.23a54,54,0,0,1-10.92,10.85c-4.6,3.34-9.44,6.15-14.84,7.53-2.47.63-5,1-7.68,1.59,1.1,1.15,2.17,2.2,3.18,3.31s2.32,1.21,3.69,1.27c6.3.26,12.18-1.55,17.86-4.3a66.89,66.89,0,0,0,8.92-4.84,50.13,50.13,0,0,0,11.28-10.89c1.83-2.39,3.83-4.62,5.53-7.12a37.53,37.53,0,0,0,5.73-12,5.91,5.91,0,0,1,.45-1.46,7.74,7.74,0,0,1,0,2.55,61.25,61.25,0,0,1-3.46,7.94,70.4,70.4,0,0,1-11.59,15.21c-2.89,2.89-6.12,5.37-9.19,8a1.07,1.07,0,0,0-.43.63l1.91-.65a44.92,44.92,0,0,1-27.25,8.33c1.78,2.08,3.53,4.18,5.34,6.23a43.58,43.58,0,0,0,3.44,3.61,3.33,3.33,0,0,0,2.17,1,38.19,38.19,0,0,0,6.54-1,74,74,0,0,0,7.12-2.46,26.17,26.17,0,0,0,4.93-2.19c4.91-3.14,9.85-6.27,13.76-11a60.39,60.39,0,0,0,7.29-10.74c.77-1.48,1.67-2.87,2.48-4.23,0,2.17-1.32,3.92-2.31,5.74a49.09,49.09,0,0,1-7.25,10.22c-1.58,1.69-2.8,3.78-4.31,5.55a31.19,31.19,0,0,1-6.76,5.92,71.71,71.71,0,0,1-10.7,5.43,34.69,34.69,0,0,1-3.92,1.83,26.61,26.61,0,0,1-4.28.63l-.23.44a42.53,42.53,0,0,0,4.35,4.35c.72.55,2,.39,3,.29,1.79-.17,3.55-.66,5.34-.79,2.21-.16,14.29-7.43,17.56-10.64,3-2.92,5.32-6.31,8.31-9.24,3.7-3.62,5.38-8.46,6.76-13.46a7.11,7.11,0,0,0-.15-3.6q-2.26-7.87-4.79-15.66a12,12,0,0,0-1.78-2.65l1.07-.29c-.83-2.45-1.7-4.87-2.48-7.32-1.21-3.83-2.28-7.72-3.55-11.53-1.1-3.3-2.44-6.5-3.59-9.78-1-2.75-1.88-5.53-2.69-8.34-1.38-4.79-2.53-9.65-4-14.4-2.49-8.05-5.19-16-7.72-24.05-1.24-3.93-2.29-7.92-3.44-11.88-.85-2.94-1.73-5.88-2.59-8.82,0-.17-3.32-11.1-3.13-11.35.63,1.88,4.58,14.48,5.18,16.37,1.95,6.2,3.87,12.42,5.82,18.63,1.63,5.15,3.36,10.27,4.94,15.45,2.28,7.51,4.39,15.09,6.73,22.58,1.25,4,2.91,7.89,4.24,11.88,1.61,4.82,3,9.7,4.6,14.53.93,2.87,1.93,5.71,3,8.54a4.07,4.07,0,0,0,1.09,1.52c-5.26-20-12.65-39.1-17.63-59.11.1,0,.56.47.68.77.63,1.5,1.34,3,1.86,4.52.63,1.85,1.12,3.75,1.62,5.65.44,1.67.71,3.39,1.22,5,1.28,4.07,2.66,8.09,4,12.14q3,9.27,6,18.57c1.2,3.73,2.45,7.45,3.54,11.23a2.11,2.11,0,0,0,1.93,1.78c3.84.48,7.67,1,11.55.35,1.82-.29,3.69-.16,5.52-.36,3-.32,5.94-.82,8.92-1.12a59.13,59.13,0,0,0,12.17-3,41.44,41.44,0,0,0,11-5.32c2.85-2,5.65-4.08,8.34-6.31A17.34,17.34,0,0,0,355,93.45a3.65,3.65,0,0,1,.47-.69c.07-.09-.82,4.23-7.94,9.91a53.89,53.89,0,0,1-15.75,8.9,66.88,66.88,0,0,1-14.34,3.5c-3,.34-6,.64-9,.89-2.82.24-5.65.51-8.48.56-1.83,0-3.67-.33-5.52-.47-.83-.06-1.66,0-2.71,0,.86,2.58,1.68,5,2.5,7.46.9,2.68,1.63,5.44,2.74,8,.95,2.18,1.48,4.83,3.78,6a55.1,55.1,0,0,0,5.56,2.48,27.74,27.74,0,0,0,10.44,1.57,17.63,17.63,0,0,0,7.26-1.8c1.27-.62,2.72-.74,4-1.29,2.64-1.12,5.3-2.24,7.84-3.61a74.57,74.57,0,0,0,7.43-4.62c3.18-2.23,6.25-4.66,9.4-7l-.81-2a7.46,7.46,0,0,1,1,1.34l.37-.32q.93-5.67,1.87-11.34l-.25-.11c-.18.29-.54.59-.53.87a3.71,3.71,0,0,1-2,3.38c-4.81,3.3-9.52,6.8-14.47,9.84-3.78,2.31-8.08,3.13-12.33,3.95-1.72.33-3.39,1.13-5.1,1.25-3.21.21-6.43.11-9.65.08a15.08,15.08,0,0,1-2.75-.33c-3.36-.66-6.14-2.78-9.11-4.44a3.24,3.24,0,0,1-1.19-1.1c.64.25,6.14,3.21,8.38,3.79a24.86,24.86,0,0,0,7.64.65,50.53,50.53,0,0,0,8.86-1.45,43.07,43.07,0,0,0,14.24-6.06c2.41-1.64,5-3,7.41-4.61a21.15,21.15,0,0,0,4.06-3.45c2.71-3.08,5.3-6.3,7.84-9.56a6.14,6.14,0,0,0,1-2.73c.77-5,1.62-10,2.14-15A133.42,133.42,0,0,1,362,71c0-.13,3.47-19.59,3.74-20-.55,4.11-4.38,27.2-4.86,31-.39,3.08-.7,6.17-1.1,9.25s-.88,6.07-1.31,9.1a12.18,12.18,0,0,0,0,1.48,6.78,6.78,0,0,1-.06,1.5c-.77,3-1.67,6-2.36,9s-1.17,6.33-1.83,9.48c-.43,2,.59,3.44,1.7,4.63,3.05,3.26,6.1,6.53,9.36,9.52,7.25,6.68,15.78,10.71,24.68,13.81,2,.69,4.17.58,6.28.74a61.7,61.7,0,0,0,6.66.27,26.55,26.55,0,0,0,6.28-.79c1-.29,1.75-1.62,2.61-2.47a9.05,9.05,0,0,0,2.66-7.69H412c-2.82,0-5.67-.18-8.48.05-3.05.26-6-.49-8.92-1a28.73,28.73,0,0,1-11.54-4.94,68.91,68.91,0,0,1-10.75-9.21,6,6,0,0,1-1.2-1.39c2.74,2,8.37,5.71,8.45,5.59-6.43-5.24-13.1-10.2-17.4-17.9,8.5,10.44,18.17,19,30.37,23.53a27,27,0,0,0-4.27-2.77,19.91,19.91,0,0,1,4.16,1.45,27.3,27.3,0,0,0,10.11,2.67,9.57,9.57,0,0,0,3.68-.46c1.07-.36,2.32,0,3.48-.12,2.94-.25,5.88-.43,8.79-.93a11.45,11.45,0,0,0,5.44-2.49c2.39-1.93,3.79-4.63,5.66-7s3.3-4.81,5.33-6.72,3.35-4.29,5.18-6.26a1.39,1.39,0,0,0,.4-.74c.24-2.49,2.13-3.23,3.64-4.49a12.68,12.68,0,0,0,2.88-3.79,55,55,0,0,1,5.75-8.23c3.37-4.26,6.72-8.54,10.09-12.79,2.54-3.19,5.15-6.33,7.67-9.54,2.34-3,4.58-6.08,6.93-9.06,1.65-2.08,3.43-4,5.12-6,.91-1.1,8-10.41,8.94-11.6,0,.19-6.13,8.69-6.23,8.88a21.94,21.94,0,0,1-1.7,2.76c-2.3,3-4.67,5.83-7,8.77-1.61,2.07-3.11,4.24-4.74,6.29-3.13,3.92-9.28,11.89-9.18,12,3.1-3.54,6.37-6.93,9.25-10.68s6.44-6.54,9-10.63a3.08,3.08,0,0,1-.29.84c-1.53,2.21-2.94,4.54-4.65,6.57-2.68,3.18-5,6.63-7.42,10.06-2.66,3.82-5.58,7.42-8.42,11.09-2,2.55-4,5.09-6,7.55a5.56,5.56,0,0,0-1.07,5.65,112,112,0,0,0,3.65,10.88c2.23,5,4.71,10,7.4,14.73a158,158,0,0,0,8.65,13.69,109,109,0,0,0,8.51,10.36c3,3.23,6.12,6.24,9.35,9.15a72.37,72.37,0,0,0,7.3,5.7c2.65,1.85,5.39,3.56,8.19,5.13,2.6,1.46,5.35,2,8.16.52a1.94,1.94,0,0,1,1.41-.19l-2.75,1,1.9,1.3c0,.22,0,.45,0,.68l41.69-16.61C556.44,161.53,527.38,173.49,527.38,173.89Zm-53.64,18.8c2-.62,4-1.12,5.91-1.89,4.68-1.89,9.35-3.81,14-5.89s9.16-4.72,14.1-6.06l.9-.23c0,.09,0,.18.07.26l-5.3,2.19.1.31,8.59-3.15-.84-.29.87-.83h-4l.68-.47c-2.47-1.34-5-2.52-7.29-4A105.65,105.65,0,0,1,481,155.32a131,131,0,0,1-8.89-11.26c-2.2-3-4.25-6.09-6.25-9.23a131.05,131.05,0,0,1-9.65-18.61A62.42,62.42,0,0,1,452,102.64c-3.17,4-6.41,8.07-9.6,12.17a3.24,3.24,0,0,0-.85,1.89,53.56,53.56,0,0,0,2.54,12.41,78.9,78.9,0,0,0,6.64,14.44A96.14,96.14,0,0,0,463.57,161a82.55,82.55,0,0,0,10.35,9.88,69.45,69.45,0,0,0,12.52,8,34.34,34.34,0,0,0,5.43,1.51c.47.13.92.33,1.38.5l-.08.59c-.94,0-2,.31-2.81-.06a99.83,99.83,0,0,1-10.56-5.26,76,76,0,0,1-17.88-15.78c-2-2.34-3.85-4.84-5.79-7.25a87.1,87.1,0,0,1-9-14.38A65.64,65.64,0,0,1,441.58,124c-.52-2.11-.73-4.32-1.15-7-1.42,1.77-2.64,3.2-3.76,4.71-1.25,1.68-2.54,3.09-2.63,5.75-.17,4.54-.71,9,.14,13.57,1.13,6.1,2.66,12.13,6.31,17a79.76,79.76,0,0,0,10.42,11.48c4,3.55,8.47,6.37,12.78,9.43,1.46,1,3,1.85,4.56,2.77-.06.11-14.8-8.36-21.09-14.53,0,.24,0,.4.06.49,4.23,5,8.84,9.47,14.46,12.5a66.24,66.24,0,0,0,16.1,6.51c2.83.66,5.67,1.49,8.29-.76.09-.08.25-.07.37-.12,3.89-1.63,7.76-3.31,11.66-4.88,3.33-1.34,6.7-2.56,10-3.82-.14.19-.24.48-.42.56q-2.72,1.25-5.44,2.42c-4.44,1.92-8.85,3.93-13.34,5.68-2.58,1-4.8,2.83-7.52,3.58a68.11,68.11,0,0,0-7.83,3.2,4.71,4.71,0,0,0-.52.09c-4.22,1.36-8.44,2.71-12.65,4.1a3.67,3.67,0,0,0-.94.68,1,1,0,0,0,.92.19c3.21-1.08,6.42-2.13,9.61-3.26C471.28,193.86,472.5,193.23,473.74,192.69Zm-33.13,135,1,.25.32-.19c-5.32-8.29-5.92-17.36-3.82-26.9a1.85,1.85,0,0,0-.49.77,38.69,38.69,0,0,0-2.18,10.27c-.34,3.73-.55,7.4.84,10.94a6.17,6.17,0,0,0,1.23,1.89c1,1.06,2.06,2,3.1,3l-3.91-1.64c-.07.18-.13.35-.2.52l5,3.17ZM302.14,222.19a2.51,2.51,0,0,0,0,.86,14.79,14.79,0,0,1,.18,8.88c-.82,3.59-2.29,6.73-5.35,8.6a37.23,37.23,0,0,1-3.42,1.67l.05.54a34.73,34.73,0,0,0,5.1,0,6.13,6.13,0,0,0,4.63-3.2,36.7,36.7,0,0,0,4.43-10.33c-.09,1.27-.19,2.53-.28,3.8.55-1.5,1-3,1.42-4.51,0-.15-.15-.44-.29-.57l-6.48-5.71c-1.44-1.79-2.89-3.58-4.33-5.38l-.47.11c-.21.8-.48,1.59-.62,2.4-.2,1.09-.3,2.21-.45,3.31-.37,2.66-1.87,4.68-3.21,6.79-2.88,4.53-6.52,8-11.43,9.53a7.34,7.34,0,0,0-1.51.9c2.57.8,5.09,1.17,7.58,1.76,3.57.84,6.32-.7,8.52-3.56A33.9,33.9,0,0,0,300,232c1.32-2.79,2.82-5.69,1.47-9.08a10.28,10.28,0,0,1-.3-1.11C301.59,222,301.87,222.07,302.14,222.19Zm112.33-41c.12.07.31.11.37.23.8,1.49,1.48,3.08,2.39,4.48a48.36,48.36,0,0,0,5.24,7.39,45.74,45.74,0,0,0,11.72,8.49,6.25,6.25,0,0,0,4.17.77c3.77-1,7.44-2.52,11.14-3.83l2-.73,2-.68c-9.32-4.56-18.27-9.48-24.88-18-6.45-8.27-12.54-16.94-14.2-28.36-4.07,3.64-5,5.74-5.24,11.53l-1.22-.39a5.91,5.91,0,0,0-.33,1.35,4.93,4.93,0,0,0,.22,1.41c.44,1.62.87,3.24,1.39,4.83,1.36,4.22,2.39,8.62,5.34,12l-.08-.5ZM294.19,392.86a24.6,24.6,0,0,0,1.9-3.4,16.94,16.94,0,0,0,.92-4.07c.18-1.7,1.85-3.23.51-5.13-.07-.09.07-.49.21-.62,1.49-1.43,1.92-3.47,2.4-5.41.54-2.23.68-4.59,1.2-6.83.73-3.08,1.73-6.08,2.48-9.15a21.24,21.24,0,0,0,.79-5.4,42,42,0,0,0-.94-5.71,33.19,33.19,0,0,0-3.27-10.48,68.48,68.48,0,0,0-5.09-8.13,33.38,33.38,0,0,0-5.71-6.49,32.54,32.54,0,0,0-19-6.87,14,14,0,0,0-6,.59,18.22,18.22,0,0,0-6.7,4.2c-2,2.06-4.37,3.79-6.58,5.67a13.42,13.42,0,0,0,3.21.35,20.19,20.19,0,0,1,3,.46A34.66,34.66,0,0,1,268.2,331c4.16,2.63,8.58,4.89,12.37,8.07,4.46,3.73,8.35,8.28,12.51,12.45,4,4,6.25,9.11,7.9,14.64.07.21-.15.51-.23.78l-.24-.13c-.07-.5-.13-1-.22-1.67-.39.44-.62.72-1,1.1-.91-5-3.66-8.34-6.25-11.46,1.85,3.66,3.83,7.57,5.82,11.47a1.58,1.58,0,0,0,.6.67c.89.45.85,1.05.36,1.82a1.76,1.76,0,0,0-.22.78c0,1.14,0,2.28,0,3.43a20.79,20.79,0,0,1-1.09-2.93c-1-2.77-1.55-5.87-3.06-8.22a88.1,88.1,0,0,0-8.32-10.49c-2.6-2.94-5.46-5.6-8.27-8.31-1.68-1.62-3.42-3.18-5.21-4.65-1-.83-2.24-1.36-3.31-2.14-3.78-2.77-7.73-5.19-12.21-6.24-2.52-.6-5.1-.89-7.65-1.36a4.75,4.75,0,0,0-4.55,1.52c-1.58,1.6-3.36,3-5,4.45-1.31,1.17-2.58,2.39-3.82,3.55,2.22,0,4.32-.13,6.4,0a36.83,36.83,0,0,1,7.34,1c6.58,1.85,12.84,4.55,18.3,9.26a107.56,107.56,0,0,1,14.17,14.14c3.69,4.63,7,9.62,10.3,14.64,1.67,2.57,3.44,5.39,2,8.95a.88.88,0,0,0,.05.57c.49,1.36-.2,1.37-.89,1.27-1-5.39-3.81-9.67-6.43-13.94a113.39,113.39,0,0,0-8.72-12.32c-3.13-3.85-6.7-7.27-10.07-10.88-1.21-.68.77.48,1.21.65a36.72,36.72,0,0,0-14-9.39c-4.19-1.58-8.44-3.1-12.94-3.05a42.32,42.32,0,0,0-4.33.54,9.49,9.49,0,0,1-3.29.22,1.8,1.8,0,0,0-1.83.64c-.77.68-1.46,1.45-2.21,2.14-2.05,1.88-4.12,3.74-6.17,5.61l.06.37c6.13-.49,12,1.24,17.84,2.63A66.35,66.35,0,0,1,260.84,358l-10.6-3.81a.81.81,0,0,0,.41.58c4.38,2.22,8.88,4.2,13.13,6.71A66.71,66.71,0,0,1,281.35,376c.54.64,1,1.58,1.7,1.8,2.28.74,3.42,3,4.74,4.66C290.22,385.52,292,389.2,294.19,392.86Zm95.19-16.35a5.34,5.34,0,0,1-.69-3.29c1.21-4.43,2.35-8.92,3.91-13.21,2.18-6,4.36-12.11,7.62-17.46A70.55,70.55,0,0,1,410,330.14c2.66-2.79,12.58-9.74,14.1-10.82-1.6-1.07-3-1.95-4.37-2.93-2.79-2-5.52-4.14-8.32-6.13s-5.5-3.78-8.29-5.61c-1-.64-2-1.53-3-1.57a24,24,0,0,0-5.63.63,19,19,0,0,0-12.33,8.52,36,36,0,0,0-3.36,6.85,52.91,52.91,0,0,0-3.43,16.39c-.09,1.42-.31,2.83-.47,4.24-.13,0-.07-5.6.09-8.37a12.22,12.22,0,0,1,.2-2.19c1.11-4.16,2.06-8.4,3.46-12.45A21.14,21.14,0,0,1,387,305.91a30.32,30.32,0,0,1,11.13-4.45c-1.65-1.09-3-2-4.43-2.9a14.78,14.78,0,0,0-4.5-1.87,8.76,8.76,0,0,0-6.46.84c-2.81,1.51-5.51,3.27-8.26,4.9a10.86,10.86,0,0,0-4.86,5.71c-1,2.76-2.2,5.46-3,8.3a16,16,0,0,0-.78,6.18,30.53,30.53,0,0,0,1.89,8.4c3.94,8.89,7.81,17.81,11.71,26.71.22.52.49,1,.89,1.86.18-1.64.3-2.84.45-4,.44-3.41.69-6.88,1.4-10.22,1.4-6.55,3.56-12.74,8.54-17.13a46.84,46.84,0,0,1,4.81-3.82q4-2.64,8.15-4.93a19.34,19.34,0,0,1,4.53-1.79,21.39,21.39,0,0,1,4.24-.41c1.92-.1,3.83-.14,5.75-.16.18,0,.36.26.31.22-2.79.69-5.72,1.33-8.61,2.12-6.16,1.7-11.16,5.51-15.5,10.54a46.16,46.16,0,0,0-6.52,10,44.73,44.73,0,0,0-2.77,7,64.31,64.31,0,0,0-2.29,10.25c-.39,3.46-.69,7,1.07,10.37,2,3.9,3.83,8,5.73,12,.24.49.46,1,.79,1.69.19-3.68.12-7.14.63-10.49s1.57-6.59,2.4-9.87A41.93,41.93,0,0,0,389.38,376.51Zm64.15-115.85c-.09.08-12.71-13.54-15.88-23s-4.68-18.78-2.5-28.83c-2.58,1-5,1.94-7.47,3a2.77,2.77,0,0,0-1.43,1.61,33.87,33.87,0,0,0-.2,15.51,86.81,86.81,0,0,0,3.38,10.77,42.14,42.14,0,0,0,9.88,14.82c.78.8,1.59,1.56,2.39,2.34l2.38,2.3c-12.95-9.66-23.17-27.21-19-46.1a.85.85,0,0,0-.32,0c-2.75,1.12-5.51,2.21-8.23,3.4a1.79,1.79,0,0,0-.62,1.32c-.14,3.49-.31,7-.26,10.48a33,33,0,0,0,.65,7,78.3,78.3,0,0,0,2.84,9.16,23.77,23.77,0,0,0,2.47,4.78,46.08,46.08,0,0,0,3.27,4c3.11,3.74,6.15,7.55,9.39,11.13.62.69,1,1.92,2.28,2,2.23.12,4.45.6,6.68.87,3.51.41,7,.78,10.54,1.15,3,.32,6.07.56,9.1.93,3.45.43,6.9,1,10.34,1.45,1,.13,1.93.23,3,.35a71,71,0,0,1-5.43-4.94A63.85,63.85,0,0,1,462.12,254c-1.74-3.19-3.3-6.5-5-9.72a64.8,64.8,0,0,1-5.44-14.11c-1.39-5.35-2.65-10.77-1.62-16.41a53.89,53.89,0,0,1,1.75-6.63c.53-1.68,1.29-3.27,2-5.08-1.16.5-2.05.92-3,1.25-2.16.77-4.41,1.31-6.49,2.29s-4.66.52-6.08,3c0,0-.08,0-.23,0l-1.19-.65a26.07,26.07,0,0,0-1.07,3,16.82,16.82,0,0,0-.56,3.72,75.1,75.1,0,0,0,.21,10.83c.5,3.64,1.78,7.14,2.73,10.7a38.33,38.33,0,0,0,5,11.24c2.35,3.58,5.09,6.85,7.71,10.21C451.7,258.71,452.65,259.66,453.53,260.66ZM395.41,167a45,45,0,0,1-5.27.28c-3.82-.21-7.67-.51-11.3-1.95-2.41-1-4.75-2.14-7.08-3.32a33.38,33.38,0,0,1-4.13-2.47,45.82,45.82,0,0,1-6.4-4.85,28.86,28.86,0,0,1-6.1-10,59.75,59.75,0,0,1-1.68-5.86,29.31,29.31,0,0,1,2.05,4.58,29.08,29.08,0,0,0,6.95,11.19c2.63,2.55,6.09,4.19,9.36,5.78A38.77,38.77,0,0,0,384.89,164a35.84,35.84,0,0,0,6.87,0,56.32,56.32,0,0,0,5.81-1.16,7.73,7.73,0,0,0,5.3-3.2,11.52,11.52,0,0,1,.89-1.27c1.27-1.41,2.16-3,1.56-5.17A5.16,5.16,0,0,1,404,154a31.69,31.69,0,0,1-12.16-.43,41.91,41.91,0,0,1-9-2.94,109.72,109.72,0,0,1-11.58-6.47c-3.08-2-6.23-3.93-8-7.67.78.63,1.45,1.41,2.19,2.08,3.85,3.4,13.3,8.13,13.63,8.11-9.89-5.07-18-12.52-25.15-21.68-.24.79-.44,1.32-.55,1.86-.27,1.37-.52,2.75-.73,4.13q-.87,5.55-1.69,11.11c-.31,2.16-.54,4.34-.82,6.51-.34,2.55-.72,5.09-1.06,7.64-.26,1.87-.47,3.75-.74,5.62-.55,3.89-1.13,7.77-1.67,11.66a4.15,4.15,0,0,0,1,3.47c1.44,1.67,2.81,3.41,4.15,5.17a17.74,17.74,0,0,0,6.49,5.35c5.61,2.64,11.46,4.2,17.62,3.58,1.1-.11,2.38.18,3.31-1,1.48-2,3.06-3.82,4.6-5.72l2.11-2.59c-.35-.06-.48-.13-.59-.1a21.24,21.24,0,0,1-9.44.6,78,78,0,0,1-7.79-1.43c-6-1.82-11.17-5.26-14.41-11.45-1.22-2.31-2.3-4.71-3.45-7.07.12-.08,5.89,10.58,10.87,14s10.36,4.31,16,4.51l-6-.89a8.08,8.08,0,0,1,1.25-.36c1.64-.12,3.29-.08,4.91-.33a45.1,45.1,0,0,0,7.09-1.48,32.41,32.41,0,0,0,4.84-2.6C392.3,173.49,395.13,171.59,395.41,167ZM233.57,274.65a7.55,7.55,0,0,1,.12-.94c.51-2.25,1.12-4.48,1.55-6.74,1.11-6,2.4-11.83,1.89-18a46.56,46.56,0,0,0-1.74-9.67c-.45-1.46-.91-3.18-2.47-3.78a30.89,30.89,0,0,0-3.69-1c-2.6-.66-5.19-1.32-7.8-1.95-.92-.22-1.87-.33-2.8-.49.71,2.45,1.48,4.7,2,7a71.18,71.18,0,0,1,1.52,8.09,35.27,35.27,0,0,1,.05,6.66c-.17,2.24-.69,4.45-1,6.68a49.06,49.06,0,0,1-.65,5c-.85,3.39-1.88,6.73-2.91,10.06a15.73,15.73,0,0,1-1.3,2.51A59,59,0,0,0,220,259.71a68.32,68.32,0,0,1-2.52,7c.26-1,.57-1.89.76-2.86.74-3.74,1.58-7.46,2.08-11.23a23.87,23.87,0,0,0,0-7,43.22,43.22,0,0,0-2.31-7.68c-.71-1.94-1.69-3.76-2.56-5.63l-.33.47a7.59,7.59,0,0,1-1.27-.11c-.07-1-.85-.92-1.35-1-1.23-.3-2.49-.45-3.74-.64,0,0-.09.13-.18.26l1,.91-1.46-.21c1,3,2.57,4.38,3.59,7.49a75.55,75.55,0,0,1,2.13,11.09c-.22-.51-.43-1-.65-1.54a76.64,76.64,0,0,1-.71,18.63c-1.09,6.12-2.87,12.08-4.39,18.25,2.46-.48,4.81-.93,7.15-1.41,1.92-.41,3.87-.75,5.76-1.32,3.23-1,6.42-2.16,9.63-3.22,1.92-.63,3.84-1.3,5.8-1.75a4.75,4.75,0,0,0,3.22-2.56c.83-1.58,1.45-3.28,2.93-4.32.2-.13.28-.47.41-.71.3-.59.59-1.18.89-1.76a66.72,66.72,0,0,1-2,6.81c2.74-3.19,3.37-7.31,4.31-11.71l-1.07,1.57a4.68,4.68,0,0,1,0-.75c.43-2.26,1.22-4.52,1.25-6.78.08-5.61.76-11.41-2.18-16.52-.83-1.45-1.18-3.48-3-3.93s-3.76-.78-5.65-1.17C241.93,255.24,233.71,274.66,233.57,274.65ZM428.24,133.4c-2.75,3.54-5.43,7-8.08,10.42-.56.73-1.37,1.49-1.48,2.33a21.13,21.13,0,0,0,0,5.33,59.69,59.69,0,0,0,3.19,14c1.19,3.09,2.34,6.2,4.6,8.59a73.27,73.27,0,0,0,10.88,9.7c4.05,2.86,8.09,5.73,12.59,7.7,3.3,1.44,6.53,3.15,10.23,2.91.28,0,.57.22.87.26a4.83,4.83,0,0,0,1.91.13c4.24-1.37,8.45-2.81,12.66-4.27,1.44-.5,2.83-1.15,4.42-1.8a20,20,0,0,0-1.83-.85c-3.29-1.12-6.62-2.08-9.86-3.33a53,53,0,0,1-20-13.82c-4.07-4.39-7.3-9.52-10.71-14.49a60.31,60.31,0,0,1-8.18-17.48C428.94,137,428.63,135.13,428.24,133.4ZM338.57,400.58l.38.13c.49-1.2.94-2.42,1.5-3.58,1.31-2.67,3.45-4.43,5.64-6.1,5.82-4.44,12.44-6.21,19.37-6.49a65.82,65.82,0,0,1,10.77.59,77.63,77.63,0,0,1,9.82,2.08,38.58,38.58,0,0,1,5,2.12c-.29-.66-.43-1-.59-1.35-2.86-6-5.74-12.07-8.59-18.12-1.49-3.18-2.91-6.42-4.41-9.6a1.78,1.78,0,0,0-1-1c-3.22-.57-6.43-1.2-9.67-1.5a40.76,40.76,0,0,0-7.81,0,24.42,24.42,0,0,0-6.27,1.51A24.1,24.1,0,0,0,341.58,368c-1.12,1.54-2.82,2.73-2.78,5.12,0,1.14-.37,2.29-.39,3.44-.06,3.17,0,6.35,0,9.82l1.61-2-1.47-.4a11.51,11.51,0,0,1,1.89-2.39A66.32,66.32,0,0,1,346.1,378c6.58-3.74,13.75-4.6,21-5,4.84-.28,9.51,1,14.1,2.66a8.8,8.8,0,0,1,1.14.59,34.53,34.53,0,0,1-4.49-1.05,47,47,0,0,0-4.7-.79,25.34,25.34,0,0,0-4.25-.14l1.6.55c-1.63.16-3.17-.13-4.69,0a70.36,70.36,0,0,0-8.69.93,46.33,46.33,0,0,0-7.21,2.1,16.32,16.32,0,0,0-5.09,3.27c-3.32,2.89-6.61,5.56-6.25,11C338.73,394.86,338.57,397.72,338.57,400.58ZM491,272.6c0-.12,0-.24.07-.36-1-.77-1.92-1.93-3-2.24-2.9-.82-4.47-3.3-6.08-5.6a71.61,71.61,0,0,1-5.57-9.33c-2.34-4.74-4.49-9.61-6.47-14.55a35.77,35.77,0,0,1-1.64-7c-.37-3.53-1.21-14.3-.71-17.25a77.09,77.09,0,0,1,6-19.8c-.16.84-.31,1.68-.54,2.9,1.31-2.16,2.44-4,3.57-5.85,0-.08-.06-.16-.08-.23-1,.69-2.84,1.78-2.84,1.44-.1,0-.2-.07-.27,0-4.74,1.69-9.48,3.35-14.2,5.12-2.23.83-4.36,1.57-5.55,4.46-2.19,5.31-3.61,10.59-3,16.52a57.55,57.55,0,0,0,3,13.06,99.84,99.84,0,0,0,9.55,20.51c1.38,2.17,2.46,4.71,4.19,6.46,3.24,3.26,6.92,6,10.28,9.1a5.37,5.37,0,0,0,3.75,1.79C484.71,271.81,487.87,272.28,491,272.6ZM217.64,286.84c1,1.22,1.84,2.34,2.78,3.33a37,37,0,0,1,7.35,11.67,42.54,42.54,0,0,1,3,14.83,121.74,121.74,0,0,1-.51,12.8c-.23,2.94-.81,5.85-1.22,8.78-.24,1.69-.47,3.37-.74,5.35a7.79,7.79,0,0,0,1-.63l9.66-9.18a74.57,74.57,0,0,1,5.81-5.47,9.9,9.9,0,0,0,3.77-7.63,72.87,72.87,0,0,0,0-9.69c-.24-3.47-.76-6.94-1.31-10.38a43.26,43.26,0,0,0-6.71-17.37c-.63-.94-1.2-2.33-2.61-2-1.9.44-3.77,1-5.79,1.6l.83,1a36.88,36.88,0,0,1,5.55,8.83,58.08,58.08,0,0,1,3.89,14.43c.34,2.2.28,4.49.61,6.69a41.16,41.16,0,0,1-.4,13.56c-.19-3.9-.12-7.79-.21-11.69a39.17,39.17,0,0,0-.58-6.41c-1.1-5.67-2-11.43-4.54-16.6-1.68-3.46-3.46-6.91-6.67-9a1.68,1.68,0,0,0-1.26-.17c-2.08.55-4.14,1.18-6.21,1.77ZM459.15,342.6c-1.93-1.23-3.72-2.34-5.48-3.51s-3.26-2.28-4.92-3.38-2.94-2.19-5-1.55c-4.33,1.33-8.74,2.29-12.93,4.25-4.72,2.2-9.24,4.64-12.81,8.85-2.44,2.87-5,5.61-7.4,8.53-3.11,3.82-6.38,7.46-8.84,11.94a45,45,0,0,0-4.58,10.17c-.93,3.52-1.57,7.14-2.17,10.75a8.44,8.44,0,0,0,.13,4.1c1.3,3.37,2.89,6.61,4.41,9.89.59,1.28,1.28,2.5,1.93,3.75l.31-.09a11.15,11.15,0,0,1-.33-3,79.8,79.8,0,0,1,1.93-8.86c1.07-3.62,2.44-7.13,3.69-10.68,1-2.83,1.93-5.71,3.07-8.48,2.61-7.47,14.42-19.25,18.07-22.36a56.37,56.37,0,0,1,12.7-7.85,23.37,23.37,0,0,1,9.84-2.48C453.47,342.63,456.17,342.6,459.15,342.6Zm-124.06,7.91-.66-.46a34.08,34.08,0,0,0-6.5-5.48c-2.86-1.93-7-1.77-10.08-1a69.52,69.52,0,0,0-7.08,2.64,3.72,3.72,0,0,0-2.31,2.87c-1,3.87-1.95,7.73-2.89,11.6-.26,1.05-.41,2.13-.64,3.43l1.41-.72a16.42,16.42,0,0,1,13.06-1c5.69,2,10.39,5.77,15.25,9.34a32.68,32.68,0,0,1-4.47-2c-.58-.32-1.06-.9-1.66-1.16-3.14-1.33-6.24-2.81-9.46-3.85-4.45-1.45-8.92-1.86-13.17,1a4.69,4.69,0,0,0-2,2.65c-.69,2.35-1.35,4.7-2,7.05a2.76,2.76,0,0,0,0,.81c2.45-.61,4.85-1.37,7.3-1.78a39.06,39.06,0,0,1,7.15-.59,25.47,25.47,0,0,1,6.67.9,39.8,39.8,0,0,1,8.19,3.34c1.93,1.07,3.52,2.9,5.28,4.42a5.73,5.73,0,0,0,.25-1.32c-.06-2-.21-4-.25-5.95-.11-5.13-.17-10.26-.28-15.39-.06-3.27-.18-6.54-.24-9.82,0-2-2.62-3.9-4.32-4.54C332,346.61,334.55,349,335.09,350.51ZM279.47,198.19l-.33.22a20.34,20.34,0,0,1,1.53,5.86,33.29,33.29,0,0,1-1,11.56c-1,4.37-3.34,8.13-5.73,11.7-1.47,2.2-3.61,3.88-5.52,5.69A15.38,15.38,0,0,1,266,234.8c0-.08,5.71-5.73,5.64-5.82l-8.21,6.28c-.07-.1,3.4-3.33,5.1-5,2-1.89,4.19-3.64,5.65-6,2.75-4.38,4.89-9.13,4.55-14.8a33.84,33.84,0,0,0-1.76-9.81c-.32-.86-.46-1.76-1.49-2-.15,0-.2-.69-.27-1.07-.28-1.38-.13-2.93-1.35-3.92-.85-.7-1.69-1.42-2.67-2.24,0,.44.05.8.1,1.15a13.4,13.4,0,0,1,.37,2.56c-.29,4.62-.65,9.24-1,13.86-.25,3.15-.55,6.39-2.05,9.1a87.23,87.23,0,0,1-5.61,8.37,15,15,0,0,1-2.81,3.21c-2.26,1.74-4.66,3.23-7,4.85a8,8,0,0,0-.93.93c3.11.72,6,1.42,8.83,2q5.18,1,10.37,1.92c2,.34,4.22,1.07,6.14.62a15.78,15.78,0,0,0,9.25-5.45c1.74-2.21,3.56-4.35,5.16-6.67a10.86,10.86,0,0,0,2.36-6.62c0-1.59.33-3.2.38-4.8a3.38,3.38,0,0,0-.46-2.17c-1.54-1.5-3.23-2.8-5-4.28-.14,1.23-.29,2.27-.38,3.32a25,25,0,0,1-3.22,11.08c-2.67,4.29-5.67,8.41-9.67,11.36-1.84,1.36-3.72,2.9-6.2,2.44a6,6,0,0,1,.92-.45c1.28-.59,2.8-.89,3.78-1.86a99.55,99.55,0,0,0,8.13-9,20.41,20.41,0,0,0,3.17-6.26c.6-1.89.47-4.07.67-6.12.06-.63.2-1.25.21-1.88.06-2.56-.08-5.22-1.53-7.23A67.71,67.71,0,0,0,279.47,198.19ZM261.27,313.6c2.41-2,4.59-3.68,6.71-5.48.86-.73,2-1.5,2.29-2.5a23.89,23.89,0,0,0,1.07-6.4,29.87,29.87,0,0,0-.74-6.15c-.8-4.36-1.28-8.83-3.12-12.86a11.94,11.94,0,0,0-2.49-3.49,3.17,3.17,0,0,0-3.49-1c-1.89.62-4,.46-5.92.88-2.83.61-5.62,1.44-8.42,2.19-1.68.45-3.36.92-5.19,1.43.95,2.29,1.74,4.32,2.62,6.31,1.13,2.54,2.45,5,3.5,7.58a22.2,22.2,0,0,1,1.84,8.44c0,2.44-.15,4.89-.26,7.33,0,.73-.22,1.44-.23,2.17,0,2.63,0,5.27,0,7.9,0,1.41-.28,2.81-.44,4.21l.28.23c3.51-3.45,7.72-6,10.38-10.55A21.93,21.93,0,0,0,262.79,303c0-2-.33-4.11-.48-6.17a30.79,30.79,0,0,0-3.12-11.33c-.9-1.83-1.74-3.68-2.61-5.53C263.29,290.23,266,301.2,261.27,313.6Zm-35.39-99.44q4.56-6.3,9.13-12.61c3.9-5.4,7.38-11,8.44-18.05a93,93,0,0,0,1.31-10.22,37.54,37.54,0,0,0-.83-8.09,8.12,8.12,0,0,0-1.72-3.49c-1.61-1.94-3.42-3.67-5.16-5.47-1.46-1.52-2.94-3-4.41-4.54a11.93,11.93,0,0,0,.63,2.33,40.12,40.12,0,0,1,1.12,12.83c-.35,3.18-.65,6.38-1.13,9.54a44.84,44.84,0,0,1-1.33,5.61c-.79,2.75-1.57,5.53-2.56,8.2s-2.22,5.12-3.33,7.68c-.91,2.1-1.67,4.28-2.71,6.28-1.88,3.6-3.73,7.25-6.55,10.12-2.58,2.63-5.11,5.32-7.72,7.92-1.18,1.17-2.49,2.16-3.72,3.26-.58.51-1.11,1.08-1.75,1.71,1,.18,1.82.39,2.6.45,2.09.15,4.23.64,6.1-1a7.09,7.09,0,0,1,1.11-.77c2.23-1.23,4.67-2.13,6.63-3.75,2.63-2.18,5.73-3.76,7.62-7a35.43,35.43,0,0,1,3.68-4.46,50,50,0,0,0,7.61-12.16c.39-.9.79-1.79,1.18-2.68-2.44,3-4.59,6.27-6.84,9.39A98.79,98.79,0,0,1,225.88,214.16ZM441.94,331.61l0-.33c-1.23-.88-2.45-1.78-3.7-2.62q-4.26-2.87-8.54-5.66a1.32,1.32,0,0,0-.85-.27,28,28,0,0,0-10.5,3.92,51.2,51.2,0,0,0-7.92,6.78c-2.19,2.2-4,4.81-6.07,7.22-3.71,4.41-6,9.73-8,15.22-1.26,3.49-2.39,7.06-3.3,10.68a57.69,57.69,0,0,0-1.55,9,42.58,42.58,0,0,0,.23,6.95c.16,2.21.37,4.44,1.86,6.44a11.87,11.87,0,0,0,.26-1.74,27.15,27.15,0,0,1,2.71-12c2.39-5,5-9.89,7.7-14.72a41.07,41.07,0,0,1,4.47-6.57c1.47-1.74,3.45-2.94,5-4.61,5.13-5.5,11-9.92,16.85-14.35a14.29,14.29,0,0,1,9.95-3.29A12.52,12.52,0,0,0,441.94,331.61ZM304.13,168c-1.5,2-2.84,4-4.28,5.79a25.29,25.29,0,0,1-8.53,7.39c-2.59,1.28-5.21,2.53-7.87,3.61-2.07.84-4.23,1.41-6.35,2.1,3.06-1.61,6.15-3,9.2-4.57,3.25-1.65,6.44-3.48,8.76-6.62,2.44-3.3,4.82-6.65,7.19-10a2.79,2.79,0,0,0,.32-2.74c-.6-1.55-1.08-3.16-1.61-4.75-.63-1.86-1.25-3.72-1.94-5.77a31.78,31.78,0,0,0-1.5,3.36,32.84,32.84,0,0,1-6.5,11.71,62,62,0,0,1-4.76,4.69,14.64,14.64,0,0,1-5.44,3.73c-3.35,1.07-6.65,2.36-10,3.35a63,63,0,0,1-6.37,1.25c.26.31.53.67.84,1,3.47,3.59,7,7.07,10.4,10.78,2.4,2.65,5.05,4.27,8.46,3.59,5.14-1,10.24-2.28,14.37-6.2.58-.54,1.1-1.14,1.69-1.66a20.07,20.07,0,0,0,6.34-9c.74,1.75-.69,2.91-.71,4.4a5.17,5.17,0,0,0,1.23-6.41,11.87,11.87,0,0,1-.45-1.35C305.79,173.06,305,170.55,304.13,168Zm164.7,181.6c-.09-.16-.12-.31-.21-.37-2.21-1.59-4.41-3.19-6.64-4.73-.69-.47-1.51-1.19-2.2-1.11q-5.56.65-11.09,1.66a33.23,33.23,0,0,0-11.48,3.85c-1.38.83-2.58,2-3.9,3a46,46,0,0,0-8.4,7.16c-2.59,3-5.15,6.09-7.57,9.27a60.63,60.63,0,0,0-8.2,13.48c-1.94,4.7-4.08,9.33-4.78,14.54-.41,3-1,6-1.3,9.06a10.5,10.5,0,0,0,1.91,8c.19-.81.36-1.44.47-2.08a23.9,23.9,0,0,1,.69-4.13c1.84-5,3.8-9.95,5.77-14.89A59.59,59.59,0,0,1,418,380.7a101.3,101.3,0,0,1,6.87-8.56c1.66-1.93,3.44-3.73,5.24-5.51,2.72-2.69,5.39-5.46,8.28-7.92a25.9,25.9,0,0,1,10.11-5.39c2.51-.67,5.09-1,7.63-1.52,2.37-.48,4.72-1,7.1-1.47C465,350,466.9,349.81,468.83,349.55Zm-19.89-16.24c0-.43,0-.89-.09-1.34a20.36,20.36,0,0,1-.4-3.17c.11-3.48,0-7,.59-10.41,1.25-6.7,2.88-13.32,4.48-19.94a32.72,32.72,0,0,1,8.74-15.27,47.31,47.31,0,0,1,12.22-8.75c.76-.4,1.54-.75,2.31-1.12l-.06-.35-12.35-1.16c.23.4.32.57.43.77-5,1.25-9.78,3.09-13.34,7.43-1.84,2.24-3.51,4.66-5.37,6.88-2.88,3.45-5.54,7-6.21,11.87-.49,3.5-1.3,6.95-1.63,10.45a27.76,27.76,0,0,0,2.47,13.73C442.56,327.2,444.65,331.23,448.94,333.31Zm-50.16,71.57c-.48-1.15-.76-2-1.13-2.72-1.6-3.24-3.19-6.47-4.85-9.67a5.12,5.12,0,0,0-1.61-2.16,40.41,40.41,0,0,0-5.95-2.56,55.77,55.77,0,0,0-11.66-2.18,33.56,33.56,0,0,0-13.27,1.32A109.49,109.49,0,0,0,349.83,391c-3.45,1.43-6,4.26-8.18,7.34a13.9,13.9,0,0,0-2.83,7.32c-.11,2.66,0,5.32,0,8.06a4.39,4.39,0,0,0,.3-.45,33,33,0,0,1,7.29-9.31c5.46-5.09,12.29-6.14,19.06-7a65,65,0,0,1,9.47,0,26.62,26.62,0,0,1,4.24.65h-6.75a4.28,4.28,0,0,0,.81.35c3.34.38,6.49,1.73,9.91,1.94,2.68.17,5.28,1.83,7.94,2.71C393.52,403.44,396,404.08,398.78,404.88Zm35.67-82.68c0-1.81.05-3.95,0-6.09a35.49,35.49,0,0,1,2.2-14.28q2.94-7.29,6.45-14.28a29.68,29.68,0,0,1,4.6-6.55c1.63-1.77,3.88-2.86,5.56-4.59a13.81,13.81,0,0,1,6.32-3.55l2.64-.75-.06-.36c-3.18-.34-6.36-.85-9.55-1-2.73-.11-5.45-1.11-8.2-.06-1.46.56-3.1.74-4.42,1.57a31.88,31.88,0,0,0-5.25,4.29c-2.61,2.58-5.07,5.35-6.23,9.15-.9,3-1.87,5.91-2.54,8.94a42,42,0,0,0-1.11,8.19,28.69,28.69,0,0,0,2.39,12.27,2.7,2.7,0,0,0,3.3,1.81L428.83,318a15.82,15.82,0,0,0,2.16,2.27A32.85,32.85,0,0,0,434.45,322.2Zm-57.67,36.39c-.83-1.9-1.68-3.9-2.6-5.86-1.67-3.57-3.36-7.13-5.12-10.65a3.89,3.89,0,0,0-1.49-1.52,24.94,24.94,0,0,0-8.14-2.65,14,14,0,0,0-7.45.28,25.61,25.61,0,0,0-9.55,6,12.59,12.59,0,0,0-4,7c-.3,1.7.65,3.82-1.07,5.17-.06.05.09.35.1.54.19,3.38.37,6.76.57,10.13a.52.52,0,0,0,.11.28c1.64-1.63,3.19-3.35,4.9-4.85A23,23,0,0,1,354.66,357a44.87,44.87,0,0,1,10.49-.08C369,357.22,372.78,358,376.78,358.59ZM192,225.51c0,.11,0,.23.07.34a38.91,38.91,0,0,1,3.91.38c1.76.35,3.38.65,5.15-.31a38.9,38.9,0,0,0,8.81-6.26,73.29,73.29,0,0,0,5.26-6.08c1.36-1.67,2.67-3.39,3.89-5.17,1.32-1.93,2.6-3.91,3.75-6a44.08,44.08,0,0,0,3.81-7.58c1.78-5.43,3.33-11,4.64-16.56a56.08,56.08,0,0,0,1.12-9.72,44.8,44.8,0,0,0-1.87-16.53c-.61-1.81-1-3.77-2.61-5a31.49,31.49,0,0,1-3-3.12c.21,1.64.47,2.83.5,4,.14,4.15.24,8.31.26,12.46a25.17,25.17,0,0,1-.5,3.29c-.5,4-.81,8-1.51,12-.63,3.59-1.77,7.07-2.51,10.64a44.76,44.76,0,0,1-5.4,13.7,94.33,94.33,0,0,1-5.58,8.72c-2.28,3.06-4.18,6.53-7.31,8.76-2.39,1.7-4.67,3.57-7,5.33C194.64,223.73,193.33,224.6,192,225.51ZM302,147.14c.38,1.21.68,2.21,1,3.19l3.12,9.84c.67,2.11,1.12,4.29,3.06,5.65,5,3.51,10.37,4,16,2.84a55.39,55.39,0,0,0,13.38-4.56,23.82,23.82,0,0,0,8.7-6.55,4.91,4.91,0,0,0,.77-2.08c.29-1.47.5-2.95.68-4.44.28-2.27.51-4.55.77-6.9a22.45,22.45,0,0,1-3.5,3.34c-3.07,1.83-6.28,3.38-9.43,5A20.86,20.86,0,0,1,326,154.84a48.8,48.8,0,0,1-5.17-.84,47.86,47.86,0,0,1-12.8-3.71C306,149.42,304.14,148.29,302,147.14Zm102.17,75.43c-.28.43-.59.83-.83,1.29-1.7,3.24-1.52,6.92-1.8,10.46a23.31,23.31,0,0,0,.51,6.39,60,60,0,0,0,2.9,10.95,23,23,0,0,0,6.49,9.16c.69.56,1.29,1.25,2,1.84a1.84,1.84,0,0,0,.83.33c2.54.5,5.07,1,7.62,1.44a14.12,14.12,0,0,0,4.09.26,25.27,25.27,0,0,0,4.28-1.36,42.24,42.24,0,0,1-14.85-19.48c-3.19-8.06-5.17-16.33-4.08-25.52-3.52,1.6-7,3.12-10.35,4.76a2.72,2.72,0,0,0-1.3,1.71,38.18,38.18,0,0,0-.8,7.28A80.83,80.83,0,0,0,399.88,243a12.32,12.32,0,0,0,2.84,6.23,12.14,12.14,0,0,0-.5-2.2,43,43,0,0,1-1.65-12.08c0-3.46.09-6.87,1.4-10.06C402.39,223.83,402.64,222.52,404.12,222.57Zm-112.45,67.8a53.29,53.29,0,0,1,6.94,2.66,27.58,27.58,0,0,1,6.14,4.49,35,35,0,0,1,4.78,6.2,44.26,44.26,0,0,1,3.35,7c-2.44-4.17-4.79-8.39-8.22-11.78-3.15-3.12-6.57-5.57-10.67-6.63-2.08-.53-4.36-1.16-6.13,1.1a7.23,7.23,0,0,1-.93.8l-4.16,3.9c1.17.19,2.21-.15,3.18,0,1.94.32,3.83.94,5.75,1.42a22.88,22.88,0,0,1,14,10.13A31.58,31.58,0,0,1,308,314c.78,1.71,1.79,3.45,2,5.28s1,2.76,1.8,4.27c.13-.48.19-.7.24-.91q2.4-9.79,4.78-19.59a3.33,3.33,0,0,0,.17-1.68c-1.68-4.27-3-8.72-5.7-12.43-2.25-3.13-4.93-5.57-8.66-6-1.27-.14-2.9-.16-3.82.58C296.29,285.57,294.06,288,291.67,290.37Zm122.69,18.45c-.09-.49-.1-.73-.17-.94-.9-2.89-1.92-5.73-2.66-8.66a19.49,19.49,0,0,1-.88-6.29,51.69,51.69,0,0,1,1.87-10.07,25,25,0,0,1,6-10.69c1.6-1.64,3-3.52,4.58-5.4a5.09,5.09,0,0,0-1.09-.49c-3.66-.51-7.33-1.09-11-1.44a8.51,8.51,0,0,0-3.1.84,8.15,8.15,0,0,0-5,3.88,39.83,39.83,0,0,0-3.8,14.12,37.18,37.18,0,0,0,.52,12.4c.41,1.69.52,3.53,2.19,4.55,2.41,1.48,4.76,3.1,7.14,4.65ZM266.92,205.56a25.41,25.41,0,0,1-2.33,11.65c-1.64,3.49-3.39,6.91-5.22,10.61a9,9,0,0,0,.92-.78,23.81,23.81,0,0,0,5.47-9.67c1.37-5.1,2.54-10.27,3.79-15.4.94-3.8,1.56-7.59.69-11.57a3.68,3.68,0,0,0-.88-2c-2.07-2-4.16-4-6.23-6-.87-.85-1.69-1.77-2.44-2.57,0,4.2,0,8.29,0,12.38a43.58,43.58,0,0,1-1.59,12.37c-.65,2.19-1.8,4.21-2.36,6.42-.85,3.36-2.77,5.9-4.63,8.54-.59.83-1.59,1.83-1.5,2.61a2.66,2.66,0,0,1-1.14,2.51c-3,2.87-5.73,6.26-9.72,7.87.35.23.52.44.72.47,2.5.32,5,.65,7.5.91a4.48,4.48,0,0,0,2.13-.09,16,16,0,0,0,7.13-5.29,53.14,53.14,0,0,0,8.26-16.05A64.55,64.55,0,0,0,266.92,205.56Zm174.79,64.13-3-.45c-2-.29-4-.5-6-.88-3-.55-5.87-1.47-8.69.85-2.06,1.69-4.31,3.08-5.34,5.88a38.53,38.53,0,0,0-2.76,10.82c-.23,3.55-.85,7.06-1,10.61a51.5,51.5,0,0,0,.53,8.68c.42,3,1.19,5.86,4.17,7.24a38.44,38.44,0,0,1,4.72,3.08c-.16-2-.31-3.56-.41-5.16a66.9,66.9,0,0,1-.4-7.47,44.22,44.22,0,0,1,1.22-8.75c1.4-5.72,2.77-11.39,6.27-16.12,1.67-2.25,3.39-4.32,5.85-5.54C438.41,271.72,439.88,270.75,441.71,269.69Zm-105.83,76.9c0-1,.05-1.88,0-2.7-.34-4.82-.72-9.64-1.05-14.46-.14-2.05-.14-4.12-.32-6.17,0-.44-.56-.84-.88-1.24-.2-.25-.45-.45-.65-.69a34.54,34.54,0,0,0-3.58-4.39c-2.22-2-4.72-3.36-7.76-2.56a7.23,7.23,0,0,0-4.5,2.71c-1.17,1.73-1.05,4-1.64,6a2,2,0,0,0,.07.71c6.63-2,14.79.58,18.19,5.85A14.72,14.72,0,0,1,332,329c-3.76-2.22-7.63-3.92-12-3.29-2.77.41-5.32,1.38-6.71,4.34a23.91,23.91,0,0,0-1.63,4.42c-.58,2.35-1,4.77-1.51,7.51a24.85,24.85,0,0,1,2.81-1.48,21.49,21.49,0,0,1,4.65-1.38,17.81,17.81,0,0,1,10.11,1.8C330.61,342.37,333.25,343.56,335.88,346.59Zm69.57-184.66c-1.38,1.66-2.73,3.24-4,4.88-.68.87-1.7,1.77-1.8,2.75a29.46,29.46,0,0,0,.09,7,55.65,55.65,0,0,0,1.78,7.87c.76,2.66,1.47,5.41,3.39,7.42q2.53,2.66,5.2,5.15a42.06,42.06,0,0,0,13.68,8.63c4.13,1.59,7.69.15,11.09-1.87C419,195.09,408.41,182,405.45,161.93Zm-53.44-33-.3-.44A37.38,37.38,0,0,1,327,142.71c-9.62,1.43-19,.93-28-4.76.84,2.6,1.46,4.77,2.26,6.85a4,4,0,0,0,1.52,2,45.36,45.36,0,0,0,11.82,4.61c3.42.76,6.78,1.8,10.27,1.65a43.33,43.33,0,0,0,7.62-.91c3.08-.7,6.19-1.56,8.71-3.82,1.84-1.66,3.53-3.52,5.27-5.32,2.34-2.43,3.29-5.74,4.42-8.9A39.67,39.67,0,0,0,352,128.93ZM295.14,139a22.31,22.31,0,0,0-1.41,2.16c-.33.71-.45,1.55-.81,2.22-.67,1.25-1.42,2.45-2.2,3.61-2.1,3.07-4.18,6.15-6.37,9.14-.85,1.14-2,2-3,3.06a27.84,27.84,0,0,1-7.68,6.63c-.58.31-1.12.71-1.71,1-1.25.68-10.38,4.21-16.94,4.72,2.36,2.34,4.53,4.49,6.72,6.63a3.05,3.05,0,0,0,2.89,1c2.53-.55,5.08-1,7.58-1.67a17.55,17.55,0,0,0,7.6-4.47c2.65-2.54,5.49-4.85,8-7.52a45.88,45.88,0,0,0,9.06-13.89,7.18,7.18,0,0,0,.29-5.75c-.55-1.36-.92-2.83-1.35-4.25C295.65,140.94,295.46,140.17,295.14,139Zm-55,62.28a7.17,7.17,0,0,0-.72.74c-2.58,3.74-5.22,7.42-7.69,11.25a36.46,36.46,0,0,1-12.43,11.86c-1.8,1.06-3.63,2.08-5.63,3.23,1.54.36,2.84.7,4.15,1s2.65.79,3.89.59c1.55-.26,3-1.22,4.53-1.73,2.78-.93,4.78-3.14,6.78-5.22,3.91-4.07,7.64-8.34,11.4-12.57a8.42,8.42,0,0,0,1.48-2.35c1.11-2.68,2.13-5.4,3.15-8.11,2.55-6.74,4.4-13.58,3.64-21.06a21.24,21.24,0,0,0-2.14-8.32,25.44,25.44,0,0,0-2.36-3c-.15,3.09-.29,5.67-.39,8.25-.11,3-.15,6-.29,9-.07,1.79,0,3.64-1,5.21-.05.07,0,.2,0,.29-1.36,3.23-2.56,6.57-4.13,9.66a79.81,79.81,0,0,1-9.71,14.37c-.37.45-.83.81-1.24,1.22l-.06-.12C234.36,210.8,240.26,201.4,240.14,201.29Zm182.65,7.9-7.85-4.39c-3.88-2.17-11.14-8.47-13.89-13.15-3.31-4.54-5.32-10.16-6.75-16.48a42.83,42.83,0,0,0-4.45,5.47,4.39,4.39,0,0,0-.78,2c-.23,2.9.83,5.53,1.78,8.11,1.1,3,2.68,5.77,3.84,8.74,1.91,4.87,5.7,7.43,9.53,10,.76.51,1.52,1,2.29,1.49a41.3,41.3,0,0,1-5.19-2.46c.05.42,4.13,3.43,6.12,4.4s4.13,1.57,6.28.08a14.86,14.86,0,0,1,2.82-1.14C418.57,211,420.59,210.15,422.79,209.19ZM346.73,163l-.36-.11a11,11,0,0,1-1.18.88,44.92,44.92,0,0,1-16.32,5.62c-1.75.25-3.51.35-5.26.58a20,20,0,0,1-8.66-.38,17.74,17.74,0,0,1-7.31-4.18,8.47,8.47,0,0,0,.1,1.49c1,3.64,2,7.28,3.11,10.9a3.89,3.89,0,0,0,1.13,1.68c4.16,3.6,9.08,3.82,13.94,3.17a43.6,43.6,0,0,0,9.83-2.92c2.41-.93,4.95-1.86,6.64-4.29.48-.69.9-1.61,1.56-1.95,1.43-.74,1.63-2.08,1.85-3.49.09-.52.13-1.05.2-1.58C346.24,166.64,346.49,164.83,346.73,163Zm-85.47,105a18.29,18.29,0,0,0,1.7-3.64c.87-4.18,1.55-8.38,1-12.75-.64-5-2.43-9.18-6.27-12-1.15-.83-2.76-.88-4.17-1.29a4.1,4.1,0,0,0,1.15,1.64,7.79,7.79,0,0,0,.65.52l-.66.67.34-.1c.56,3.42,1.31,6.82,1.62,10.27a59.43,59.43,0,0,1,0,9.05,18.28,18.28,0,0,1-2.34,8.68c-1,1.55-1.71,3.26-2.67,5.12a4.64,4.64,0,0,0,1,0c3.36-.89,6.71-1.84,10.08-2.67,2.76-.69,5.18-2,6.27-5a82,82,0,0,0,2.47-9.14,5.66,5.66,0,0,0,.15-3c-1-2.72-1.41-5.88-2.62-8.5-.51-1.12-2.62-4.32-2.49-4.41,3.41,2.57,3.93,7.42,5.92,10.64-.15-1.17-.22-2.1-.41-3-.61-2.88-1.36-5.71-3.47-7.74-.36-.35-1.08-.2-1.51-.5-2.13-1.5-4.57-1.26-7.09-1.87a22.13,22.13,0,0,1,2.44,3.62c2.21,5.3,4.18,10.67,3.5,16.76a17.26,17.26,0,0,1-3.66,8.35C262,268,261.61,268,261.26,268.07Zm5.45,43.86A9.26,9.26,0,0,0,268,312a18.9,18.9,0,0,1,9.8,1.9c3.6,1.67,7.36,3,10.84,5a35.73,35.73,0,0,1,7.27,5.67,40.41,40.41,0,0,1,6.91,9.7c1,1.77,2.12,3.43,3.21,5.12.2.32.51.84.71.81a1.27,1.27,0,0,0,.94-.73c.63-2.87,2.5-5.58,1-8.75-.44-.94-.79-2.51-1.39-2.64-.84-.19-1-.73-1.26-1.22A48.48,48.48,0,0,0,295,312.45c-5.32-4.74-11.34-7.66-18.36-7.24a5.85,5.85,0,0,0-3.1.91C271.24,307.87,269.08,309.88,266.71,311.93Zm101.15,27.55a85.76,85.76,0,0,0-5-10.46c-2.54-4.67-6.22-6.54-10.73-6.54s-8.35,2.27-11.18,6.36a22.08,22.08,0,0,0-3.27,7.14,27,27,0,0,0-.78,5c-.13,1.87,0,3.76,0,5.89C345.91,336.71,356,333.88,367.86,339.48Zm42.93-77.14c-.22-.36-2.85-3.38-3.81-4.64-1.1-1.45-2.08-3-3.05-4.56a73.93,73.93,0,0,1-4.09-6.92,38,38,0,0,1-2.61-10.09c-.39-3,1.12-10.55,1.22-12.24-2.3,1.23-4.42,2.36-6.52,3.51-.25.14-.42.48-.63.72.95.78-.05,1.16-.28,1.71a30.81,30.81,0,0,0-1.47,3.69,24.62,24.62,0,0,0-.91,5c-.15,2.66-.58,5.51.06,8,1.22,4.73,3.28,9.14,7.05,12.17a9.7,9.7,0,0,0,3.49,2.21A89.9,89.9,0,0,0,410.79,262.34ZM229.3,231.71c1.73.09,3.6.6,5.29.2a25.4,25.4,0,0,0,11.85-7.18,37.25,37.25,0,0,0,7.28-10.92,59.45,59.45,0,0,0,4.66-13.95c1.11-6,2.06-11.92.51-18-.22-.88-1.22-2.39.7-3.22-2-1.93-3.86-3.72-6-5.78a12.55,12.55,0,0,0,.1,3.84,33.18,33.18,0,0,1,1.93,13.2,44.24,44.24,0,0,1-2.41,10.49c-.75,2.21-1.81,4.29-2.74,6.42a23.79,23.79,0,0,1-2,4.4c-2.18,3.06-4.56,5.95-6.89,8.88a31.48,31.48,0,0,1-3.23,3.82C235.45,226.55,232.41,229.06,229.3,231.71Zm176,32.68-.2-.44c-2.79-.31-5.58-.67-8.38-.92a3.65,3.65,0,0,0-1.76.44,14.14,14.14,0,0,0-5.07,4c-2.8,3.41-3.72,7.5-3.72,11.83a58.87,58.87,0,0,0,1,8.84c.24,1.58.71,3.11,2.2,3.92.62.35,1.15.89,1.74,1.3l7.14,4.92a26.89,26.89,0,0,1-1.4-4.39c-.47-3.51-1.24-7-.62-10.61.44-2.53.29-5.21.93-7.64a18.12,18.12,0,0,1,2.93-5.92A53.3,53.3,0,0,1,405.31,264.39Zm-19.22-79.22c-1.71,2.21-3.4,4.1-4.77,6.24-1.25,2-.73,4.32,0,6.35a74.12,74.12,0,0,0,3.51,8.48c1.79,3.7,4.28,6.8,7.82,8.46,2.84,1.34,5.86,2.22,8.81,3.28a1.11,1.11,0,0,0,.7-.11c2.25-.94,4.48-1.9,6.72-2.84C396,207.89,392.18,203.89,386.09,185.17Zm-42.45,4.14c-.63,3.78-1.25,7.43-1.84,11.07-.32,2-1.2,3.87-.05,5.94.76,1.36.94,3.11,1.72,4.43a16.39,16.39,0,0,0,3.39,4.16c2.09,1.76,4.6,1.6,7.06,1,2.91-.73,5.85-1.38,7.72-4.37a6.85,6.85,0,0,1,1.16-1.12,21.07,21.07,0,0,1-8.24-.82c-4.61-1.47-8-4.64-10.78-8.77-.59-.88-1.34-2-.53-3.21a39.71,39.71,0,0,0,2.78,4.46,16.34,16.34,0,0,0,5.84,4.45c3.68,1.77,7.39,2.78,11.29.87.44-.21,1-.6,1.36-.47,1.59.57,2-1,2.77-1.78a5,5,0,0,0,.61-1C357.6,203.78,349.47,199.16,343.64,189.31Zm32.12,5c-2.93,1.15-5.52.58-8.11-.32a34,34,0,0,1-9.33-5c-3.22-2.41-6.89-4.18-9-8.12a28.5,28.5,0,0,0-3.14-4c-.3,1.53-.65,3-.84,4.46a12.12,12.12,0,0,0-.07,3.45c.71,4,2.88,7,5.37,9.77,1.39,1.54,2.91,3.22,4.67,4a22,22,0,0,0,9.07,2c.67,0,1.34,0,2,0,2.27.05,4.54.15,6.18-2.1C373.53,197.19,374.57,195.88,375.76,194.31Zm-13.7,123.05h.36c.11-.4.21-.8.33-1.19a33.36,33.36,0,0,1,1.49-4.63,39,39,0,0,1,6.62-9.29c4-4.48,8.76-7.41,14.52-8.09a.91.91,0,0,0,.67-.54,1.06,1.06,0,0,0-.34-.85c-1-.66-2-1.26-3.09-1.86a39.36,39.36,0,0,1-3.52-2,4.11,4.11,0,0,0-4.48-.53,15.54,15.54,0,0,0-2.75,2,41.13,41.13,0,0,0-11.81,15.08,8.71,8.71,0,0,0-.52,6.52C360.22,313.82,361.21,315.56,362.06,317.36Zm8.63-113.13c-1.84,2.22-3.64,4.38-5.42,6.55a.83.83,0,0,0-.22.52c.1,2.54-.13,5.18.44,7.59a18.88,18.88,0,0,0,5.38,9.19c1.47,1.43,3.19,2.44,5.3,1.8,1.81-.55,3.64-1,5.41-1.66,1.46-.55,2.85-1.33,4.5-2.11-3.43-1.49-10.56-9.34-11.62-11.12a51.31,51.31,0,0,1-2.27-5.58A42.38,42.38,0,0,1,370.69,204.23Zm-46.15,20.84a23.15,23.15,0,0,1,1.12,3.07c.45,2.16,2.11,2.73,3.61,3.33,2,.81,3.72-.42,5.24-1.73a3.83,3.83,0,0,0,.82-2c.2-1,.17-2.14.36-3.18.94-5.17,1.92-10.34,2.88-15.51.11-.59.19-1.19.34-2.07-6.14,3.31-12.11,6.08-18.82,3-.06,2.22,1.38,5.36,2.92,6.37a8.25,8.25,0,0,0,7.75.6c1.68-.62,3.32-1.37,5-2.07,0,.15-6.3,6.54-13.12,2.74.34,1.45.61,2.5.81,3.57s.36,2,1.5,2.31a11.93,11.93,0,0,0,6.09.77c1.17-.24,2.72-1.15,3.9-1.4C331.85,225.22,328.65,226.83,324.54,225.07ZM377,196.81c-1.24,1.33-2.43,2.46-3.47,3.73a7.9,7.9,0,0,0-.79,7.55c.23.48.77.78,1,1.25,1,1.89,1.79,4,3.06,5.69a85.27,85.27,0,0,0,6.47,7.21,6.16,6.16,0,0,0,5.86,2c2.67-.74,5.12-2.43,7.74-3.76a21.28,21.28,0,0,1-2.9-1.51c-3.15-2.3-6.26-4.66-9.36-7.05a17.71,17.71,0,0,1-7.12-11.65C377.32,199.12,377.16,198,377,196.81ZM344.87,175a32.72,32.72,0,0,1-4.23,4.12c-5.2,3.47-11.06,4.41-17,4.89a17.63,17.63,0,0,1-12.17-3.4A53.16,53.16,0,0,1,313,186a7.16,7.16,0,0,0,4.19,5.19,13.44,13.44,0,0,0,11.76.72c5.19-2.21,10.27-4.7,13.45-10.22.52-.91,1.42-1.62,1.75-2.59A26.45,26.45,0,0,0,344.87,175Zm30.7,111.69a3,3,0,0,0-.33-.47c-2.5-1.79-5-3.61-7.5-5.36a2.35,2.35,0,0,0-1.43-.3c-2.68.27-4.79,1.9-6.61,3.88A25.31,25.31,0,0,0,353.57,295a6.17,6.17,0,0,0-.1,3.45c1.28,3.27,2.83,6.41,4.31,9.67.16-.2.3-.3.33-.42a43.71,43.71,0,0,1,4.34-11.86C365.37,290.22,369.65,287.21,375.57,286.65ZM308.35,182.42c-6.05,11.33-15.1,16.05-26.65,15.27,0,.26,0,.39,0,.44a65.64,65.64,0,0,0,5.74,5.7c1.85,1.44,4.06,2.49,6.46,1.52a33.28,33.28,0,0,0,8.45-4.68c3.43-2.7,6-5.77,6.92-10.54A11.68,11.68,0,0,0,308.35,182.42ZM379.13,282.8l-1.71-3.56a15.06,15.06,0,0,0,.6,2.67,6.24,6.24,0,0,0,2.74,4.09c.4.25.95.23,1.31.52,1.29,1.06,2.52,2.19,3.78,3.3-.52-5-1.26-9.79-.57-14.67.73-5.09,3.32-9,6.66-12.47a21.33,21.33,0,0,0-3.48-.76c-2.31-.34-4.62-.72-6.94-1a2.06,2.06,0,0,0-1.49.64,10.85,10.85,0,0,0-2.66,6,18.86,18.86,0,0,0,.23,8.65A60.82,60.82,0,0,1,379.13,282.8Zm-102.8,20.7c1.79.31,3.14.5,4.48.8a22.18,22.18,0,0,1,5.34,1.38c2.78,1.41,5.37,3.25,8,4.9l.34.22a18.83,18.83,0,0,1,3.7,2.27,37.83,37.83,0,0,1,4.9,5.71c1.95,2.9,3.64,6,5.39,9.09a30.89,30.89,0,0,1,1.28,2.87,11.07,11.07,0,0,0,.72-2.7,8.3,8.3,0,0,0-.74-6.14c-1.57-2.75-3-5.57-4.5-8.38a23.75,23.75,0,0,0-12.63-11.45,22,22,0,0,1-3.09-1.16c-2.82-1.64-5.82-1.39-8.66-.67C279.33,300.63,278,302.25,276.33,303.5ZM385.7,230.12a27.43,27.43,0,0,1-3.51,1.36,3.23,3.23,0,0,0-2.29,2.25c-.67,1.66-1.78,3.13-2.28,4.83a8.71,8.71,0,0,0,.05,5.83c1,2.5,1.68,5.18,2.73,7.66,1.47,3.45,3.77,6.05,7.25,7,1.36.36,2.78.46,4.17.7.94.16,1.87.38,2.81.57l.21-.37A27.57,27.57,0,0,1,387,246.48C385.61,241.2,384.11,236.05,385.7,230.12ZM334,318.69l.38-.3c-.1-2-.23-4-.28-6-.06-2.49,0-5-.1-7.49a4,4,0,0,0-1.66-3.44,11.28,11.28,0,0,0-6-2.15c-3.14-.21-5.49.19-6.56,4s-1.66,7.48-2.44,11.12c1.76-.66,3.32-1.6,4.94-1.77,2.87-.3,5.35,1.22,7.67,3ZM355.25,310a6.18,6.18,0,0,0-.25-.82c-.95-2.24-2-4.43-2.84-6.72a4.87,4.87,0,0,0-3.11-3c-3.52-1.46-6.66-.11-9.87,1.42-2.14,1-2.94,2.93-3.47,5a14.19,14.19,0,0,0-.08,3.86c.06,2.65.16,5.29.26,7.94,0,.3.08.6.14,1.05C339.25,313.11,347.57,308.1,355.25,310ZM279.44,298.2a21.26,21.26,0,0,1-.1-2.46c.07-.91.34-1.79.41-2.7a21.2,21.2,0,0,0-1.66-8.94c-1.39-3.68-3-7.26-4.59-10.85a1.57,1.57,0,0,0-2-1.06,61.59,61.59,0,0,0-6.4,2.52c1.52,1.63,3.17,3.13,4.55,4.89a17.58,17.58,0,0,1,4,10.51c.14,4.5-1.19,8.71-1.92,13-.09.52-.19,1-.37,2Zm-9-56.8c3.5,8.93,4.7,17.86-.35,27a4.73,4.73,0,0,0,1.37.34,14.37,14.37,0,0,0,2.32-.44c1.05-.28,2.39-.26,3.08-1a12.49,12.49,0,0,0,3.33-4.87,25,25,0,0,0,.36-13.19c-.76-2.88-1.94-5.59-4.79-6.59A49.39,49.39,0,0,0,270.4,241.4Zm3,30.1c4.52,8,8.06,15.93,7.57,25.4a16.81,16.81,0,0,1,1.69-1.5A10.91,10.91,0,0,0,287,289a16.35,16.35,0,0,0-.89-10.13,63.82,63.82,0,0,0-3.59-7c-.57-1.07-1.17-2.3-2.56-2C277.8,270.29,275.7,270.9,273.41,271.5Zm-29.47,4.79.22.28a21.45,21.45,0,0,0,3-2.38,30.5,30.5,0,0,0,2.38-3.45c1.43-2.08,2.9-4.13,3.26-6.85.54-4.17,1.19-8.33,1.72-12.51.43-3.45-.64-6.65-1.65-9.82a2.35,2.35,0,0,0-1.24-1.36c-1.9-.64-3.86-1.11-6.09-1.72,1.56,3,2.92,5.82,2.88,9.09,0,4.06-.06,8.13-.25,12.18a33.9,33.9,0,0,1-.89,4.62c-.42,2.22-.68,4.49-1.26,6.66A49,49,0,0,1,243.94,276.29ZM375.51,234c-1.89.62-3.57,1.14-5.23,1.75-.25.09-.46.53-.56.86-.46,1.51-.81,3.07-1.32,4.56-1.63,4.74-.71,9.17,1.44,13.38a4.18,4.18,0,0,0,2.18,1.64,16.1,16.1,0,0,0,3.32.72c1.83.31,3.67.56,5.5.84l.26-.26C375,250.92,374.9,242.64,375.51,234Zm-93.58,10.57c3.3,7.48,1.73,14.64-1.54,21.68a38,38,0,0,0,5-1.22c1.13-.43,2.56-.41,3.22-2,.48-1.14,1.12-2.2,1.65-3.31.71-1.51,1.72-3,2-4.57a15.31,15.31,0,0,0-1.69-10,1.31,1.31,0,0,0-.76-.61c-1.14-.27-2.29-.46-3.51-.69.1.44,3,1.09,3.12,1.53C287.85,245.24,283.51,244.7,281.93,244.54Zm34.71-45.79c.58,2.2,1.2,4.65,1.87,7.09.31,1.14.57,2.34,1.74,2.89a16.81,16.81,0,0,0,8.64,1.19c7.35-.54,10.66-4.41,10.86-5.95.23-1.79.53-3.55.87-5.73a7.54,7.54,0,0,0-1.18.69,12.85,12.85,0,0,1-12.8,3.19C323.23,201.23,319.92,199.87,316.64,198.75Zm-33.8,70.13-.21.43a15.42,15.42,0,0,1,1.35,1.2,24.27,24.27,0,0,1,5,9.62c.52,1.74.81,3.56,1.27,5.32a20.94,20.94,0,0,0,.92,2.34,36.12,36.12,0,0,0,3.34-3.31,18.6,18.6,0,0,0,2-3.62,9.14,9.14,0,0,0,.49-4.36,17.39,17.39,0,0,0-3.21-8.73,3,3,0,0,0-2.36-1.35C288.53,267.05,285.69,268,282.84,268.88Zm8.64-61.07a8.61,8.61,0,0,0,1.2,1.58c1.17.91,1.74,2.79,3.52,2.7a11,11,0,0,1,2.34-.15c2.87.5,5.33-.63,7.5-2.45a28.2,28.2,0,0,0,4.15-4.49,16.59,16.59,0,0,0,3-5c.88-3-.94-5.53-1.85-8.61C307.61,201.44,300.43,205.82,291.48,207.81Zm85.32,75.41.3-.22a30.44,30.44,0,0,1-2-11.48c.05-4.07,1.57-7.56,3.54-11-1.06-.19-1.84-.29-2.61-.48-2.21-.54-4.11-.17-5.57,2a24.09,24.09,0,0,0-3.62,9.31,8.34,8.34,0,0,0,.25,3.91,6,6,0,0,0,2,2.83C371.58,279.93,374.22,281.53,376.8,283.22Zm-34.21-95.67c-.09-.1-.18-.19-.26-.29-3.09,5.68-8.16,7-13.48,7.71-5.53.76-10.24-1.51-14.7-5,.53,2.16,1.14,4.25,1.84,6.31a2.23,2.23,0,0,0,.93,1.23c3.24,1.49,6.41,3,10.12,2.86,4.27-.19,8.36-.85,12.08-3.25a4.7,4.7,0,0,0,2.05-2.26C341.84,192.51,342.14,190,342.59,187.55ZM317.9,297.78c.22-.19.33-.23.35-.31.9-3.15,2.27-6.05,1.17-9.73-.92-3.09-1.85-5.89-4.06-8.11a12.18,12.18,0,0,0-5.8-3.21,4.37,4.37,0,0,0-4.08,1.1c-1.44,1.25-4.38,3.76-4.32,3.89a6.71,6.71,0,0,1,1.42,0c2,.44,4.25.45,5.94,1.52,3.65,2.3,6,6.13,7.84,10.24A47.41,47.41,0,0,1,317.9,297.78Zm19.17,31.11c.93-1.42,1.69-2.79,2.63-4,2.84-3.61,6.92-5.07,10.61-7.17a4.17,4.17,0,0,1,2.32-.36c2,.18,4,.51,5.95.77-.74-1.8-1.51-3.74-2.34-5.65-.16-.38-.48-.87-.81-.95-2.23-.57-4.52-1.33-6.76-.45a17.94,17.94,0,0,0-10.28,10A13.67,13.67,0,0,0,337.07,328.89Zm-31.15-56.54c-.93-2.34-1.09-4.52-2.84-7a2.09,2.09,0,0,0-2.52-1.41c-2,.54-4.05,1.14-6.45,1.82,4,3.33,5,8.1,6.37,12.68a4.23,4.23,0,0,0,1-.5c2.51-2.31,4.9-4.79,7.53-6.89,1.24-1,1.09-2.07,1.06-3.3a12,12,0,0,0-.09-2.08c-.52-1.73-1-2.81-2.44-3.73l-4.65,1.48A14.1,14.1,0,0,1,305.92,272.35Zm29.37,30c3.6-6.26,9-5.56,14.58-4.88a50.82,50.82,0,0,0-2.18-5.18,9.27,9.27,0,0,0-6-4.38c-3.52-1-5.47.85-6.32,4A23.43,23.43,0,0,0,335.29,302.37Zm16-9.06.36,0c.38-1.28.78-2.56,1.13-3.85.92-3.42,2.48-6.2,5.72-7.45,2.28-.88,4.53-1.83,6.93-2.8-1.24-.88-2.52-1.76-3.78-2.66a8.36,8.36,0,0,0-4.92-1.43c-1,.37-3.41,1.4-3.78,1.9-2.28,2.33-2.78,3.87-4,5.91a3.82,3.82,0,0,0-.64,2.58C349.17,288.14,350.3,290.71,351.32,293.31Zm-59.47-31.58c.12-.84.23-1.68.39-2.84l-2,4.34a2.68,2.68,0,0,0,.88,0q3.15-1,6.29-2a2,2,0,0,0,1.1-.72,17.36,17.36,0,0,0,2.43-11c-.36-2.92-.5-2.9-3.34-3.51-.13,0-.25-.13-.38-.16l-4.85-.9C296.19,251.84,292,261.74,291.85,261.73Zm41.89,39.6a14.82,14.82,0,0,0-.05-3.53c-.58-2,.26-4.21-1-6.27a9.83,9.83,0,0,0-5.13-4.44c-2-.74-3.85.68-4.37,3-.22,1-.63,1.9-.85,2.88-.39,1.73-.7,3.47-1.14,5.67C326.27,295.26,329.82,298.56,333.74,301.33Zm-35.89-86.76c1.15,1.26,2,2.26,2.92,3.19,2.58,2.66,6.69,2.18,9.1.23a12.9,12.9,0,0,0,5.1-5c1.27-1.94,2.11-4.87.8-7.35a19.43,19.43,0,0,1-1-2.92C311.58,210.88,306,214.57,297.85,214.57Zm59.6,1.47c0-.13-.05-.26-.08-.39-7.76,3.9-13.26.76-17.43-6.75-.5,2.06-.84,4-1.16,5.9a.79.79,0,0,0,.07.51c.9,1.49,1.72,3.05,2.74,4.44a8.45,8.45,0,0,0,6.51,3.62c2.18.08,4.48-.37,5.94-2.82A49.39,49.39,0,0,1,357.45,216Zm9.37,18.51c-.14-.19-.18-.3-.24-.33a13.66,13.66,0,0,1-6.69-7.3c-1.63-2.74-1.09-6.87-1.21-7.15-.21.2-1,1.17-1.22,1.39-.51.58-1,1.21-1.53,1.76-1.82,1.88-2.3,4.34-2.28,6.9s3.26,6.67,5.55,7.28a2,2,0,0,0,1.16-.13C362.49,236.19,364.61,235.38,366.82,234.55Zm-3.59-20.4c-2.9,2.3-3.14,5.42-2.94,8.44.11,1.73,1.12,3.4,1.8,5.06a10.1,10.1,0,0,0,4.42,5.16,3.86,3.86,0,0,0,2.49.7c1.63-.41,5.63-2.07,4.83-2.31-3.85-1.32-5.54-3.74-7.5-6.78A20.3,20.3,0,0,1,363.23,214.15Zm-5.94,43a1.35,1.35,0,0,0-.5-.29,28.63,28.63,0,0,1-4.55-.77c-1.59-.56-2.73.15-3.9,1-1.5,1.14-2.18,4.83-.9,5.9,2.13,1.78,4.48,3.24,6.69,4.81a10.08,10.08,0,0,1,.14-5.82C354.79,260.31,355.52,258.27,357.29,257.17Zm-49.15,17.9c6,.8,9.62,5.16,13,10,1.07-2.89,1.22-5.8-.55-8.55-1.15-1.79-2.38-3.6-4.33-4.28C313,271.13,310.22,271.89,308.14,275.07Zm61-19.34C367,253.25,367,250,366.34,247a26,26,0,0,1-.3-9.33c-2.7.12-3.8,2.09-4.63,4.37a6.42,6.42,0,0,0-.13,4.46c.4,1.22.37,2.66,1.21,3.73a52.74,52.74,0,0,0,3.63,4.36C366.88,255.36,367.75,256.31,369.1,255.73Zm-64.5-34.32c1.44,1.44,2.59,2.85,4.78,2.45a23.42,23.42,0,0,0,6.15-2.19c2.1-1,2.3-3.31,3.59-4.79.08-.09,0-.43-.09-.64-.47-1.56-.94-3.11-1.43-4.66a7.69,7.69,0,0,0-.64-1.1C315.62,218.08,310.43,220,304.6,221.41ZM407.81,319a9.65,9.65,0,0,0-4.2.94A76.19,76.19,0,0,0,390,330.45c-3.11,3.17-4.89,7.27-6.08,11.72a32.88,32.88,0,0,0-1.5,10.27C386.5,337.19,393.71,324.91,407.81,319Zm-38.1-59.36-.09-.41c-1.73-.24-3.45-.49-5.18-.68-.22,0-.5.26-.68.47a11.42,11.42,0,0,0-2.84,9.79c.43,2.49,1.05,5.11,3.83,6.27a13.2,13.2,0,0,1,.13-8.65A14.79,14.79,0,0,1,369.71,259.66Zm-24.36,27.46c-.54-1.4-1-2.58-1.46-3.76a11.74,11.74,0,0,0-.59-1.3,4.35,4.35,0,0,0-5.4-2.2c-2.15.69-2.67,2.74-3.37,4.64a4.63,4.63,0,0,0,.28,3.95C338.08,286,341.58,285.84,345.35,287.12Zm-35.87-60.57a23.24,23.24,0,0,0,2.72,2.6,3.87,3.87,0,0,0,2.45.8,9.2,9.2,0,0,0,5.56-3,4.86,4.86,0,0,0-.19-6.72,36.63,36.63,0,0,1-4.65,4C313.69,225.24,311.73,225.69,309.48,226.55ZM457.62,339.63c-5.73-7.69-6.48-16.82-6.62-26.17a1.88,1.88,0,0,0-.42.88c-.38,2.78-.75,5.56-1.08,8.35-.23,1.85-.54,3.55.4,5.52s1,4.55,1.49,6.85a1.25,1.25,0,0,0,.42.76C453.73,337.11,455.68,338.36,457.62,339.63Zm-112.09-109c0-.16,0-.33,0-.49a11.38,11.38,0,0,1-8.65-5.57c-.28,1.3-.51,2.27-.69,3.26-.78,4.17.47,6.78,3.6,8.1a1.36,1.36,0,0,0,1.3-.31c.7-.81,1.19-1.84,1.9-2.64A32.9,32.9,0,0,1,345.53,230.63Zm-7.29-13c-.28,1.16-.51,1.9-.63,2.65-.24,1.51-.59,3.18.58,4.34s2.69,1.91,3.88,3.06c1.43,1.37,3.23.18,4.68,1.12.1.06.42-.14.55-.3q1.53-1.78,3-3.59C350.34,224.75,340.82,223.28,338.24,217.64ZM346,265.08c-.61.39-1.84.05-2.3.64-1.41,1.1-1.45,3.07-2,4.5-.23.61.51,1.72.88,2.56.58,1.32,1.22,2.61,2,4.19,1.68-3.68,3.18-7,6.86-8.11A58.83,58.83,0,0,0,346,265.08Zm11.37-10.84A18.43,18.43,0,0,1,354,242.05c-.83.59-1.59,1.16-2.38,1.67a4.22,4.22,0,0,0-2,4.58c.25,1.94.94,3.94,2.43,4.76S355.59,253.88,357.39,254.24Zm5,3.88-1.25-.33a2.61,2.61,0,0,0-3.21,1.21c-2.41,1.7-3.45,4.2-2.65,9.1,0,.17,0,.44.15.53,1.29,1,2.59,2.06,4.23,3.34C358.74,266.68,359.54,262.2,362.35,258.12Zm-5.56,15.35c-.65-.79-1.27-1.66-2-2.39s-1.65-1.16-2.64-.16c-.83.85-1.87,1.44-2.72,2.27-2.63,2.54-5,5.49-2,10C349.38,278.45,351.56,273.94,356.79,273.47ZM334.46,233c-1.88,1.17-4.78,2-7.28-.3,1.2,4.05,4,14.88,4.15,13.58C332.36,242,333.39,237.6,334.46,233Zm82.72,43.12c-5.13,4.66-7,22.17-2.87,27.37A74.69,74.69,0,0,1,417.18,276.15Zm16-149.11-.39-.09a14.83,14.83,0,0,1-1.46,1.83,6.36,6.36,0,0,0-1.86,6.42,71.64,71.64,0,0,0,2.67,8.89,38.7,38.7,0,0,0,3.36,6.47C432.87,143,431.66,135.17,433.21,127ZM309.28,229.82l-.4.18c-.74,5.67-2.17,10.89-7.78,13.76,1.12.35,1.84.62,2.57.79,1.16.29,4.17-.79,4.53-1.76.88-2.43,2-4.87,2.31-7.41C310.72,233.62,309.73,231.68,309.28,229.82Zm38.13,25.43-13.2-2.38c-.06.16,6.77,5.62,10.49,8.36a14.75,14.75,0,0,1,.66-3.29A15.37,15.37,0,0,1,347.41,255.25Zm-22.93,15.11c1.09-4.95,2.1-9.46,3.17-14.33l-8.23,8.21A10.11,10.11,0,0,1,324.48,270.36Zm-10.66-1.1.21.52c4.12.45,7.07,2.63,8.45,7.12,2.33-3.12-.06-8.54-2.18-10a2.62,2.62,0,0,0-2.22-.5A37.74,37.74,0,0,0,313.82,269.26ZM458.7,195.93A53.83,53.83,0,0,1,443.58,189c-4.59-3.13-9.11-6.36-13.64-9.54,1.19,1.22,2.37,2.53,3.65,3.71a77.25,77.25,0,0,0,13.58,9.65c3.19,1.87,6.48,3.31,10.15,3.31A8.25,8.25,0,0,0,458.7,195.93ZM324.12,285.42a12.07,12.07,0,0,0,3.21-.22,3.08,3.08,0,0,1,3.32.7c.86.76,1.64,1.64,2.75,2.77-.4-2.33-.68-4.28-1.09-6.2-.08-.37-.72-.54-1-.91-1.4-2-3.23-1.41-4.8-.66A4.58,4.58,0,0,0,324.12,285.42Zm-9.36-53.8c.84,1,1.57,1.87,2.34,2.71a1.72,1.72,0,0,0,.79.44c2,.54,3.91.6,5.64-.88a2.32,2.32,0,0,0,.78-2.28c-.3-1-.56-1.9-1.09-3.53A14.77,14.77,0,0,1,314.76,231.62Zm16.84,23.95c-1.37,4.58-2.87,9.58-4.36,14.53,1.62-1.54,3-2.4,4.76.44C331.87,265.59,331.73,260.38,331.6,255.57Zm-24.46,2.16.27.47c1.71-.84,3.44-1.65,5.15-2.52,1.5-.77,1.71-1.59.95-3l-1.29,2.56a8.92,8.92,0,0,0-.42-6.12l-3.83-.82C309.94,252,308.1,254.8,307.14,257.73Zm34.22,20.59c-.65-2.93-2.39-5.65-4.37-6.81-.86-.51-2.93,1.58-2.91,2.41,0,2.08.2,4.16.34,6.62C336.52,278.84,338.58,277.52,341.36,278.32Zm10.86-50-.32-.2c-.93,1.37-1.87,2.74-2.79,4.13a.6.6,0,0,0,0,.42c.59,2.45.85,4.18,2.79,5.64,1.75,1.31,2.8-.05,5.18-.48C354,235.46,351.8,232.72,352.22,228.34Zm61.48.1,1,3.12.28,0V217.19c-3.32,1.24-3.29,3.82-2.92,9.92l.52-.66c.2,1.53.39,3,.58,4.55l.31,0C413.51,230.28,413.58,229.57,413.7,228.44Zm-80.76,51c-.37-1.8-.65-3.63-1.12-5.4-.31-1.15-1.21-2.74-2.23-2.81a3.75,3.75,0,0,0-3.14,2.46,23.73,23.73,0,0,0-.81,4.38l.18.42C329.26,275.09,332.75,279.62,332.94,279.44Zm-21.66-10.65c1.18-1.06,2.49-2.2,3.75-3.42a1.74,1.74,0,0,0,.54-1.27c-.35-1.2.4-2.33-1.37-3.47-.1-.22-.72-.28-1.05-.19-1.38.36-2.73.81-3.8,1.14A6.46,6.46,0,0,1,311.28,268.79Zm51.05-13.87c-2.48-4.07-2.81-8.95-4.4-13.37-2.57,3.19-2.87,6.71.6,9.82.37.33.88.76.93,1.2C359.71,254.53,361.25,254.36,362.33,254.92ZM248.75,204.23c4.94-5.21,8-19.85,4.92-23.41a35.34,35.34,0,0,1-1.31,12.09C251.24,196.67,250,200.38,248.75,204.23Zm66.49,32.17c-1.05,2.12-1.67,4-2.77,5.37a25.13,25.13,0,0,1-4.07,3.47c4.34,1.93,8.81-1.12,9.37-6Zm18.16,23.4-.24-.05q.31,5.89.63,11.81c1.12-1.8,2.45-2.26,4.61-.83Zm-14.21-18.61c.18,3.21-.81,4.4-3,5.78,3.11.24,7.79,1.34,10.74,1.56C327,248.42,321.26,243.27,319.19,241.19Zm79.32-70.38-.31-.11c-.68.87-1.32,1.79-2.05,2.59a2.3,2.3,0,0,0-.48,2.23,23,23,0,0,0,3.3,8.28l1.09,1.77.34-.17A40.61,40.61,0,0,1,398.51,170.81Zm57.83,27.53-.33-.48c-2.14.63-4.33,1.09-6.41,1.92-3.21,1.28-7,1.11-9.62,4.39a6.28,6.28,0,0,0,1.75,0c4.39-1.44,8.76-2.91,13.12-4.45C455.42,199.5,455.85,198.81,456.34,198.34ZM349.75,252.6c-.1-.32-.11-.62-.25-.77a10.45,10.45,0,0,1-2.72-5.68,1,1,0,0,0-.72-.64,3.44,3.44,0,0,0-3.11,2.14c-.2,1,1.19,4,2.11,4.24C346.59,252.22,348.15,252.37,349.75,252.6ZM302.9,257a8.06,8.06,0,0,0,3.7-6.87c0-1.69-.46-2.31-2-2.61-.42-.08-.82-.35-1.24-.43a9,9,0,0,0-1.38,0A15.74,15.74,0,0,1,302.9,257Zm-6.67-101c-2.34,3.29-4.63,7.06-7.43,10.3s-6.05,5.84-9.15,8.77C285.53,173.05,294,163.48,296.23,156Zm123.68,7.89c-1.3-5.42-2.56-10.85-2.38-16.79-1.34,1.4-2.55,2.51-2.13,4.54.17.8.31,1.61.53,2.39C416.88,157.47,417.8,161,419.91,163.87Zm-72,69.21c-4,4-3.5,5.37-2.59,6.63,1.35,2.27,4,1.82,5.82.28C348.73,237.86,348,236.75,347.89,233.08Zm78.66,139.38c6.42-7.95,14.26-13.72,22.77-18.49C439.61,357,432.75,364.24,426.55,372.46Zm-91.15-139c-.12,1.59-.23,3.12-.34,4.66s-1.2,5.58-1.31,7c.16,0,4.55-6.16,6.14-8a21,21,0,0,1-2.36-1.46A25.41,25.41,0,0,1,335.4,233.44Zm108.16,99c-4.85-1.2-11,1.19-14.58,4.91ZM320.33,237.21a38,38,0,0,1,2.82,2.72c.76.88,1.5.39,2-.05a3,3,0,0,0,1-2.06,23,23,0,0,0-1.12-4C323.9,235.86,322.61,237.23,320.33,237.21Zm-1.21,13.1-5.2-1c.34,1.86.67,3.68,1,5.49C318.09,254.08,319.37,252.74,319.12,250.31ZM272.06,295.6c1.82-3.84,0-12.51-2.77-14.42C270.18,285.82,271.93,289.43,272.06,295.6Zm68.57-27.16c.76-3.36,1.76-4.47,3.84-4.93a21.55,21.55,0,0,1-2.88-1.24c-.73-.44-1.15-.21-1.71.3a2.08,2.08,0,0,0-.54,3A28.8,28.8,0,0,1,340.63,268.44ZM411,398.89a49,49,0,0,0-4.13,13.81c-.26,1.45-.22,3.05,1.62,3.95C408,410.38,409.6,404.66,411,398.89Zm-68.1-160.17-5.37,6.22c-1.33,1.66,5.28-1.64,7.81-2.59C343.64,242.1,343.14,240.63,342.86,238.72Zm-208.62-5.54a124.08,124.08,0,0,1,2.92,21.13C137.65,247,137.84,239.77,134.24,233.18Zm274.49-16.8.08.32a8.8,8.8,0,0,0,1.33-.3c2.05-.75,4.08-1.59,6.14-2.31,2.66-.93,5.33-1.8,8-2.64.63-.19,1.3-.4,1.12-1.17-.06-.25-1.08-.25-1.67-.32-.14,0-.3.17-.47.24l-13.14,5.57C409.66,216,409.19,216.17,408.73,216.38ZM452,99.94a13.14,13.14,0,0,0-3.59,2.87c-2.06,2.53-4,5.15-6,7.8a5,5,0,0,0-.64,2.77Zm17,123.29c-1.16,6.54.46,12.9,2.78,19.38Zm-235.75,3.54c4.36-4.38,9.37-8.09,11.95-14.32.17-.41.27-.86.38-1.19Zm18.38,44,.51.22c.81-1.58,1.69-3.13,2.4-4.76.18-.42-.31-1.14-.23-1.67.15-1,.51-1.94.75-2.92a17.76,17.76,0,0,0,.25-7.75C254.53,259.66,253.66,265.37,251.65,270.8Zm-9.31-74.6c2.36-2.2,5.32-12.83,4.24-15.38C245.15,186,243.77,191,242.34,196.2Zm167.43,2.33-.12.12c1,.93,2,1.91,3.11,2.77,3.45,2.73,7,5.32,11.27,6.2a12.92,12.92,0,0,0,2.49,0c-3-1.29-6-2.3-8.84-3.82S412.4,200.32,409.77,198.53ZM288.85,115.11c1.65,5.58,3.24,11,4.84,16.36l.32-.1a10.68,10.68,0,0,0-.11-2.2c-1-3.89-2.09-7.78-3.26-11.62C290.37,116.65,290.48,115.26,288.85,115.11ZM356,319.49c-2.83-2.15-7-.57-11.79,4.09C345.81,322.34,352.48,318.14,356,319.49Zm23.48-125.77c-2.54,2.39-.83,10.77,2.59,13.88A25.76,25.76,0,0,1,379.48,193.72Zm21.11,77.86c-2.78,3.52-4.54,15.41-2.67,18.48A51.77,51.77,0,0,1,400.59,271.58Zm-29,17.12c-4.53,1.56-7.49,5.36-9.32,10.13Zm-37.46,92.63a23.11,23.11,0,0,0-13.81-6.09Zm93.12-59.81c-1.18-.86-2.05-2.17-3.56-.92s-3.4,2.61-5.1,3.91l.1.17ZM304,162.44c-.78-4.37-2.61-8.37-4-12.6a2.46,2.46,0,0,0-.18,1.51c.58,2.07,1.21,4.14,1.86,6.19A23,23,0,0,0,304,162.44Zm-3-14.9-.4,0a2.71,2.71,0,0,0-.06.84c.18.75.41,1.47.64,2.2,1,3.24,2,6.48,3.09,9.71a3.86,3.86,0,0,0,.62.91C305.09,161.07,302.49,152,301.06,147.54ZM437.92,205.1c-2-1.19-3.8.08-5.21,1.14a6.8,6.8,0,0,1-3.24,1.43c-.27,0-.51.4-.77.61l.22.38C432.23,208.51,434.9,206.27,437.92,205.1Zm-87.16-79.53c-3.57,2.71-10.61,8.33-10.55,8.43,2.22-1.29,4.45-2.57,6.65-3.9.49-.3,1.2-.75,1.25-1.21.13-1.07.89-1.35,1.43-1.92A10.76,10.76,0,0,0,350.76,125.57ZM322.19,258.2l-5.74,1.4c1.34.79,1.43,2,1.1,3.37Zm36.86,25c-3,1.27-6,6.15-5.82,9ZM434.39,122.5c2.19-2.67,4.08-4.93,5.91-7.26a4.21,4.21,0,0,0,.36-1.56l-.43-.16c-1.92,2.46-3.85,4.92-5.74,7.42C434.31,121.18,434.43,121.7,434.39,122.5ZM341.84,247.28l-2.94,1.2c-.75,1.89.46,3,2.94,2.79C341.84,250,340.64,248.72,341.84,247.28Zm63.85,57.65,10,7.05C415.37,310.37,408,305.22,405.69,304.93Zm-141,9.45h10.93C272.81,312.7,266.87,312.52,264.64,314.38Zm124-85.07-.15-.39c-.56.33-1.41.51-1.63,1a10.46,10.46,0,0,0-.74,6.63Zm-83.37,121a12.12,12.12,0,0,0,.48-1.26,5.1,5.1,0,0,0-.42-3.57c-.91-2.07-1.64-4.25-2.44-6.38l-.18.11C303.58,342.76,304.41,346.35,305.31,350.27Zm-138.5-25.46c.12-.14-6.12-10.24-10.23-12.63C158.85,314.91,164.26,321.75,166.81,324.81Zm159-70.24-9.87,2.78a16.8,16.8,0,0,0,3.36-.27c1.17-.2,2.34-.39,3.52-.5A2.89,2.89,0,0,0,325.8,254.57Zm35.34,69.73c-.9-3.8-2.86-4.77-4.94-3.45ZM307,396.08c-4-.6-8.45,1.63-9.66,3.43Zm-53.6-160.22-.08.55,13.41,2.44.09-.58Zm124.4,49.86-8.67-6C369.82,281.54,376.84,286.15,377.82,285.72Zm-50-92a16.38,16.38,0,0,0,10-3.45Zm36.82,129c.07-4.75,1.53-9,2.94-13.54C365.49,312.2,363.59,320.87,364.68,322.71ZM344.4,187.09c-.48,2.16,1.44,5.22,4.85,7.75Zm-126.21-1.8L213.08,196C216,192.93,218.38,185.4,218.19,185.29Zm-68.49,124,6.33,4.24C153.64,310,151.89,308.81,149.7,309.29ZM384.61,208.44q-1.85-4.16-3.71-8.31C381.29,203.31,384.44,208.52,384.61,208.44Zm-256.32,8.37c.81,1.21,7.18,2.26,9.68,1.66Zm185,17.85-2.21,7A6.46,6.46,0,0,0,313.24,234.66Zm-61.52,4.39c-2.17-1.76-4.83-1.82-7.39-2.24C246.58,238.28,249.2,238.38,251.72,239.05Zm87.1,130,.3.27,5.57-6.66A13.82,13.82,0,0,0,338.82,369.09Zm26.57-97.65c.92-2.67,2-5.67,2.91-8.39C366.16,264.89,364.6,269.74,365.39,271.44Zm-27.14-106c2,.17,7.51-3.21,7.74-4.66ZM415,143.11l3.22-3.76C415.49,138.88,414.7,139.81,415,143.11ZM324.79,241.7l3.27,3.24c-.46-1.71-.88-3.22-1.3-4.76Zm-105.1-56.61L216,194.63A18.6,18.6,0,0,0,219.69,185.09Zm189.5,237.58.37-.12a20,20,0,0,0-.47-3.41c-.13-.44-1-.62-1.49-.92-.09.35-.35.79-.24,1C407.92,420.42,408.57,421.53,409.19,422.67Zm-94.62-225c.13,0-1.47-6.22-2.4-9.25l-.61.23Q313.06,193.14,314.57,197.64Zm110-62.62c-2.63,1.49-4,4.15-5.74,6.55l.28.26ZM340,315.66c-2.11,1.22-3.76,4.21-3.32,6.28C337.85,319.77,338.94,317.72,340,315.66ZM332.25,140c6.9-1.08,10.24-4.83,10.21-4.93C340.47,135.7,335.73,139.16,332.25,140ZM320.41,253.12l4-1.15a6.79,6.79,0,0,0-2.37-.83C320.45,250.89,320.22,251.18,320.41,253.12ZM367,242.24l2.05-5.82-.39-.16C366.7,237.71,366.82,240,367,242.24ZM250.9,270.61l-3.32,4.81C250.67,275.44,250.2,272.55,250.9,270.61Zm-49.71,29.44c-1.77-3.45-3.65-5.13-5.07-4.75Zm95.36-162.57c-.56.84,1.9,7.35,2,7.31C297.92,142.43,297.26,140.06,296.55,137.48ZM379,233.11c-2-.15-2.76,1.24-2.42,4.23C377.47,235.82,378.19,234.55,379,233.11Zm-240.8,7.76v12C138.76,248.8,139.3,244.73,138.22,240.87Zm159-103.66q1.27,4.26,2.53,8.5l.56-.2A82.2,82.2,0,0,0,297.18,137.21Zm39.91,122.43,1.19,3.11,2-1.36C339.18,260.68,336.24,258.27,337.09,259.64ZM196.14,243.33c.62,2.68,1.18,5.12,1.74,7.57C198.23,247.92,197.52,244.93,196.14,243.33Zm91.24,141.52c1.07,1.8,4.09,6.33,4.82,8.88.18-.13-.52-1.91-1.06-3.88C290.07,388,287.56,384.71,287.38,384.85ZM254,327.43l5.37,1.36C257.91,326.72,254,327.24,254,327.43ZM308.05,209.1a8.16,8.16,0,0,0,4.26-5.7Zm82.4-16.8c-.15.09.88,5.14,3.26,7.2C392.63,197.1,391.37,195.79,390.45,192.3Zm10,26.11L394.4,217C396.24,218.3,398.14,219.3,400.45,218.41Zm28-89.8-3,4.2A4,4,0,0,0,428.42,128.61ZM339.11,328.09l4.28-4.86C341.42,324.24,339,328,339.11,328.09Zm-45.33,54.34c.13-.08-.9-2.87-.77-2.95a57.11,57.11,0,0,0-4.31-6.86C290,375,293.09,380,293.78,382.43Zm-9.22-229.84c-.07-.06-4.58,4.51-5.74,6.84C280.73,157.45,284,154.89,284.56,152.59Zm22.54,21.15c.12-.06-1.29-5.79-2.11-8.59l-.5.18Zm9.55,31.54c.19,0,2,5.89,2.22,5.85-.63-2.21-2.92-10.4-3.55-12.61A42.3,42.3,0,0,0,316.65,205.28Zm-109,29.39.22-.14a17.37,17.37,0,0,0-1.76-2.93c-.46-.51-1.34-.58-2-.85L204,231Zm99.71,17.4c-.82,2.05-1.74,4.37-2.58,6.5C306.17,257.94,307.51,254.62,307.38,252.07ZM427.9,265l4.18.78C430.65,263.78,430.56,263.91,427.9,265ZM307.22,170.14a71.14,71.14,0,0,0-1.55-7.09l-.54.18C305.83,165.54,306.52,167.84,307.22,170.14Zm-8.53,105.32V280C300.17,279.13,300.17,279.13,298.69,275.46ZM182.18,225.65c0-.19-10.37-2.6-10.33-2.79a42.94,42.94,0,0,0-6.29-.84C167.61,222.49,180.13,225.18,182.18,225.65ZM433.55,122.12l-2.52,3.2C432.4,125.78,433.69,124.26,433.55,122.12ZM375,352.47c.28-1.26-4.23-10.58-4.08-10.67-.93-1.88-6.2-14.09-7.14-16C363.61,325.9,374.05,350.58,375,352.47ZM231.87,149.05c-.1.12-2.48-2.19-2.57-2.07,1.67,1.7,5.62,5.81,7.29,7.5A59.86,59.86,0,0,0,231.87,149.05Zm13.38,12.45a3.12,3.12,0,0,0,4.46.31Zm-4.84,74.93c0-.22,3.14-.17,3.18-.4a65.41,65.41,0,0,0-8-.56ZM455.48,95.6c-1.14-.42-2.29,1-2.72,3.33ZM297.78,238.27c2-1.58,2.63-3.68,3.19-5.84Zm62.56,35.54c1.18.92,4.53,3.76,5.71,4.68l.3-.49C365.18,277.07,360.45,273.63,360.34,273.81Zm-25.75-15.69c.92,1.86,4.63,11.16,5.56,13,.08-.05-2.63-7.52-2.55-7.57A33.77,33.77,0,0,0,334.59,258.12Zm11.07-112.28c1.34-1.17,2.83-2.2,3.18-4.3Zm3.41,98.46-1.48.43a14.25,14.25,0,0,0,.73,2.76C348.57,246.45,348.81,245.4,349.07,244.3Zm68.6,122.14c-3.49,2.48-4.49,5.76-5.59,7.34C412.19,373.88,416.57,368,417.67,366.44Zm-83.76-116c.87.19,2.81.17,3.77.38,0-.52-.7-1.38,0-1.59C336.73,249.53,333.92,250.39,333.91,250.46Zm-23.51-65.8.5-.28c-.46-1.39-2.45-7.61-2.91-9C307.84,175.45,310,183.24,310.4,184.66ZM268.77,333.17c-2.7-3.4-8.54-4.65-8.6-4.51C261.32,329.23,267.62,332.61,268.77,333.17Zm13.6-77.25q-.64,2.67-1.28,5.34C281.22,261.3,283,257.17,282.37,255.92ZM435.55,326l.35-.52c-1-.71-7.33-4.93-8.34-5.64C427.47,320,434.56,325.3,435.55,326ZM277.66,159.07c-.11-.12-1.39,2.16-3.72,3.08C274,162.26,276.5,162.24,277.66,159.07Zm2,84.38-.42.44c.61.64.57,2.16,2.39,1.78Zm-8.82,20c1.21-1.85,1.53-3.51,1-4.71Zm10.24,80.23,5.61,5.83c.11-.14-2.42-3-2.3-3.17A21.47,21.47,0,0,0,281.11,343.7Zm57-155.81a13.75,13.75,0,0,0,3.23-1.67c-.1-.17,1.31-2.39,1.21-2.57C341.68,185.44,339.09,187.16,338.12,187.89ZM227.05,145.05c.11-.15-3.06-3.64-3-3.79a26.1,26.1,0,0,0-3.37-2.52C221.75,139.73,226,144.06,227.05,145.05Z"/><path d="M129.76,311.25c1-.35,1.93-.77,2.91-1,2-.57,7.35-2.24,9.38-2.77,0,.18-3.23,1.53-3.19,1.71l-9.12,2.08Z"/><path d="M129.74,311.23c-2,.53-5.54,1.57-7.55,2.09,0-.21,1.45-.92,1.41-1.13l6.16-.95Z"/><path d="M120.36,313.75c-1.45.4-19,5-20.44,5.36,0-.13,18.89-5.41,20.33-5.83C120.28,313.44,120.32,313.59,120.36,313.75Z"/><path d="M513.57,282.3c-2.12,1.41-4.21,2.64-6.15,4.12-2.25,1.7-4.4,3.55-6.52,5.44-5.35,4.76-9,11-11.64,17.84a46.27,46.27,0,0,0-3,12.59c-.25,2.78-.7,5.55-.72,8.33A56.21,56.21,0,0,0,487,343.53c1.09,4.86,2.88,9.19,6.28,12.59.13.13.31.26.36.43a6.44,6.44,0,0,1,.21,1c-.29-.09-.69-.07-.85-.28a49.39,49.39,0,0,1-3.52-5.08,34.57,34.57,0,0,1-3.94-13,74.43,74.43,0,0,1-.52-11.74,56.8,56.8,0,0,1,4.51-20.51A45.93,45.93,0,0,1,496.79,295a69.17,69.17,0,0,1,8.56-7.88,71.24,71.24,0,0,1,7.54-4.68A2.56,2.56,0,0,1,513.57,282.3Z"/><path d="M414.49,181.14c-1.12-2.57-2.35-5.07-3.31-7.7s-1.68-5.37-2.44-8.08a3.2,3.2,0,0,1,.16-1.79c.36,1.22.67,2.45,1.08,3.65.8,2.39,1.66,4.75,2.49,7.13.69,2,1.38,4,2,6a2.53,2.53,0,0,1,0,.86Z"/></svg>