<svg xmlns="http://www.w3.org/2000/svg" xmlns:xlink="http://www.w3.org/1999/xlink" width="800" zoomAndPan="magnify" viewBox="0 0 600 599.999999" height="800" preserveAspectRatio="xMidYMid meet" version="1.0"><defs><clipPath id="4f3981f9c1"><path d="M 95.136719 230.550781 L 576.019531 230.550781 L 576.019531 430 L 95.136719 430 Z M 95.136719 230.550781 " clip-rule="nonzero"/></clipPath><clipPath id="22e42e7715"><path d="M 30 411.648438 L 131 411.648438 L 131 462.65625 L 30 462.65625 Z M 30 411.648438 " clip-rule="nonzero"/></clipPath><clipPath id="c26dd96f1f"><path d="M 494 216 L 541 216 L 541 263 L 494 263 Z M 494 216 " clip-rule="nonzero"/></clipPath><clipPath id="b3d6470826"><path d="M 311.203125 400.457031 L 223.71875 232.921875 L 475.023438 101.699219 L 562.503906 269.234375 Z M 311.203125 400.457031 " clip-rule="nonzero"/></clipPath><clipPath id="849958d996"><path d="M 311.203125 400.457031 L 223.71875 232.921875 L 475.023438 101.699219 L 562.503906 269.234375 Z M 311.203125 400.457031 " clip-rule="nonzero"/></clipPath><clipPath id="032a041a4c"><path d="M 426 183 L 471 183 L 471 227 L 426 227 Z M 426 183 " clip-rule="nonzero"/></clipPath><clipPath id="a641568205"><path d="M 311.203125 400.457031 L 223.71875 232.921875 L 475.023438 101.699219 L 562.503906 269.234375 Z M 311.203125 400.457031 " clip-rule="nonzero"/></clipPath><clipPath id="8a807848ff"><path d="M 311.203125 400.457031 L 223.71875 232.921875 L 475.023438 101.699219 L 562.503906 269.234375 Z M 311.203125 400.457031 " clip-rule="nonzero"/></clipPath><clipPath id="fc68c34283"><path d="M 418 238 L 459 238 L 459 279 L 418 279 Z M 418 238 " clip-rule="nonzero"/></clipPath><clipPath id="9757223ee9"><path d="M 311.203125 400.457031 L 223.71875 232.921875 L 475.023438 101.699219 L 562.503906 269.234375 Z M 311.203125 400.457031 " clip-rule="nonzero"/></clipPath><clipPath id="db130dd88d"><path d="M 311.203125 400.457031 L 223.71875 232.921875 L 475.023438 101.699219 L 562.503906 269.234375 Z M 311.203125 400.457031 " clip-rule="nonzero"/></clipPath><clipPath id="2d9f9de785"><path d="M 370 199 L 408 199 L 408 237 L 370 237 Z M 370 199 " clip-rule="nonzero"/></clipPath><clipPath id="fa75c9a466"><path d="M 311.203125 400.457031 L 223.71875 232.921875 L 475.023438 101.699219 L 562.503906 269.234375 Z M 311.203125 400.457031 " clip-rule="nonzero"/></clipPath><clipPath id="f6a937b61e"><path d="M 311.203125 400.457031 L 223.71875 232.921875 L 475.023438 101.699219 L 562.503906 269.234375 Z M 311.203125 400.457031 " clip-rule="nonzero"/></clipPath><clipPath id="f383b7e8be"><path d="M 366 238 L 401 238 L 401 273 L 366 273 Z M 366 238 " clip-rule="nonzero"/></clipPath><clipPath id="2013798cb9"><path d="M 311.203125 400.457031 L 223.71875 232.921875 L 475.023438 101.699219 L 562.503906 269.234375 Z M 311.203125 400.457031 " clip-rule="nonzero"/></clipPath><clipPath id="44c12baadb"><path d="M 311.203125 400.457031 L 223.71875 232.921875 L 475.023438 101.699219 L 562.503906 269.234375 Z M 311.203125 400.457031 " clip-rule="nonzero"/></clipPath><clipPath id="8dd45fa60a"><path d="M 325 239 L 357 239 L 357 271 L 325 271 Z M 325 239 " clip-rule="nonzero"/></clipPath><clipPath id="4a54c4e81d"><path d="M 311.203125 400.457031 L 223.71875 232.921875 L 475.023438 101.699219 L 562.503906 269.234375 Z M 311.203125 400.457031 " clip-rule="nonzero"/></clipPath><clipPath id="f20be9725c"><path d="M 311.203125 400.457031 L 223.71875 232.921875 L 475.023438 101.699219 L 562.503906 269.234375 Z M 311.203125 400.457031 " clip-rule="nonzero"/></clipPath><clipPath id="0febfa7cf6"><path d="M 311 192 L 340 192 L 340 221 L 311 221 Z M 311 192 " clip-rule="nonzero"/></clipPath><clipPath id="b27bb5f908"><path d="M 311.203125 400.457031 L 223.71875 232.921875 L 475.023438 101.699219 L 562.503906 269.234375 Z M 311.203125 400.457031 " clip-rule="nonzero"/></clipPath><clipPath id="a0c6e9bff2"><path d="M 311.203125 400.457031 L 223.71875 232.921875 L 475.023438 101.699219 L 562.503906 269.234375 Z M 311.203125 400.457031 " clip-rule="nonzero"/></clipPath><clipPath id="1ea0f32a1e"><path d="M 295 232 L 321 232 L 321 258 L 295 258 Z M 295 232 " clip-rule="nonzero"/></clipPath><clipPath id="c25d77845c"><path d="M 311.203125 400.457031 L 223.71875 232.921875 L 475.023438 101.699219 L 562.503906 269.234375 Z M 311.203125 400.457031 " clip-rule="nonzero"/></clipPath><clipPath id="d24a57f518"><path d="M 311.203125 400.457031 L 223.71875 232.921875 L 475.023438 101.699219 L 562.503906 269.234375 Z M 311.203125 400.457031 " clip-rule="nonzero"/></clipPath><clipPath id="9e31cc5ee9"><path d="M 282 204 L 305 204 L 305 227 L 282 227 Z M 282 204 " clip-rule="nonzero"/></clipPath><clipPath id="3b3aa5888d"><path d="M 311.203125 400.457031 L 223.71875 232.921875 L 475.023438 101.699219 L 562.503906 269.234375 Z M 311.203125 400.457031 " clip-rule="nonzero"/></clipPath><clipPath id="a29badd06a"><path d="M 311.203125 400.457031 L 223.71875 232.921875 L 475.023438 101.699219 L 562.503906 269.234375 Z M 311.203125 400.457031 " clip-rule="nonzero"/></clipPath><clipPath id="757718c01a"><path d="M 270 259 L 290 259 L 290 279 L 270 279 Z M 270 259 " clip-rule="nonzero"/></clipPath><clipPath id="bdd719eab8"><path d="M 311.203125 400.457031 L 223.71875 232.921875 L 475.023438 101.699219 L 562.503906 269.234375 Z M 311.203125 400.457031 " clip-rule="nonzero"/></clipPath><clipPath id="666f7585a3"><path d="M 311.203125 400.457031 L 223.71875 232.921875 L 475.023438 101.699219 L 562.503906 269.234375 Z M 311.203125 400.457031 " clip-rule="nonzero"/></clipPath><clipPath id="b335d8f493"><path d="M 267 236 L 284 236 L 284 252 L 267 252 Z M 267 236 " clip-rule="nonzero"/></clipPath><clipPath id="5317c7306d"><path d="M 311.203125 400.457031 L 223.71875 232.921875 L 475.023438 101.699219 L 562.503906 269.234375 Z M 311.203125 400.457031 " clip-rule="nonzero"/></clipPath><clipPath id="0ef5167a7e"><path d="M 311.203125 400.457031 L 223.71875 232.921875 L 475.023438 101.699219 L 562.503906 269.234375 Z M 311.203125 400.457031 " clip-rule="nonzero"/></clipPath><clipPath id="1885406116"><path d="M 253 280 L 267 280 L 267 294 L 253 294 Z M 253 280 " clip-rule="nonzero"/></clipPath><clipPath id="540bd05009"><path d="M 311.203125 400.457031 L 223.71875 232.921875 L 475.023438 101.699219 L 562.503906 269.234375 Z M 311.203125 400.457031 " clip-rule="nonzero"/></clipPath><clipPath id="71f999859b"><path d="M 311.203125 400.457031 L 223.71875 232.921875 L 475.023438 101.699219 L 562.503906 269.234375 Z M 311.203125 400.457031 " clip-rule="nonzero"/></clipPath><clipPath id="66bccdccba"><path d="M 408 225 L 425 225 L 425 242 L 408 242 Z M 408 225 " clip-rule="nonzero"/></clipPath><clipPath id="b0d8275e1c"><path d="M 311.203125 400.457031 L 223.71875 232.921875 L 475.023438 101.699219 L 562.503906 269.234375 Z M 311.203125 400.457031 " clip-rule="nonzero"/></clipPath><clipPath id="c41c36307b"><path d="M 311.203125 400.457031 L 223.71875 232.921875 L 475.023438 101.699219 L 562.503906 269.234375 Z M 311.203125 400.457031 " clip-rule="nonzero"/></clipPath><clipPath id="9b1d1a1215"><path d="M 469 229 L 489 229 L 489 249 L 469 249 Z M 469 229 " clip-rule="nonzero"/></clipPath><clipPath id="1e4c0005e1"><path d="M 311.203125 400.457031 L 223.71875 232.921875 L 475.023438 101.699219 L 562.503906 269.234375 Z M 311.203125 400.457031 " clip-rule="nonzero"/></clipPath><clipPath id="ee127a75dc"><path d="M 311.203125 400.457031 L 223.71875 232.921875 L 475.023438 101.699219 L 562.503906 269.234375 Z M 311.203125 400.457031 " clip-rule="nonzero"/></clipPath><clipPath id="b79ada61ec"><path d="M 343 214 L 360 214 L 360 231 L 343 231 Z M 343 214 " clip-rule="nonzero"/></clipPath><clipPath id="8972dcbfcb"><path d="M 311.203125 400.457031 L 223.71875 232.921875 L 475.023438 101.699219 L 562.503906 269.234375 Z M 311.203125 400.457031 " clip-rule="nonzero"/></clipPath><clipPath id="d4980f6b8c"><path d="M 311.203125 400.457031 L 223.71875 232.921875 L 475.023438 101.699219 L 562.503906 269.234375 Z M 311.203125 400.457031 " clip-rule="nonzero"/></clipPath><clipPath id="e122372099"><path d="M 423 277 L 443 277 L 443 297 L 423 297 Z M 423 277 " clip-rule="nonzero"/></clipPath><clipPath id="6d0abf3112"><path d="M 311.203125 400.457031 L 223.71875 232.921875 L 475.023438 101.699219 L 562.503906 269.234375 Z M 311.203125 400.457031 " clip-rule="nonzero"/></clipPath><clipPath id="165e908735"><path d="M 311.203125 400.457031 L 223.71875 232.921875 L 475.023438 101.699219 L 562.503906 269.234375 Z M 311.203125 400.457031 " clip-rule="nonzero"/></clipPath><clipPath id="9aa68ee6dd"><path d="M 422 187 L 435 187 L 435 201 L 422 201 Z M 422 187 " clip-rule="nonzero"/></clipPath><clipPath id="dece63a356"><path d="M 311.203125 400.457031 L 223.71875 232.921875 L 475.023438 101.699219 L 562.503906 269.234375 Z M 311.203125 400.457031 " clip-rule="nonzero"/></clipPath><clipPath id="2b2c663904"><path d="M 311.203125 400.457031 L 223.71875 232.921875 L 475.023438 101.699219 L 562.503906 269.234375 Z M 311.203125 400.457031 " clip-rule="nonzero"/></clipPath><clipPath id="17756e2f9a"><path d="M 512 261 L 535 261 L 535 284 L 512 284 Z M 512 261 " clip-rule="nonzero"/></clipPath><clipPath id="5ebc690f08"><path d="M 311.203125 400.457031 L 223.71875 232.921875 L 475.023438 101.699219 L 562.503906 269.234375 Z M 311.203125 400.457031 " clip-rule="nonzero"/></clipPath><clipPath id="46a09605c9"><path d="M 311.203125 400.457031 L 223.71875 232.921875 L 475.023438 101.699219 L 562.503906 269.234375 Z M 311.203125 400.457031 " clip-rule="nonzero"/></clipPath><clipPath id="49d92d905f"><path d="M 468 255 L 493 255 L 493 281 L 468 281 Z M 468 255 " clip-rule="nonzero"/></clipPath><clipPath id="bef3e79efa"><path d="M 311.203125 400.457031 L 223.71875 232.921875 L 475.023438 101.699219 L 562.503906 269.234375 Z M 311.203125 400.457031 " clip-rule="nonzero"/></clipPath><clipPath id="2e92eba9ab"><path d="M 311.203125 400.457031 L 223.71875 232.921875 L 475.023438 101.699219 L 562.503906 269.234375 Z M 311.203125 400.457031 " clip-rule="nonzero"/></clipPath><clipPath id="53e6ff6505"><path d="M 487 190 L 507 190 L 507 210 L 487 210 Z M 487 190 " clip-rule="nonzero"/></clipPath><clipPath id="a7954c0339"><path d="M 311.203125 400.457031 L 223.71875 232.921875 L 475.023438 101.699219 L 562.503906 269.234375 Z M 311.203125 400.457031 " clip-rule="nonzero"/></clipPath><clipPath id="1a7000b7e3"><path d="M 311.203125 400.457031 L 223.71875 232.921875 L 475.023438 101.699219 L 562.503906 269.234375 Z M 311.203125 400.457031 " clip-rule="nonzero"/></clipPath></defs><g clip-path="url(#4f3981f9c1)"><path fill="#2b2a2a" d="M 576.015625 379.777344 C 576.320312 385.222656 554.796875 405.359375 532.023438 407.230469 C 509.246094 409.105469 488.34375 401.144531 476.175781 395.679688 C 466.542969 391.359375 460.019531 391.042969 455.632812 394.765625 C 454.480469 395.738281 453.476562 396.992188 452.601562 398.523438 C 450.550781 401.183594 448.855469 403.757812 448.394531 405.882812 C 448.058594 407.433594 446.730469 408.898438 444.566406 410.230469 C 438.542969 413.933594 426.007812 416.574219 410.105469 416.972656 C 407.953125 417.023438 405.738281 417.035156 403.46875 417.003906 C 402.148438 416.984375 400.820312 416.945312 399.476562 416.886719 C 399.476562 416.886719 399.476562 416.886719 399.472656 416.886719 C 375.011719 414.335938 341.871094 397.273438 340.058594 378.019531 C 337.953125 355.664062 351.640625 342.667969 351.640625 342.667969 C 364.277344 337.046875 345.558594 341.777344 333.625 353.050781 C 321.691406 364.324219 316.308594 404.128906 283.082031 412.085938 C 249.859375 420.046875 223.886719 415.128906 218.035156 399.914062 C 212.1875 384.695312 207.503906 384.695312 205.402344 384.226562 C 203.292969 383.757812 198.382812 405.765625 193.933594 413.726562 C 192.769531 415.808594 191.992188 417.65625 191.253906 419.238281 C 189.183594 423.695312 187.472656 426.074219 178.492188 425.902344 C 166.324219 425.667969 153.5 426.136719 129.613281 429.648438 C 129.304688 429.691406 129 429.738281 128.695312 429.777344 C 130.203125 427.863281 131.023438 426.230469 130.839844 425.351562 C 130.523438 423.875 124.207031 426.054688 117.734375 424.109375 C 111.257812 422.15625 111.417969 420.203125 110.402344 416.851562 C 109.714844 414.578125 106.417969 412.664062 104.359375 411.660156 C 107.347656 410.589844 110.308594 409.578125 113.210938 408.65625 C 125.6875 404.6875 137.136719 401.5 144.675781 399.164062 C 149.300781 397.734375 152.445312 396.625 153.457031 395.851562 C 156.109375 393.824219 155.328125 387.890625 159.386719 380.867188 C 163.4375 373.84375 172.175781 369.320312 165.9375 371.351562 C 159.691406 373.375 154.859375 376.65625 150.332031 379.933594 C 147.371094 382.078125 144.007812 388.242188 142.042969 392.242188 C 141.691406 390.90625 141.410156 389.472656 141.234375 387.902344 C 141.152344 387.246094 141.09375 386.566406 141.054688 385.867188 C 140.585938 377.554688 143.277344 371.933594 149.472656 358.824219 C 155.664062 345.710938 154.859375 343.488281 154.714844 334.941406 C 154.671875 332.5625 154.8125 329.132812 155.039062 325.367188 C 156.984375 322.546875 159.648438 318.769531 162.765625 314.585938 C 169.070312 306.125 179.367188 299.492188 180.316406 298.890625 C 180.363281 298.859375 180.386719 298.84375 180.386719 298.84375 C 181.402344 298.046875 182.535156 297.261719 183.792969 296.507812 C 192.140625 291.511719 184.890625 284.566406 188.320312 281.757812 C 191.75 278.949219 190.191406 278.246094 185.667969 274.105469 C 181.144531 269.972656 178.648438 268.097656 175.375 270.519531 C 172.097656 272.933594 175.296875 273.5625 175.371094 278.832031 C 175.449219 284.09375 170.539062 287.917969 170.304688 286.128906 C 170.070312 284.332031 169.367188 278.320312 162.765625 274.96875 C 156.160156 271.609375 145.03125 274.417969 139.59375 276.917969 C 134.160156 279.417969 133.488281 278.246094 129.667969 276.371094 C 125.847656 274.5 128.417969 271.453125 121.867188 271.53125 C 115.367188 271.609375 101.992188 280.035156 101.789062 280.164062 C 101.78125 280.164062 101.78125 280.164062 101.78125 280.164062 C 101.472656 279.894531 101.089844 279.617188 100.613281 279.335938 C 98.890625 278.3125 96.8125 278.175781 95.136719 278.304688 C 100.90625 274.804688 110.164062 269.824219 119.761719 263.882812 C 133.566406 255.335938 124.089844 254.871094 131.109375 248.898438 C 132.246094 247.929688 133.78125 246.855469 135.550781 245.738281 C 137.847656 244.28125 140.542969 242.757812 143.296875 241.28125 C 146.339844 239.644531 149.449219 238.078125 152.152344 236.757812 C 155.277344 235.226562 157.855469 234.023438 159.175781 233.414062 C 159.507812 233.257812 159.761719 233.144531 159.921875 233.074219 C 159.921875 233.074219 168.78125 229.699219 174.28125 230.753906 C 178.214844 231.507812 182.664062 233.34375 188.984375 239.222656 C 191.492188 241.550781 194.292969 244.519531 197.476562 248.316406 L 197.480469 248.320312 C 198.207031 249.503906 198.941406 250.75 199.667969 252.0625 C 207.144531 265.550781 210.347656 288.597656 212.242188 296.527344 C 212.242188 296.53125 212.242188 296.53125 212.242188 296.53125 C 212.351562 303.902344 211.042969 309.511719 209.378906 310.320312 C 206.804688 311.566406 210.546875 312.972656 210.546875 312.972656 C 210.546875 312.972656 234.882812 325.226562 240.183594 333.417969 C 245.492188 341.613281 246.734375 342.394531 245.097656 334.980469 C 244.644531 332.933594 245.660156 331.339844 247.367188 330.109375 C 259.988281 331.214844 285.367188 330.042969 302.503906 325.226562 C 323.328125 319.371094 366.617188 308.328125 394.226562 314.667969 C 418.648438 320.28125 437.761719 332.648438 445.40625 341.265625 C 445.40625 341.265625 445.632812 341.523438 446.039062 341.996094 C 447.050781 343.183594 449.1875 345.742188 451.695312 349.046875 C 455.277344 353.773438 459.609375 360.03125 462.449219 365.980469 C 468.066406 377.730469 493.339844 396.460938 525.160156 399.585938 C 556.980469 402.703125 575.703125 374.332031 576.015625 379.777344 " fill-opacity="1" fill-rule="nonzero"/></g><path fill="#914e12" d="M 188.316406 281.757812 C 184.886719 284.566406 192.140625 291.511719 183.792969 296.507812 C 182.53125 297.261719 181.402344 298.046875 180.382812 298.84375 C 180.382812 298.84375 180.363281 298.859375 180.316406 298.890625 C 179.363281 299.492188 169.070312 306.125 162.761719 314.585938 C 159.644531 318.769531 156.980469 322.546875 155.035156 325.367188 C 155.324219 320.5 155.75 315.085938 156.121094 310.65625 C 156.691406 309.957031 157.324219 309.253906 158.015625 308.566406 C 164.957031 301.65625 172.796875 298.851562 168.390625 298.027344 C 163.984375 297.210938 157.550781 299.121094 157.550781 299.121094 C 156.640625 299.316406 155.683594 299.582031 154.710938 299.886719 C 148.15625 301.957031 140.554688 306.21875 138.011719 308.3125 C 135.085938 310.710938 130.46875 313.808594 126.546875 314.457031 C 122.625 315.101562 119.355469 313.195312 119.355469 313.195312 C 119.535156 312.75 119.75 312.316406 119.996094 311.890625 C 120.003906 311.890625 120.003906 311.886719 120.003906 311.886719 C 122.207031 309.578125 125.519531 307.65625 127.539062 306.730469 C 130.34375 305.441406 132.6875 305.089844 135.726562 303.335938 C 138.769531 301.578125 139.53125 301.578125 142.574219 300.117188 C 145.613281 298.652344 146.726562 297.128906 147.894531 294.265625 C 149.066406 291.394531 149.476562 290.753906 149.945312 288.351562 C 150.414062 285.949219 148.527344 285.800781 148.527344 285.800781 C 148.101562 285.429688 147.378906 285.21875 146.316406 285.1875 C 144.105469 285.125 140.757812 286.058594 137.222656 287.429688 C 134.230469 288.585938 131.105469 290.058594 128.417969 291.511719 C 122.566406 294.671875 111.21875 299.824219 103.847656 298.417969 C 101.472656 297.964844 98.855469 296.417969 96.5 294.429688 C 96.699219 293.753906 97.128906 293.0625 98 292.601562 C 100.238281 291.421875 103.652344 288.503906 102.824219 287.179688 C 101.996094 285.855469 101.589844 288.035156 100.066406 287.179688 C 98.546875 286.324219 99.484375 285.304688 101.121094 284.253906 C 102.539062 283.339844 103.777344 281.902344 101.785156 280.164062 C 101.992188 280.035156 115.367188 271.609375 121.867188 271.53125 C 128.417969 271.457031 125.84375 274.5 129.667969 276.371094 C 133.484375 278.246094 134.160156 279.417969 139.59375 276.917969 C 145.03125 274.417969 156.160156 271.609375 162.761719 274.96875 C 169.363281 278.320312 170.066406 284.332031 170.300781 286.128906 C 170.535156 287.917969 175.449219 284.09375 175.371094 278.832031 C 175.292969 273.5625 172.097656 272.9375 175.371094 270.519531 C 178.644531 268.097656 181.144531 269.972656 185.664062 274.105469 C 190.1875 278.246094 191.75 278.949219 188.316406 281.757812 " fill-opacity="1" fill-rule="nonzero"/><path fill="#d88888" d="M 146.132812 291.777344 C 146.027344 291.765625 144.257812 291.554688 143.238281 292.953125 C 142.183594 294.398438 142.183594 294.203125 141.25 294.4375 C 140.3125 294.671875 140.078125 294.789062 139.570312 295.921875 C 139.066406 297.050781 138.515625 297.714844 137.386719 297.519531 C 136.253906 297.328125 135.472656 297.480469 135.085938 298.222656 C 134.695312 298.964844 133.996094 299.121094 133.566406 299.121094 C 133.136719 299.121094 132.863281 298.886719 132.785156 299.976562 C 132.710938 301.074219 132.476562 302.046875 132.199219 302.132812 C 131.925781 302.214844 130.835938 302.433594 130.136719 302.203125 C 129.433594 301.964844 128.730469 302.433594 128.300781 302.242188 C 127.871094 302.046875 127.796875 302.550781 127.675781 303.335938 C 127.5625 304.109375 127.363281 304.46875 126.3125 304.308594 C 125.257812 304.15625 123.542969 302.433594 123.542969 303.957031 C 123.542969 305.480469 124.257812 307.074219 124.257812 307.074219 C 122.640625 308.367188 121.0625 310.035156 120.003906 311.886719 C 120.003906 311.886719 120.003906 311.890625 119.996094 311.890625 C 119.75 312.316406 119.535156 312.75 119.355469 313.195312 C 118.976562 314.101562 118.75 315.03125 118.707031 315.976562 C 118.472656 321.363281 118.941406 323.121094 114.496094 324.523438 C 110.050781 325.929688 111.570312 321.363281 110.632812 317.03125 C 109.699219 312.699219 109.933594 305.792969 115.78125 301.578125 C 121.632812 297.363281 124.789062 295.84375 130.289062 293.035156 C 133.554688 291.367188 135.378906 289.246094 137.222656 287.429688 C 140.757812 286.058594 144.105469 285.125 146.316406 285.1875 C 147.378906 285.21875 148.101562 285.429688 148.527344 285.800781 C 149.699219 286.804688 148.621094 288.980469 146.132812 291.777344 " fill-opacity="1" fill-rule="nonzero"/><path fill="#f1f2f2" d="M 146.132812 291.777344 C 146.042969 291.882812 145.949219 291.988281 145.847656 292.097656 C 142.222656 296.074219 140.703125 296.199219 138.128906 298.65625 C 135.554688 301.109375 131.925781 303.453125 128.652344 304.503906 C 127.457031 304.890625 125.839844 305.804688 124.257812 307.074219 C 124.257812 307.074219 123.542969 305.480469 123.542969 303.957031 C 123.542969 302.433594 125.257812 304.15625 126.3125 304.308594 C 127.363281 304.46875 127.5625 304.109375 127.675781 303.335938 C 127.796875 302.550781 127.871094 302.046875 128.300781 302.242188 C 128.730469 302.433594 129.433594 301.964844 130.136719 302.203125 C 130.835938 302.433594 131.925781 302.214844 132.199219 302.132812 C 132.476562 302.046875 132.710938 301.074219 132.785156 299.976562 C 132.863281 298.886719 133.136719 299.121094 133.566406 299.121094 C 133.996094 299.121094 134.695312 298.964844 135.085938 298.222656 C 135.472656 297.480469 136.253906 297.328125 137.386719 297.519531 C 138.515625 297.714844 139.066406 297.050781 139.570312 295.921875 C 140.078125 294.789062 140.3125 294.671875 141.25 294.4375 C 142.183594 294.203125 142.183594 294.398438 143.238281 292.953125 C 144.257812 291.554688 146.027344 291.765625 146.132812 291.777344 " fill-opacity="1" fill-rule="nonzero"/><path fill="#212120" d="M 149.945312 288.351562 C 149.476562 290.753906 149.066406 291.394531 147.894531 294.265625 C 146.726562 297.128906 145.613281 298.652344 142.574219 300.117188 C 139.53125 301.578125 138.769531 301.578125 135.726562 303.335938 C 132.6875 305.089844 130.34375 305.441406 127.539062 306.730469 C 125.519531 307.65625 122.207031 309.578125 120.003906 311.886719 C 121.0625 310.035156 122.640625 308.367188 124.257812 307.074219 C 125.839844 305.804688 127.457031 304.890625 128.652344 304.503906 C 131.925781 303.453125 135.554688 301.109375 138.128906 298.65625 C 140.703125 296.199219 142.222656 296.074219 145.847656 292.097656 C 145.949219 291.988281 146.042969 291.882812 146.132812 291.777344 C 148.621094 288.980469 149.699219 286.804688 148.527344 285.800781 C 148.527344 285.800781 150.414062 285.949219 149.945312 288.351562 " fill-opacity="1" fill-rule="nonzero"/><path fill="#191918" d="M 98 292.601562 C 97.128906 293.0625 96.699219 293.753906 96.5 294.429688 C 91.539062 290.242188 87.753906 284.089844 89.808594 282.03125 C 90.738281 281.101562 92.597656 279.847656 95.136719 278.304688 C 96.8125 278.175781 98.890625 278.3125 100.609375 279.335938 C 101.085938 279.617188 101.472656 279.894531 101.78125 280.164062 C 101.78125 280.164062 101.78125 280.164062 101.785156 280.164062 C 103.777344 281.902344 102.539062 283.339844 101.121094 284.253906 C 99.484375 285.304688 98.546875 286.324219 100.066406 287.179688 C 101.589844 288.035156 101.996094 285.855469 102.824219 287.179688 C 103.652344 288.503906 100.238281 291.421875 98 292.601562 " fill-opacity="1" fill-rule="nonzero"/><path fill="#72370c" d="M 158.015625 308.566406 C 157.324219 309.253906 156.691406 309.957031 156.121094 310.65625 C 156.496094 306.191406 156.804688 302.738281 156.847656 301.890625 C 156.964844 299.550781 154.710938 299.886719 154.710938 299.886719 C 155.683594 299.582031 156.640625 299.316406 157.550781 299.121094 C 157.550781 299.121094 163.984375 297.210938 168.390625 298.027344 C 172.796875 298.851562 164.957031 301.65625 158.015625 308.566406 " fill-opacity="1" fill-rule="nonzero"/><path fill="#56280a" d="M 187.226562 336.617188 C 180.675781 343.253906 178.410156 346.613281 177.238281 350.59375 C 176.070312 354.570312 170.613281 371.195312 170.613281 364.171875 C 170.613281 357.148438 171.703125 351.058594 172.957031 346.941406 C 174.199219 342.824219 191.207031 330.496094 191.207031 330.496094 C 198.386719 325 193.78125 329.988281 187.226562 336.617188 Z M 169.671875 328.738281 C 168.261719 335.136719 164.21875 341.929688 165.980469 334.125 C 167.75 326.316406 167.144531 313.519531 167.144531 313.519531 C 167.058594 310.398438 168.195312 310.476562 169.210938 313.988281 C 170.222656 317.5 171.082031 322.335938 169.671875 328.738281 " fill-opacity="1" fill-rule="nonzero"/><path fill="#191918" d="M 140.847656 264.125 C 140.847656 264.125 137.855469 264.664062 136.226562 265.382812 C 134.59375 266.101562 132.488281 267.113281 135.171875 264.125 C 137.6875 261.320312 138.648438 258.027344 138.757812 257.628906 C 138.585938 258.410156 138.484375 259.367188 138.570312 260.484375 C 138.84375 263.953125 140.847656 264.125 140.847656 264.125 " fill-opacity="1" fill-rule="nonzero"/><path fill="#68462f" d="M 145.84375 261.847656 C 143.292969 262.695312 140.847656 264.125 140.847656 264.125 C 140.847656 264.125 138.84375 263.953125 138.570312 260.484375 C 138.484375 259.367188 138.585938 258.410156 138.757812 257.628906 C 138.765625 257.601562 138.769531 257.585938 138.769531 257.585938 C 139.136719 255.964844 139.832031 255.109375 139.832031 255.109375 C 139.832031 255.109375 142.6875 257.796875 144.519531 259.359375 C 146.355469 260.925781 148.394531 260.996094 145.84375 261.847656 " fill-opacity="1" fill-rule="nonzero"/><path fill="#914e12" d="M 141.460938 253.105469 C 137.382812 255.824219 134.390625 256.128906 134.695312 253.003906 C 135 249.875 138.300781 246.707031 138.300781 246.707031 C 139.761719 245.039062 142.648438 245.894531 143.667969 247.050781 C 144.6875 248.207031 145.542969 250.382812 141.460938 253.105469 " fill-opacity="1" fill-rule="nonzero"/><path fill="#914e12" d="M 159.382812 380.867188 C 155.324219 387.890625 156.109375 393.824219 153.453125 395.855469 C 152.445312 396.625 149.300781 397.734375 144.675781 399.164062 C 143.671875 397.09375 142.722656 394.867188 142.039062 392.242188 C 144.003906 388.242188 147.371094 382.078125 150.332031 379.933594 C 154.859375 376.65625 159.691406 373.375 165.933594 371.351562 C 172.171875 369.320312 163.433594 373.84375 159.382812 380.867188 " fill-opacity="1" fill-rule="nonzero"/><g clip-path="url(#22e42e7715)"><path fill="#914e12" d="M 128.695312 429.78125 C 105.542969 433.125 98.753906 431.828125 84.664062 437.609375 C 70.386719 443.460938 63.835938 446.503906 61.5 449.546875 C 59.15625 452.589844 57.871094 458.09375 53.074219 459.382812 C 48.277344 460.671875 47.925781 458.679688 47.925781 458.679688 C 47.925781 458.679688 46.210938 456.335938 46.367188 451.5 C 46.503906 447.261719 43.765625 454.332031 44.867188 461.507812 C 44.117188 461.949219 43.226562 462.324219 42.195312 462.542969 C 38.332031 463.363281 36.226562 459.5 36.226562 459.5 C 36.226562 459.5 34.824219 455.789062 36.226562 451.421875 C 37.4375 447.65625 33.671875 451.707031 32.855469 459.335938 C 31.882812 459.027344 30.972656 458.398438 30.53125 457.195312 C 30.097656 456.011719 30.082031 453.875 30.496094 451.445312 C 31.199219 447.324219 33.144531 442.335938 36.382812 439.636719 C 41.53125 435.347656 41.765625 435.421875 55.960938 430.585938 C 65.511719 427.328125 79.023438 421.421875 92.972656 415.953125 C 96.757812 414.464844 100.578125 413.015625 104.359375 411.660156 C 106.417969 412.664062 109.714844 414.578125 110.402344 416.851562 C 111.417969 420.203125 111.257812 422.15625 117.734375 424.109375 C 124.207031 426.054688 130.523438 423.875 130.835938 425.351562 C 131.019531 426.230469 130.203125 427.863281 128.695312 429.78125 " fill-opacity="1" fill-rule="nonzero"/></g><path fill="#56280a" d="M 47.925781 458.679688 C 47.925781 458.679688 46.917969 460.3125 44.867188 461.507812 C 43.765625 454.332031 46.503906 447.261719 46.367188 451.5 C 46.210938 456.335938 47.925781 458.679688 47.925781 458.679688 " fill-opacity="1" fill-rule="nonzero"/><path fill="#56280a" d="M 36.226562 451.421875 C 34.824219 455.789062 36.226562 459.5 36.226562 459.5 C 36.226562 459.5 34.464844 459.851562 32.855469 459.335938 C 33.671875 451.707031 37.4375 447.65625 36.226562 451.421875 " fill-opacity="1" fill-rule="nonzero"/><path fill="#212120" d="M 245.097656 334.980469 C 246.734375 342.394531 245.488281 341.613281 240.183594 333.417969 C 234.878906 325.226562 210.546875 312.972656 210.546875 312.972656 C 210.546875 312.972656 206.800781 311.566406 209.375 310.320312 C 211.042969 309.511719 212.347656 303.902344 212.242188 296.53125 C 212.300781 296.785156 212.363281 297.023438 212.417969 297.246094 C 214.289062 304.386719 216.160156 311.527344 220.375 315.742188 C 224.585938 319.957031 233.710938 326.632812 241.199219 329.089844 C 242.523438 329.523438 244.652344 329.867188 247.367188 330.109375 C 245.660156 331.339844 244.644531 332.933594 245.097656 334.980469 " fill-opacity="1" fill-rule="nonzero"/><path fill="#191918" d="M 351.640625 342.667969 C 339.003906 348.289062 328.476562 370.761719 338.535156 389.960938 C 340.875 394.429688 344.289062 398.261719 348.457031 401.515625 C 344.578125 402.769531 341.320312 404.695312 338.550781 407.070312 C 311.167969 408.8125 291.988281 422.792969 261.554688 425.199219 C 234.4375 427.339844 204.121094 421.929688 191.253906 419.238281 C 191.992188 417.65625 192.769531 415.808594 193.933594 413.726562 C 198.378906 405.765625 203.292969 383.757812 205.398438 384.226562 C 207.503906 384.695312 212.183594 384.695312 218.03125 399.914062 C 223.882812 415.128906 249.855469 420.046875 283.082031 412.085938 C 316.308594 404.128906 321.691406 364.328125 333.621094 353.050781 C 345.554688 341.777344 364.273438 337.050781 351.640625 342.667969 " fill-opacity="1" fill-rule="nonzero"/><path fill="#212120" d="M 187.226562 336.617188 C 180.675781 343.253906 178.410156 346.613281 177.238281 350.59375 C 176.070312 354.570312 170.613281 371.195312 170.613281 364.171875 C 170.613281 357.148438 171.703125 351.058594 172.957031 346.941406 C 174.199219 342.824219 191.207031 330.496094 191.207031 330.496094 C 198.386719 325 193.78125 329.988281 187.226562 336.617188 " fill-opacity="1" fill-rule="nonzero"/><path fill="#212120" d="M 169.671875 328.738281 C 168.261719 335.136719 164.21875 341.929688 165.980469 334.125 C 167.75 326.316406 167.144531 313.519531 167.144531 313.519531 C 167.058594 310.398438 168.195312 310.476562 169.210938 313.988281 C 170.222656 317.5 171.082031 322.335938 169.671875 328.738281 " fill-opacity="1" fill-rule="nonzero"/><path fill="#191918" d="M 144.675781 399.164062 C 137.136719 401.5 125.683594 404.6875 113.207031 408.65625 C 110.308594 409.578125 107.347656 410.589844 104.359375 411.660156 C 100.578125 413.015625 96.757812 414.464844 92.972656 415.953125 C 93.410156 415.335938 93.839844 414.671875 94.253906 413.960938 C 97.765625 407.988281 96.128906 404.828125 103.382812 402.488281 C 107.054688 401.304688 110.15625 398.132812 112.328125 395.300781 C 127.585938 391.9375 141.230469 387.902344 141.230469 387.902344 C 141.410156 389.472656 141.691406 390.90625 142.039062 392.242188 C 142.722656 394.867188 143.671875 397.09375 144.675781 399.164062 " fill-opacity="1" fill-rule="nonzero"/><path fill="#72370c" d="M 112.328125 395.300781 C 110.15625 398.132812 107.054688 401.304688 103.382812 402.488281 C 96.128906 404.828125 97.765625 407.988281 94.253906 413.960938 C 93.839844 414.671875 93.410156 415.335938 92.972656 415.953125 C 79.023438 421.421875 65.511719 427.328125 55.960938 430.585938 C 41.765625 435.421875 41.53125 435.347656 36.382812 439.636719 C 33.144531 442.335938 31.199219 447.324219 30.496094 451.445312 C 26.613281 449.519531 23.933594 444.042969 26.789062 436.59375 C 30.378906 427.226562 33.339844 421.765625 47.925781 414.117188 C 62.511719 406.46875 67.035156 401.316406 87.785156 399.445312 C 95.125 398.777344 103.972656 397.140625 112.328125 395.300781 " fill-opacity="1" fill-rule="nonzero"/><path fill="#72370c" d="M 399.46875 416.886719 C 381.265625 416.09375 361.273438 411.523438 348.457031 401.515625 C 344.289062 398.261719 340.875 394.429688 338.535156 389.960938 C 328.476562 370.761719 339.003906 348.289062 351.640625 342.667969 C 351.640625 342.667969 337.953125 355.664062 340.058594 378.023438 C 341.867188 397.273438 375.011719 414.335938 399.46875 416.886719 " fill-opacity="1" fill-rule="nonzero"/><path fill="#914e12" d="M 444.566406 410.230469 C 444.546875 413.011719 442.886719 416.492188 435.640625 418.292969 C 422.421875 421.570312 400.308594 419.929688 392.238281 420.515625 C 384.164062 421.101562 366.851562 427.1875 357.839844 426.605469 C 348.832031 426.015625 347.195312 425.550781 346.960938 421.21875 C 346.960938 421.21875 347.015625 417.628906 348.1875 413.746094 C 349.179688 410.457031 343.628906 414.289062 341.90625 422.050781 C 340.882812 421.957031 339.65625 421.769531 338.1875 421.453125 C 330.582031 419.816406 329.304688 418.199219 333.390625 412.671875 C 334.898438 410.628906 336.605469 408.738281 338.554688 407.070312 C 341.320312 404.695312 344.578125 402.769531 348.457031 401.515625 C 361.277344 411.523438 381.269531 416.09375 399.472656 416.886719 C 399.476562 416.886719 399.476562 416.886719 399.476562 416.886719 C 403.28125 417.28125 406.871094 417.328125 410.105469 416.972656 C 426.007812 416.574219 438.542969 413.933594 444.566406 410.230469 " fill-opacity="1" fill-rule="nonzero"/><path fill="#56280a" d="M 348.1875 413.746094 C 347.015625 417.628906 346.960938 421.21875 346.960938 421.21875 C 346.960938 421.21875 346.195312 422.441406 341.90625 422.050781 C 343.628906 414.289062 349.175781 410.457031 348.1875 413.746094 " fill-opacity="1" fill-rule="nonzero"/><path fill="#191918" d="M 161.6875 235.386719 C 161.6875 235.386719 164.527344 231.136719 167.804688 229.886719 C 171.082031 228.640625 183.871094 231.917969 191.984375 238.785156 C 200.09375 245.652344 200.953125 246.433594 202.824219 249.710938 C 204.699219 252.988281 184.339844 274.0625 172.875 276.871094 C 161.410156 279.679688 168.195312 272.003906 166.792969 258.167969 C 165.386719 244.328125 159.601562 237.933594 161.6875 235.386719 " fill-opacity="1" fill-rule="nonzero"/><path fill="#191918" d="M 159.171875 233.414062 C 157.851562 234.023438 155.273438 235.226562 152.152344 236.757812 C 149.449219 238.078125 146.335938 239.644531 143.292969 241.28125 C 140.542969 242.757812 137.847656 244.28125 135.550781 245.738281 C 136.683594 241.464844 138.992188 236.863281 146.132812 235.085938 C 154.609375 232.980469 159.171875 233.414062 159.171875 233.414062 " fill-opacity="1" fill-rule="nonzero"/><path fill="#191918" d="M 142.929688 259.84375 C 142.929688 260.871094 142.261719 261.707031 141.429688 261.707031 C 140.601562 261.707031 139.929688 260.871094 139.929688 259.84375 C 139.929688 258.8125 140.601562 257.976562 141.429688 257.976562 C 142.261719 257.976562 142.929688 258.8125 142.929688 259.84375 " fill-opacity="1" fill-rule="nonzero"/><path fill="#f1f2f2" d="M 143.476562 258.867188 C 143.476562 259.28125 143.195312 259.617188 142.847656 259.617188 C 142.503906 259.617188 142.21875 259.28125 142.21875 258.867188 C 142.21875 258.453125 142.503906 258.113281 142.847656 258.113281 C 143.195312 258.113281 143.476562 258.453125 143.476562 258.867188 " fill-opacity="1" fill-rule="nonzero"/><g clip-path="url(#c26dd96f1f)"><g clip-path="url(#b3d6470826)"><g clip-path="url(#849958d996)"><path fill="#ff6633" d="M 505.058594 216.167969 C 511.726562 228.941406 507.109375 244.808594 494.320312 251.484375 C 507.109375 244.808594 522.539062 249.644531 529.207031 262.417969 C 522.539062 249.644531 527.828125 233.988281 540.613281 227.3125 C 527.828125 233.988281 511.726562 228.941406 505.058594 216.167969 Z M 505.058594 216.167969 " fill-opacity="1" fill-rule="evenodd"/></g></g></g><g clip-path="url(#032a041a4c)"><g clip-path="url(#a641568205)"><g clip-path="url(#8a807848ff)"><path fill="#ff6633" d="M 437.316406 183.148438 C 443.527344 195.042969 438.445312 210.027344 426.542969 216.242188 C 438.445312 210.027344 453.648438 214.421875 459.859375 226.316406 C 453.648438 214.421875 458.285156 199.667969 470.191406 193.453125 C 458.285156 199.667969 443.527344 195.042969 437.316406 183.148438 Z M 437.316406 183.148438 " fill-opacity="1" fill-rule="evenodd"/></g></g></g><g clip-path="url(#fc68c34283)"><g clip-path="url(#9757223ee9)"><g clip-path="url(#db130dd88d)"><path fill="#ff6633" d="M 427.808594 238.007812 C 433.558594 249.019531 429.128906 263.105469 418.109375 268.859375 C 429.128906 263.105469 442.988281 267.078125 448.738281 278.089844 C 442.988281 267.078125 447.207031 253.664062 458.226562 247.910156 C 447.207031 253.664062 433.558594 249.019531 427.808594 238.007812 Z M 427.808594 238.007812 " fill-opacity="1" fill-rule="evenodd"/></g></g></g><g clip-path="url(#2d9f9de785)"><g clip-path="url(#fa75c9a466)"><g clip-path="url(#f6a937b61e)"><path fill="#ff6633" d="M 379.542969 199.300781 C 385.0625 209.875 381.054688 222.617188 370.914062 227.914062 C 381.054688 222.617188 393.804688 226.613281 399.09375 236.742188 C 393.804688 226.613281 397.808594 213.867188 407.949219 208.574219 C 397.808594 213.867188 385.0625 209.875 379.542969 199.300781 Z M 379.542969 199.300781 " fill-opacity="1" fill-rule="evenodd"/></g></g></g><g clip-path="url(#f383b7e8be)"><g clip-path="url(#2013798cb9)"><g clip-path="url(#44c12baadb)"><path fill="#ff6633" d="M 374.652344 238.292969 C 379.484375 247.542969 375.457031 259.175781 366.199219 264.011719 C 375.457031 259.175781 387.535156 262.960938 392.363281 272.210938 C 387.535156 262.960938 390.890625 251.117188 400.589844 246.054688 C 390.890625 251.117188 379.484375 247.542969 374.652344 238.292969 Z M 374.652344 238.292969 " fill-opacity="1" fill-rule="evenodd"/></g></g></g><g clip-path="url(#8dd45fa60a)"><g clip-path="url(#4a54c4e81d)"><g clip-path="url(#f20be9725c)"><path fill="#ff6633" d="M 333.308594 239.703125 C 337.675781 248.070312 334.304688 258.804688 325.484375 263.40625 C 334.304688 258.804688 345.039062 262.167969 349.40625 270.535156 C 345.039062 262.167969 348.410156 251.4375 356.789062 247.0625 C 348.410156 251.4375 337.675781 248.070312 333.308594 239.703125 Z M 333.308594 239.703125 " fill-opacity="1" fill-rule="evenodd"/></g></g></g><g clip-path="url(#0febfa7cf6)"><g clip-path="url(#b27bb5f908)"><g clip-path="url(#a0c6e9bff2)"><path fill="#ff6633" d="M 317.589844 192.410156 C 321.730469 200.339844 318.777344 209.730469 311.28125 213.644531 C 318.777344 209.730469 328.171875 212.671875 332.308594 220.601562 C 328.171875 212.671875 331.5625 203.054688 339.058594 199.140625 C 331.5625 203.054688 321.730469 200.339844 317.589844 192.410156 Z M 317.589844 192.410156 " fill-opacity="1" fill-rule="evenodd"/></g></g></g><g clip-path="url(#1ea0f32a1e)"><g clip-path="url(#c25d77845c)"><g clip-path="url(#d24a57f518)"><path fill="#ff6633" d="M 300.929688 232.503906 C 304.382812 239.109375 302.082031 247.597656 295.027344 251.28125 C 302.082031 247.597656 310.363281 250.5625 313.8125 257.167969 C 310.363281 250.5625 313.101562 241.84375 320.15625 238.160156 C 313.101562 241.84375 304.382812 239.109375 300.929688 232.503906 Z M 300.929688 232.503906 " fill-opacity="1" fill-rule="evenodd"/></g></g></g><g clip-path="url(#9e31cc5ee9)"><g clip-path="url(#3b3aa5888d)"><g clip-path="url(#a29badd06a)"><path fill="#ff6633" d="M 287.324219 204.292969 C 290.542969 210.457031 288.222656 217.835938 282.492188 220.828125 C 288.222656 217.835938 295.601562 220.148438 298.824219 226.316406 C 295.601562 220.148438 298.363281 212.539062 304.09375 209.546875 C 298.363281 212.539062 290.542969 210.457031 287.324219 204.292969 Z M 287.324219 204.292969 " fill-opacity="1" fill-rule="evenodd"/></g></g></g><g clip-path="url(#757718c01a)"><g clip-path="url(#bdd719eab8)"><g clip-path="url(#666f7585a3)"><path fill="#ff6633" d="M 274.707031 259.648438 C 277.46875 264.9375 275.570312 270.972656 270.28125 273.734375 C 275.570312 270.972656 281.839844 273.304688 284.597656 278.589844 C 281.839844 273.304688 283.949219 266.597656 289.238281 263.835938 C 283.949219 266.597656 277.46875 264.9375 274.707031 259.648438 Z M 274.707031 259.648438 " fill-opacity="1" fill-rule="evenodd"/></g></g></g><g clip-path="url(#b335d8f493)"><g clip-path="url(#5317c7306d)"><g clip-path="url(#0ef5167a7e)"><path fill="#ff6633" d="M 271.410156 236.144531 C 273.480469 240.109375 271.796875 245.472656 267.386719 247.777344 C 271.796875 245.472656 277.390625 247.597656 279.460938 251.5625 C 277.390625 247.597656 278.847656 241.792969 283.257812 239.488281 C 278.847656 241.792969 273.480469 240.109375 271.410156 236.144531 Z M 271.410156 236.144531 " fill-opacity="1" fill-rule="evenodd"/></g></g></g><g clip-path="url(#1885406116)"><g clip-path="url(#540bd05009)"><g clip-path="url(#71f999859b)"><path fill="#ff6633" d="M 256.613281 280.871094 C 258.453125 284.394531 257.1875 288.417969 253.660156 290.261719 C 257.1875 288.417969 261.441406 290.121094 263.285156 293.644531 C 261.441406 290.121094 262.917969 285.425781 266.445312 283.585938 C 262.917969 285.425781 258.453125 284.394531 256.613281 280.871094 Z M 256.613281 280.871094 " fill-opacity="1" fill-rule="evenodd"/></g></g></g><g clip-path="url(#66bccdccba)"><g clip-path="url(#b0d8275e1c)"><g clip-path="url(#c41c36307b)"><path fill="#ff6633" d="M 412.683594 225.160156 C 414.984375 229.566406 413.296875 234.933594 408.886719 237.234375 C 413.296875 234.933594 418.664062 236.613281 420.964844 241.019531 C 418.664062 236.613281 420.351562 231.25 424.761719 228.945312 C 420.351562 231.25 414.984375 229.566406 412.683594 225.160156 Z M 412.683594 225.160156 " fill-opacity="1" fill-rule="evenodd"/></g></g></g><g clip-path="url(#9b1d1a1215)"><g clip-path="url(#1e4c0005e1)"><g clip-path="url(#ee127a75dc)"><path fill="#ff6633" d="M 473.925781 229.621094 C 476.6875 234.90625 474.578125 241.613281 469.730469 244.144531 C 474.578125 241.613281 481.058594 243.277344 483.816406 248.5625 C 481.058594 243.277344 483.394531 237.007812 488.246094 234.476562 C 483.394531 237.007812 476.6875 234.90625 473.925781 229.621094 Z M 473.925781 229.621094 " fill-opacity="1" fill-rule="evenodd"/></g></g></g><g clip-path="url(#b79ada61ec)"><g clip-path="url(#8972dcbfcb)"><g clip-path="url(#d4980f6b8c)"><path fill="#ff6633" d="M 347.339844 214.996094 C 349.640625 219.402344 347.953125 224.765625 343.542969 227.070312 C 347.953125 224.765625 353.320312 226.449219 355.621094 230.855469 C 353.320312 226.449219 355.007812 221.082031 359.414062 218.78125 C 355.007812 221.082031 349.640625 219.402344 347.339844 214.996094 Z M 347.339844 214.996094 " fill-opacity="1" fill-rule="evenodd"/></g></g></g><g clip-path="url(#e122372099)"><g clip-path="url(#6d0abf3112)"><g clip-path="url(#165e908735)"><path fill="#ff6633" d="M 428.265625 277.570312 C 430.796875 282.414062 429.128906 288.890625 423.839844 291.652344 C 429.128906 288.890625 435.398438 291.222656 437.925781 296.070312 C 435.398438 291.222656 437.507812 284.515625 442.796875 281.753906 C 437.507812 284.515625 430.796875 282.414062 428.265625 277.570312 Z M 428.265625 277.570312 " fill-opacity="1" fill-rule="evenodd"/></g></g></g><g clip-path="url(#9aa68ee6dd)"><g clip-path="url(#dece63a356)"><g clip-path="url(#2b2c663904)"><path fill="#ff6633" d="M 425.164062 187.8125 C 427.003906 191.335938 425.738281 195.359375 422.210938 197.203125 C 425.738281 195.359375 429.992188 197.0625 431.832031 200.585938 C 429.992188 197.0625 431.46875 192.367188 434.996094 190.527344 C 431.46875 192.367188 427.003906 191.335938 425.164062 187.8125 Z M 425.164062 187.8125 " fill-opacity="1" fill-rule="evenodd"/></g></g></g><g clip-path="url(#17756e2f9a)"><g clip-path="url(#5ebc690f08)"><g clip-path="url(#46a09605c9)"><path fill="#ff6633" d="M 517.628906 261.738281 C 520.851562 267.90625 518.53125 275.28125 512.359375 278.503906 C 518.53125 275.28125 525.910156 277.597656 529.132812 283.761719 C 525.910156 277.597656 528.230469 270.21875 534.402344 266.996094 C 528.230469 270.21875 520.851562 267.90625 517.628906 261.738281 Z M 517.628906 261.738281 " fill-opacity="1" fill-rule="evenodd"/></g></g></g><g clip-path="url(#49d92d905f)"><g clip-path="url(#bef3e79efa)"><g clip-path="url(#2e92eba9ab)"><path fill="#ff6633" d="M 474.15625 255.847656 C 477.605469 262.457031 474.867188 271.175781 468.253906 274.628906 C 474.867188 271.175781 483.585938 273.910156 487.039062 280.515625 C 483.585938 273.910156 486.328125 265.191406 492.941406 261.738281 C 486.328125 265.191406 477.605469 262.457031 474.15625 255.847656 Z M 474.15625 255.847656 " fill-opacity="1" fill-rule="evenodd"/></g></g></g><g clip-path="url(#53e6ff6505)"><g clip-path="url(#a7954c0339)"><g clip-path="url(#1a7000b7e3)"><path fill="#ff6633" d="M 492.386719 190.832031 C 494.917969 195.675781 493.25 202.152344 487.960938 204.914062 C 493.25 202.152344 499.519531 204.484375 502.046875 209.332031 C 499.519531 204.484375 501.625 197.777344 506.917969 195.015625 C 501.625 197.777344 494.917969 195.675781 492.386719 190.832031 Z M 492.386719 190.832031 " fill-opacity="1" fill-rule="evenodd"/></g></g></g></svg>