<svg xmlns="http://www.w3.org/2000/svg" xmlns:xlink="http://www.w3.org/1999/xlink" width="800" zoomAndPan="magnify" viewBox="0 0 600 599.999999" height="800" preserveAspectRatio="xMidYMid meet" version="1.0"><defs><clipPath id="0aad551c0f"><path d="M 526.257812 222.773438 L 534.738281 222.773438 L 534.738281 232.808594 L 526.257812 232.808594 Z M 526.257812 222.773438 " clip-rule="nonzero"/></clipPath><clipPath id="39722acaad"><path d="M 253 193.574219 L 532 193.574219 L 532 339 L 253 339 Z M 253 193.574219 " clip-rule="nonzero"/></clipPath><clipPath id="f400fd178c"><path d="M 65.542969 234 L 155 234 L 155 352 L 65.542969 352 Z M 65.542969 234 " clip-rule="nonzero"/></clipPath><clipPath id="0314cc2ce3"><path d="M 189 209 L 253.792969 209 L 253.792969 294 L 189 294 Z M 189 209 " clip-rule="nonzero"/></clipPath></defs><rect x="-60" width="720" fill="#ffffff" y="-60" height="719.999999" fill-opacity="1"/><rect x="-60" width="720" fill="#ffffff" y="-60" height="719.999999" fill-opacity="1"/><rect x="-60" width="720" fill="#ffffff" y="-60" height="719.999999" fill-opacity="1"/><path fill="#914e12" d="M 474.085938 224.988281 C 476.1875 226.703125 471.667969 231.082031 476.855469 233.992188 C 477.699219 234.464844 478.105469 235.039062 478.335938 235.574219 C 484.851562 232.761719 492.921875 235.589844 492.921875 235.589844 C 497.21875 236.515625 503.089844 239.730469 504.878906 241.195312 C 506.671875 242.664062 509.5 244.554688 511.902344 244.949219 C 513.890625 245.277344 515.734375 244.460938 516.304688 244.175781 C 516.191406 243.902344 516.058594 243.644531 515.90625 243.382812 C 514.554688 241.972656 512.527344 240.800781 511.296875 240.234375 C 509.574219 239.445312 508.140625 239.230469 506.28125 238.160156 C 504.417969 237.085938 503.949219 237.085938 502.089844 236.199219 C 500.226562 235.300781 499.546875 234.371094 498.832031 232.621094 C 498.117188 230.871094 497.863281 230.480469 497.578125 229.011719 C 497.292969 227.546875 498.445312 227.457031 498.445312 227.457031 C 498.703125 227.226562 499.148438 227.101562 499.796875 227.082031 C 501.152344 227.042969 503.199219 227.613281 505.363281 228.449219 C 507.195312 229.15625 509.109375 230.054688 510.753906 230.945312 C 514.335938 232.871094 521.277344 236.015625 525.792969 235.160156 C 527.25 234.878906 528.851562 233.9375 530.296875 232.722656 C 530.171875 232.308594 529.910156 231.890625 529.375 231.609375 C 528.003906 230.886719 525.914062 229.105469 526.421875 228.300781 C 526.925781 227.488281 527.175781 228.820312 528.105469 228.300781 C 529.039062 227.773438 528.464844 227.152344 527.464844 226.507812 C 526.921875 226.164062 526.421875 225.691406 526.421875 225.121094 C 526.421875 224.84375 526.542969 224.539062 526.847656 224.21875 C 524.703125 222.84375 518.09375 218.78125 514.765625 218.742188 C 510.753906 218.699219 512.332031 220.554688 509.988281 221.703125 C 507.652344 222.84375 507.242188 223.558594 503.914062 222.03125 C 500.585938 220.507812 493.773438 218.792969 489.734375 220.84375 C 485.6875 222.890625 485.257812 226.5625 485.117188 227.65625 C 484.972656 228.75 481.96875 226.414062 482.015625 223.199219 C 482.058594 219.988281 484.015625 219.601562 482.011719 218.125 C 480.011719 216.652344 478.480469 217.792969 475.710938 220.316406 C 472.941406 222.84375 471.984375 223.273438 474.085938 224.988281 " fill-opacity="1" fill-rule="nonzero"/><path fill="#d88888" d="M 499.910156 231.105469 C 499.976562 231.097656 501.058594 230.964844 501.683594 231.824219 C 502.328125 232.703125 502.328125 232.585938 502.898438 232.730469 C 503.472656 232.871094 503.617188 232.945312 503.929688 233.636719 C 504.234375 234.324219 504.574219 234.730469 505.261719 234.609375 C 505.957031 234.496094 506.433594 234.585938 506.671875 235.039062 C 506.914062 235.492188 507.339844 235.589844 507.605469 235.589844 C 507.867188 235.589844 508.03125 235.445312 508.082031 236.109375 C 508.125 236.78125 508.269531 237.375 508.4375 237.421875 C 508.605469 237.476562 509.273438 237.609375 509.703125 237.464844 C 510.132812 237.320312 510.5625 237.609375 510.824219 237.492188 C 511.085938 237.375 511.136719 237.679688 511.207031 238.160156 C 511.277344 238.636719 511.398438 238.851562 512.042969 238.753906 C 512.691406 238.664062 513.738281 237.609375 513.738281 238.539062 C 513.738281 239.46875 513.300781 240.4375 513.300781 240.4375 C 514.289062 241.230469 515.253906 242.253906 515.90625 243.382812 C 516.058594 243.644531 516.191406 243.902344 516.304688 244.175781 L 516.304688 244.179688 C 516.53125 244.730469 516.675781 245.296875 516.699219 245.875 C 516.839844 249.164062 516.554688 250.238281 519.273438 251.09375 C 522 251.953125 521.0625 249.164062 521.640625 246.519531 C 522.214844 243.875 522.070312 239.660156 518.488281 237.085938 C 514.910156 234.515625 512.976562 233.589844 509.609375 231.871094 C 507.609375 230.851562 506.496094 229.554688 505.363281 228.449219 C 503.199219 227.613281 501.152344 227.042969 499.796875 227.082031 C 499.148438 227.101562 498.703125 227.226562 498.445312 227.457031 C 497.726562 228.066406 498.386719 229.398438 499.910156 231.105469 " fill-opacity="1" fill-rule="nonzero"/><path fill="#f1f2f2" d="M 499.910156 231.105469 C 499.964844 231.167969 500.023438 231.234375 500.082031 231.300781 C 502.304688 233.730469 503.234375 233.804688 504.808594 235.304688 C 506.386719 236.800781 508.605469 238.230469 510.613281 238.875 C 511.34375 239.109375 512.332031 239.664062 513.300781 240.441406 C 513.300781 240.441406 513.738281 239.46875 513.738281 238.539062 C 513.738281 237.609375 512.6875 238.660156 512.042969 238.753906 C 511.398438 238.851562 511.277344 238.632812 511.207031 238.160156 C 511.136719 237.683594 511.089844 237.375 510.828125 237.492188 C 510.5625 237.609375 510.132812 237.320312 509.703125 237.46875 C 509.273438 237.609375 508.605469 237.476562 508.441406 237.425781 C 508.269531 237.375 508.128906 236.78125 508.082031 236.109375 C 508.03125 235.445312 507.867188 235.585938 507.601562 235.585938 C 507.339844 235.585938 506.910156 235.492188 506.671875 235.039062 C 506.433594 234.585938 505.957031 234.492188 505.261719 234.609375 C 504.570312 234.730469 504.238281 234.324219 503.925781 233.632812 C 503.617188 232.945312 503.472656 232.871094 502.898438 232.730469 C 502.328125 232.585938 502.328125 232.707031 501.683594 231.824219 C 501.058594 230.96875 499.972656 231.097656 499.910156 231.105469 " fill-opacity="1" fill-rule="nonzero"/><path fill="#212120" d="M 497.578125 229.011719 C 497.863281 230.480469 498.117188 230.871094 498.832031 232.621094 C 499.546875 234.371094 500.226562 235.300781 502.089844 236.199219 C 503.949219 237.085938 504.417969 237.085938 506.28125 238.160156 C 508.140625 239.230469 509.574219 239.445312 511.296875 240.234375 C 512.527344 240.800781 514.554688 241.972656 515.90625 243.382812 C 515.253906 242.253906 514.289062 241.230469 513.300781 240.4375 C 512.332031 239.664062 511.34375 239.109375 510.609375 238.871094 C 508.605469 238.230469 506.386719 236.800781 504.808594 235.304688 C 503.234375 233.800781 502.304688 233.730469 500.085938 231.296875 C 500.023438 231.234375 499.96875 231.167969 499.910156 231.105469 C 498.386719 229.398438 497.726562 228.066406 498.445312 227.457031 C 498.445312 227.457031 497.292969 227.546875 497.578125 229.011719 " fill-opacity="1" fill-rule="nonzero"/><path fill="#914e12" d="M 449.449219 280.339844 C 450.175781 281.734375 451.25 283.550781 452.558594 285.65625 C 454.210938 283.53125 455.652344 280.621094 455.589844 276.984375 C 455.558594 275.058594 455.511719 273.34375 455.507812 271.78125 C 454.035156 271.398438 451.949219 270.519531 449.449219 268.519531 C 444.328125 264.433594 445.351562 272.457031 449.449219 280.339844 " fill-opacity="1" fill-rule="nonzero"/><g clip-path="url(#0aad551c0f)"><path fill="#111111" d="M 529.375 231.609375 C 529.910156 231.890625 530.171875 232.308594 530.296875 232.722656 C 533.328125 230.167969 535.648438 226.414062 534.386719 225.152344 C 533.816406 224.589844 532.679688 223.820312 531.128906 222.878906 C 530.101562 222.800781 528.828125 222.886719 527.777344 223.511719 C 527.484375 223.683594 527.25 223.851562 527.058594 224.015625 C 526.976562 224.085938 526.910156 224.15625 526.847656 224.21875 C 526.542969 224.539062 526.421875 224.84375 526.421875 225.121094 C 526.421875 225.691406 526.921875 226.164062 527.464844 226.507812 C 528.464844 227.152344 529.039062 227.773438 528.105469 228.300781 C 527.175781 228.820312 526.925781 227.488281 526.421875 228.300781 C 525.914062 229.105469 528.003906 230.886719 529.375 231.609375 " fill-opacity="1" fill-rule="nonzero"/></g><path fill="#914e12" d="M 500.992188 205.566406 C 501.183594 206.132812 501.699219 206.785156 502.769531 207.496094 C 503.085938 207.707031 503.398438 207.894531 503.6875 208.058594 C 503.800781 208.121094 503.90625 208.175781 504.011719 208.230469 C 504.222656 208.335938 504.425781 208.429688 504.621094 208.507812 C 504.71875 208.546875 504.8125 208.582031 504.90625 208.613281 C 504.949219 208.628906 504.996094 208.644531 505.042969 208.65625 C 505.132812 208.683594 505.21875 208.707031 505.300781 208.726562 C 505.8125 208.851562 506.21875 208.828125 506.5 208.652344 C 506.554688 208.617188 506.605469 208.574219 506.648438 208.53125 C 506.84375 208.328125 506.941406 208.007812 506.921875 207.5625 C 506.917969 207.519531 506.917969 207.480469 506.914062 207.4375 C 506.894531 207.257812 506.863281 207.074219 506.8125 206.898438 C 506.800781 206.839844 506.78125 206.78125 506.761719 206.722656 C 506.726562 206.601562 506.683594 206.484375 506.636719 206.371094 C 506.605469 206.285156 506.566406 206.195312 506.527344 206.113281 C 506.410156 205.859375 506.273438 205.613281 506.128906 205.378906 C 506.074219 205.289062 506.019531 205.203125 505.960938 205.113281 C 505.789062 204.855469 505.613281 204.621094 505.445312 204.417969 C 505.382812 204.339844 505.320312 204.265625 505.261719 204.195312 C 505.203125 204.128906 505.148438 204.066406 505.097656 204.003906 C 504.992188 203.890625 504.902344 203.792969 504.835938 203.726562 C 504.804688 203.6875 504.773438 203.660156 504.753906 203.640625 C 504.742188 203.632812 504.734375 203.621094 504.726562 203.613281 L 504.707031 203.597656 C 504.707031 203.59375 504.707031 203.59375 504.707031 203.59375 C 504.683594 203.566406 504.65625 203.542969 504.632812 203.519531 C 503.757812 202.632812 502.15625 203.074219 501.492188 203.722656 C 501.46875 203.75 501.441406 203.777344 501.417969 203.800781 C 501.0625 204.203125 500.738281 204.808594 500.992188 205.566406 " fill-opacity="1" fill-rule="nonzero"/><g clip-path="url(#39722acaad)"><path fill="#2b2a2a" d="M 500.992188 205.566406 C 501.183594 206.132812 501.699219 206.785156 502.769531 207.496094 C 503.085938 207.707031 503.398438 207.894531 503.6875 208.058594 C 503.800781 208.121094 503.90625 208.175781 504.011719 208.230469 C 504.222656 208.335938 504.425781 208.429688 504.621094 208.507812 C 504.71875 208.546875 504.8125 208.582031 504.90625 208.613281 C 504.949219 208.628906 504.996094 208.644531 505.042969 208.65625 C 505.132812 208.683594 505.21875 208.707031 505.300781 208.726562 C 505.8125 208.851562 506.21875 208.828125 506.5 208.652344 C 506.554688 208.617188 506.605469 208.574219 506.648438 208.53125 C 506.84375 208.328125 506.941406 208.007812 506.921875 207.5625 C 506.917969 207.519531 506.917969 207.480469 506.914062 207.4375 C 506.894531 207.257812 506.863281 207.074219 506.8125 206.898438 C 506.800781 206.839844 506.78125 206.78125 506.761719 206.722656 C 506.726562 206.601562 506.683594 206.484375 506.636719 206.371094 C 506.605469 206.285156 506.566406 206.195312 506.527344 206.113281 C 506.410156 205.859375 506.273438 205.613281 506.128906 205.378906 C 506.074219 205.289062 506.019531 205.203125 505.960938 205.113281 C 505.789062 204.855469 505.613281 204.621094 505.445312 204.417969 C 505.382812 204.339844 505.320312 204.265625 505.261719 204.195312 C 505.203125 204.128906 505.148438 204.066406 505.097656 204.003906 C 504.992188 203.890625 504.902344 203.792969 504.835938 203.726562 C 504.804688 203.6875 504.773438 203.660156 504.753906 203.640625 C 504.742188 203.632812 504.734375 203.621094 504.726562 203.613281 C 504.71875 203.605469 504.710938 203.597656 504.707031 203.597656 C 504.707031 203.59375 504.707031 203.59375 504.707031 203.59375 C 504.683594 203.566406 504.65625 203.542969 504.632812 203.519531 C 503.757812 202.632812 502.15625 203.074219 501.492188 203.722656 C 501.46875 203.75 501.441406 203.773438 501.417969 203.800781 C 501.058594 204.203125 500.734375 204.808594 500.992188 205.566406 Z M 263.070312 303.757812 C 270.085938 301.785156 274.035156 299.378906 279.957031 284.496094 C 285.878906 269.609375 286.425781 258.007812 289.390625 253.304688 C 292.351562 248.597656 289.390625 248.378906 288.292969 243.5625 C 287.199219 238.746094 292.171875 236.269531 298.601562 236.773438 C 305.039062 237.277344 307.378906 240.9375 316.738281 236.773438 C 326.09375 232.605469 338.304688 233.644531 359.074219 234.328125 C 379.839844 235.007812 390.074219 232.472656 403.824219 229.207031 C 417.566406 225.941406 426.046875 223.28125 439.796875 215.457031 C 450.800781 209.191406 467.613281 200.296875 473.882812 197 L 473.886719 197 C 476.511719 195.820312 478 195.351562 480.273438 194.769531 C 480.972656 194.585938 481.738281 194.398438 482.636719 194.175781 C 484.996094 193.585938 487.800781 194.136719 489.605469 194.648438 C 490.730469 194.964844 491.46875 195.269531 491.46875 195.269531 C 491.5 195.285156 491.535156 195.300781 491.578125 195.316406 C 491.617188 195.335938 491.660156 195.359375 491.710938 195.378906 C 491.714844 195.378906 491.714844 195.378906 491.714844 195.382812 C 491.765625 195.40625 491.820312 195.429688 491.878906 195.457031 C 492.097656 195.554688 492.367188 195.679688 492.691406 195.832031 C 492.863281 195.910156 493.050781 196 493.25 196.089844 C 493.4375 196.183594 493.632812 196.273438 493.84375 196.371094 C 493.910156 196.402344 493.984375 196.4375 494.054688 196.472656 C 494.269531 196.574219 494.492188 196.683594 494.726562 196.792969 C 494.804688 196.828125 494.882812 196.867188 494.960938 196.90625 C 495.089844 196.96875 495.21875 197.03125 495.351562 197.09375 C 495.492188 197.160156 495.636719 197.230469 495.78125 197.300781 C 495.925781 197.371094 496.074219 197.445312 496.222656 197.515625 C 496.804688 197.804688 497.417969 198.105469 498.050781 198.417969 C 498.261719 198.523438 498.472656 198.632812 498.6875 198.738281 C 499.199219 199 499.71875 199.265625 500.246094 199.539062 C 500.710938 199.78125 501.179688 200.027344 501.644531 200.277344 C 504.625 201.871094 507.5 203.570312 509.105469 204.929688 C 513.40625 208.574219 507.601562 208.855469 516.050781 214.074219 C 521.925781 217.707031 527.59375 220.742188 531.128906 222.878906 C 530.097656 222.800781 528.828125 222.882812 527.773438 223.507812 C 527.480469 223.679688 527.25 223.851562 527.058594 224.011719 C 526.976562 224.082031 526.90625 224.152344 526.84375 224.21875 C 524.699219 222.84375 518.09375 218.78125 514.761719 218.742188 C 510.753906 218.699219 512.328125 220.554688 509.984375 221.703125 C 507.652344 222.84375 507.238281 223.558594 503.914062 222.027344 C 500.585938 220.507812 493.773438 218.792969 489.730469 220.84375 C 485.683594 222.886719 485.257812 226.5625 485.117188 227.65625 C 484.972656 228.75 481.964844 226.410156 482.015625 223.199219 C 482.058594 219.984375 484.015625 219.601562 482.007812 218.125 C 480.007812 216.648438 478.476562 217.792969 475.707031 220.3125 C 472.941406 222.84375 471.984375 223.273438 474.085938 224.984375 C 476.1875 226.699219 471.664062 231.078125 476.855469 233.992188 C 477.695312 234.460938 478.105469 235.035156 478.332031 235.574219 C 477.546875 235.910156 476.785156 236.335938 476.058594 236.851562 C 469.332031 241.667969 461 253.195312 458.074219 258.738281 C 455.824219 263.007812 455.480469 266.578125 455.507812 271.777344 C 454.035156 271.394531 451.949219 270.515625 449.449219 268.515625 C 444.328125 264.429688 445.347656 272.457031 449.449219 280.335938 C 450.175781 281.730469 451.246094 283.550781 452.558594 285.65625 C 455.886719 290.996094 460.78125 298.210938 465.582031 305.246094 C 465.203125 305.398438 464.84375 305.625 464.542969 305.945312 C 463.117188 307.480469 464.65625 309 466.628906 311.414062 C 468.601562 313.824219 470.136719 315.25 469.808594 318.203125 C 469.480469 321.160156 472.441406 323.234375 473.320312 327.066406 C 473.945312 329.804688 477.71875 336.867188 474.109375 338.492188 C 473.984375 338.320312 473.851562 338.152344 473.722656 337.976562 C 469.480469 332.433594 453.101562 312.292969 444.910156 307.625 C 439.941406 304.789062 437.714844 303.136719 436.410156 300.871094 C 435.628906 299.515625 435.175781 297.941406 434.660156 295.757812 C 434.613281 295.585938 434.578125 295.402344 434.53125 295.21875 C 433.066406 288.945312 430.289062 281.941406 424.003906 277.5625 C 417.710938 273.1875 417.566406 281.941406 411.132812 287.339844 C 407.5625 290.339844 400.796875 292.433594 394.207031 293.480469 C 375.464844 289.226562 361.679688 281.644531 354.535156 278.167969 C 351.320312 276.601562 349.046875 276.054688 347.066406 276.382812 L 347.0625 276.382812 C 346.257812 276.519531 345.507812 276.792969 344.757812 277.210938 C 342.285156 278.578125 339.882812 281.429688 335.984375 285.429688 C 332.210938 287.925781 325.207031 292.304688 317.199219 296.101562 C 308.953125 300.019531 299.644531 303.320312 291.691406 303.320312 C 272.167969 303.320312 271.511719 304.304688 268.878906 308.242188 C 266.246094 312.183594 261.421875 319.953125 257.253906 318.53125 C 255.203125 317.832031 254.082031 316.074219 253.777344 313.472656 C 256.363281 308.355469 258.886719 304.929688 263.070312 303.757812 " fill-opacity="1" fill-rule="nonzero"/></g><path fill="#68462f" d="M 500.082031 212.832031 C 501.644531 213.347656 503.140625 214.222656 503.140625 214.222656 C 503.140625 214.222656 504.371094 214.117188 504.535156 212 C 504.589844 211.351562 504.535156 210.792969 504.441406 210.328125 L 504.441406 210.324219 C 504.4375 210.300781 504.429688 210.277344 504.421875 210.257812 C 504.417969 210.25 504.417969 210.238281 504.417969 210.234375 C 504.195312 209.246094 503.769531 208.722656 503.769531 208.722656 C 503.769531 208.722656 502.019531 210.359375 500.894531 211.316406 C 499.773438 212.269531 498.523438 212.3125 500.082031 212.832031 " fill-opacity="1" fill-rule="nonzero"/><path fill="#111111" d="M 503.140625 214.222656 C 503.140625 214.222656 504.976562 214.550781 505.972656 214.992188 C 506.972656 215.429688 508.261719 216.050781 506.617188 214.222656 C 505.179688 212.621094 504.570312 210.765625 504.441406 210.328125 C 504.535156 210.792969 504.589844 211.351562 504.535156 212 C 504.371094 214.117188 503.140625 214.222656 503.140625 214.222656 " fill-opacity="1" fill-rule="nonzero"/><path fill="#212120" d="M 394.207031 293.480469 C 401.078125 295.046875 408.613281 296.15625 416.734375 296.453125 C 418.421875 296.515625 420.136719 296.546875 421.878906 296.535156 C 421.878906 296.535156 428.960938 296.316406 434.660156 295.757812 C 434.617188 295.582031 434.574219 295.40625 434.53125 295.21875 C 433.066406 288.945312 430.289062 281.941406 424.003906 277.5625 C 417.710938 273.1875 417.566406 281.941406 411.132812 287.339844 C 407.5625 290.339844 400.796875 292.4375 394.207031 293.480469 " fill-opacity="1" fill-rule="nonzero"/><path fill="#56280a" d="M 243.476562 359.941406 C 243.476562 359.941406 244.117188 360.605469 245.617188 360.628906 C 246.351562 355.757812 244.515625 353.46875 244.371094 355.632812 C 244.203125 358.070312 243.476562 359.941406 243.476562 359.941406 " fill-opacity="1" fill-rule="nonzero"/><path fill="#72370c" d="M 337.671875 331.316406 C 344.398438 336.976562 356.203125 349.328125 356.824219 350.9375 C 357.429688 352.628906 358.746094 353.179688 360.613281 354.21875 C 362.476562 355.257812 364.0625 355.972656 365.113281 357.773438 C 366.15625 359.582031 364.667969 360.566406 368.289062 363.792969 C 371.910156 367.023438 376.457031 365.433594 376.457031 365.433594 C 376.457031 365.433594 378.707031 366.75 381.449219 365.820312 C 384.191406 364.886719 383.316406 363.085938 383.316406 363.085938 C 383.316406 363.085938 385.835938 362.648438 385.339844 360.292969 C 384.851562 357.941406 381.339844 354.65625 377.832031 352.25 C 374.320312 349.839844 369.824219 348.199219 362.804688 341.414062 C 355.785156 334.628906 352.496094 329.375 349.203125 321.933594 C 345.914062 314.492188 352.277344 306.175781 351.25 296.324219 C 350.667969 290.742188 348.679688 282.488281 347.070312 276.382812 L 347.0625 276.382812 C 346.261719 276.519531 345.507812 276.796875 344.761719 277.210938 C 346.65625 284.917969 349.273438 299.34375 345.476562 309.382812 C 340.0625 323.6875 336.410156 321.058594 336.113281 324.125 C 335.886719 326.527344 337.8125 328.476562 337.671875 331.316406 " fill-opacity="1" fill-rule="nonzero"/><path fill="#191918" d="M 319.273438 297.941406 C 330.574219 308.480469 328.875 316.546875 329.246094 320.472656 C 329.683594 325.144531 330.121094 325.289062 336.554688 330.398438 C 336.902344 330.675781 337.28125 330.984375 337.671875 331.316406 C 337.8125 328.476562 335.886719 326.527344 336.113281 324.125 C 336.410156 321.058594 340.0625 323.6875 345.476562 309.382812 C 349.273438 299.34375 346.65625 284.917969 344.761719 277.210938 C 342.285156 278.578125 339.882812 281.433594 335.988281 285.429688 C 334.683594 286.769531 333.210938 288.238281 331.507812 289.824219 C 328.167969 292.933594 323.898438 295.632812 319.273438 297.941406 " fill-opacity="1" fill-rule="nonzero"/><path fill="#914e12" d="M 237.335938 357.382812 C 239.816406 361.691406 243.476562 359.941406 243.476562 359.941406 C 243.476562 359.941406 244.203125 358.070312 244.371094 355.632812 C 244.515625 353.46875 246.351562 355.757812 245.617188 360.628906 C 246.207031 360.640625 246.925781 360.554688 247.789062 360.292969 C 250.859375 359.355469 251.296875 355.125 250.347656 350.160156 C 249.398438 345.203125 247.277344 343.59375 259.78125 329.914062 C 272.28125 316.234375 276.558594 309.777344 285.882812 308.355469 C 292.625 307.324219 307.171875 303.96875 319.273438 297.941406 C 323.898438 295.632812 328.167969 292.933594 331.507812 289.824219 C 333.210938 288.238281 334.683594 286.769531 335.988281 285.429688 C 332.210938 287.929688 325.207031 292.304688 317.203125 296.101562 C 308.953125 300.019531 299.644531 303.320312 291.695312 303.320312 C 272.171875 303.320312 271.515625 304.304688 268.882812 308.246094 C 266.25 312.1875 261.425781 319.957031 257.257812 318.53125 C 255.207031 317.832031 254.085938 316.078125 253.777344 313.472656 C 252.019531 316.933594 250.230469 321.175781 247.863281 326.015625 C 242.011719 337.980469 243.914062 335.933594 241.28125 337.539062 C 238.648438 339.148438 241.132812 339.4375 238.941406 342.9375 C 236.746094 346.441406 234.847656 353.082031 237.335938 357.382812 " fill-opacity="1" fill-rule="nonzero"/><path fill="#914e12" d="M 466.628906 311.414062 C 468.601562 313.828125 470.140625 315.25 469.808594 318.203125 C 469.480469 321.160156 472.441406 323.238281 473.320312 327.070312 C 473.949219 329.808594 477.71875 336.867188 474.109375 338.496094 C 477.972656 343.796875 478.160156 347.914062 479.699219 348.191406 C 481.28125 348.484375 483.8125 350.234375 486.007812 354.613281 C 488.203125 358.992188 494.488281 364.683594 501.800781 363.226562 C 509.113281 361.761719 507.503906 359.867188 507.503906 359.867188 C 507.503906 359.867188 506.847656 357.789062 504.761719 355.851562 C 502.675781 353.921875 506.152344 354.503906 508.269531 357.425781 C 508.855469 358.226562 509.367188 359.011719 509.808594 359.730469 C 509.867188 359.730469 509.929688 359.726562 509.992188 359.722656 C 512.476562 359.574219 515.546875 356.222656 511.308594 353.445312 C 507.066406 350.671875 506.484375 346.589844 499.023438 345.714844 C 491.566406 344.839844 484.109375 333.019531 476.355469 321.199219 C 473.460938 316.789062 469.550781 311.078125 465.582031 305.246094 C 465.203125 305.398438 464.84375 305.628906 464.546875 305.949219 C 463.121094 307.480469 464.65625 309.003906 466.628906 311.414062 " fill-opacity="1" fill-rule="nonzero"/><path fill="#56280a" d="M 504.761719 355.851562 C 506.847656 357.789062 507.503906 359.867188 507.503906 359.867188 C 507.503906 359.867188 507.503906 359.867188 509.808594 359.730469 C 509.367188 359.011719 508.855469 358.226562 508.269531 357.425781 C 506.152344 354.503906 502.675781 353.921875 504.761719 355.851562 " fill-opacity="1" fill-rule="nonzero"/><path fill="#72370c" d="M 399.015625 362.585938 C 401.753906 366.636719 405.59375 365.492188 405.59375 365.492188 C 405.59375 365.492188 409.046875 367.570312 410.914062 365.492188 C 412.777344 363.410156 413.433594 359.363281 413.214844 355.53125 C 412.996094 351.703125 410.691406 349.949219 410.035156 346.339844 C 409.375 342.726562 411.132812 339.992188 421.222656 325.324219 C 424.59375 320.417969 427.652344 315.625 430.222656 311.414062 C 428.460938 311.402344 425.867188 311.925781 424.292969 314.699219 C 421.734375 319.226562 418.957031 323.386719 415.957031 323.894531 C 412.960938 324.40625 413.621094 323.675781 410.691406 327.613281 C 408.972656 329.933594 405.859375 331.5 402.777344 331.984375 C 401.621094 334.308594 400.808594 335.804688 400.601562 336.101562 C 399.613281 337.527344 397.09375 339.277344 398.574219 342.449219 C 400.054688 345.625 397.257812 346.230469 395.722656 349.292969 C 394.1875 352.359375 396.273438 358.539062 399.015625 362.585938 " fill-opacity="1" fill-rule="nonzero"/><path fill="#191918" d="M 402.777344 331.984375 C 405.859375 331.5 408.972656 329.933594 410.691406 327.613281 C 413.621094 323.675781 412.960938 324.40625 415.957031 323.894531 C 418.957031 323.386719 421.734375 319.226562 424.292969 314.699219 C 425.867188 311.925781 428.460938 311.402344 430.222656 311.414062 L 436.410156 300.871094 C 435.628906 299.515625 435.175781 297.9375 434.660156 295.757812 C 428.960938 296.316406 421.878906 296.535156 421.878906 296.535156 C 420.136719 296.546875 418.421875 296.515625 416.734375 296.453125 C 413.792969 308.761719 406.484375 324.578125 402.777344 331.984375 " fill-opacity="1" fill-rule="nonzero"/><path fill="#56280a" d="M 430.222656 311.414062 C 432.847656 307.125 434.96875 303.445312 436.410156 300.871094 L 430.222656 311.414062 " fill-opacity="1" fill-rule="nonzero"/><path fill="#212120" d="M 439.320312 247.757812 C 445.460938 251.1875 450.433594 258.265625 450.433594 258.265625 C 453.28125 261.78125 453.433594 258.484375 451.3125 253.304688 C 449.191406 248.121094 450.433594 248.925781 443.050781 246.957031 C 435.664062 244.988281 433.179688 244.332031 439.320312 247.757812 " fill-opacity="1" fill-rule="nonzero"/><path fill="#212120" d="M 447.984375 224.195312 C 452.410156 217.773438 465.203125 208.804688 465.203125 208.804688 C 467.9375 206.804688 466.882812 205.878906 460.453125 208.804688 C 454.015625 211.730469 449.921875 214.78125 447.65625 220.179688 C 445.386719 225.578125 443.5625 230.609375 447.984375 224.195312 " fill-opacity="1" fill-rule="nonzero"/><path fill="#111111" d="M 502.070312 211.820312 C 502.070312 212.496094 502.457031 213.039062 502.9375 213.039062 C 503.414062 213.039062 503.800781 212.496094 503.800781 211.820312 C 503.800781 211.148438 503.414062 210.605469 502.9375 210.605469 C 502.457031 210.605469 502.070312 211.148438 502.070312 211.820312 " fill-opacity="1" fill-rule="nonzero"/><path fill="#f1f2f2" d="M 501.566406 211.0625 C 501.566406 211.378906 501.769531 211.632812 502.011719 211.632812 C 502.257812 211.632812 502.457031 211.378906 502.457031 211.0625 C 502.457031 210.746094 502.257812 210.488281 502.011719 210.488281 C 501.769531 210.488281 501.566406 210.746094 501.566406 211.0625 " fill-opacity="1" fill-rule="nonzero"/><path fill="#191918" d="M 492.917969 197.324219 C 492.917969 197.324219 483.539062 193.898438 478.476562 195.449219 C 473.417969 197.003906 472.582031 198.945312 469.46875 200.445312 C 466.351562 201.945312 468.910156 210.382812 471.246094 215.488281 C 473.585938 220.59375 478.980469 224.921875 483.09375 226.253906 C 487.210938 227.585938 483.371094 218.261719 487.433594 211.4375 C 491.496094 204.609375 494.351562 202.351562 494.550781 199.722656 C 494.550781 199.722656 494.773438 197.929688 492.917969 197.324219 " fill-opacity="1" fill-rule="nonzero"/><g clip-path="url(#f400fd178c)"><path fill="#ff6633" d="M 152.203125 290.667969 C 118.726562 290.445312 112.75 286.464844 112.496094 237.152344 C 112.492188 235.910156 111.476562 234.898438 110.234375 234.898438 C 108.996094 234.898438 107.980469 235.910156 107.976562 237.152344 C 107.71875 286.464844 101.742188 290.445312 68.269531 290.667969 C 66.765625 290.675781 65.542969 291.898438 65.542969 293.386719 C 65.542969 294.875 66.765625 296.097656 68.269531 296.105469 C 101.742188 296.332031 107.71875 300.3125 107.972656 349.621094 C 107.980469 350.867188 108.996094 351.878906 110.234375 351.878906 C 111.476562 351.878906 112.488281 350.867188 112.496094 349.625 C 112.75 300.3125 118.726562 296.332031 152.203125 296.109375 C 153.703125 296.101562 154.925781 294.878906 154.925781 293.390625 C 154.925781 291.898438 153.703125 290.675781 152.203125 290.667969 Z M 152.203125 290.667969 " fill-opacity="1" fill-rule="nonzero"/></g><g clip-path="url(#0314cc2ce3)"><path fill="#ff6633" d="M 252.222656 249.8125 C 227.859375 249.652344 223.070312 246.476562 222.886719 210.414062 C 222.882812 209.738281 222.332031 209.1875 221.65625 209.1875 C 220.984375 209.1875 220.433594 209.738281 220.429688 210.414062 C 220.246094 246.476562 215.453125 249.652344 191.09375 249.8125 C 190.226562 249.820312 189.523438 250.519531 189.523438 251.375 C 189.523438 252.230469 190.226562 252.929688 191.09375 252.9375 C 215.453125 253.097656 220.246094 256.273438 220.429688 292.335938 C 220.433594 293.011719 220.984375 293.558594 221.65625 293.558594 C 222.332031 293.558594 222.882812 293.011719 222.886719 292.335938 C 223.070312 256.269531 227.863281 253.097656 252.222656 252.9375 C 253.089844 252.929688 253.792969 252.230469 253.792969 251.375 C 253.792969 250.519531 253.089844 249.820312 252.222656 249.8125 Z M 252.222656 249.8125 " fill-opacity="1" fill-rule="nonzero"/></g><path fill="#ff6633" d="M 188.9375 314.867188 C 187.402344 319.359375 184.785156 322.71875 181.386719 324.539062 C 184.785156 326.363281 187.402344 329.722656 188.9375 334.214844 C 190.472656 329.722656 193.085938 326.363281 196.488281 324.539062 C 193.085938 322.71875 190.472656 319.359375 188.9375 314.867188 Z M 188.9375 314.867188 " fill-opacity="1" fill-rule="nonzero"/><path fill="#ff6633" d="M 144.402344 243.03125 C 145.9375 238.539062 148.550781 235.179688 151.953125 233.359375 C 148.550781 231.535156 145.9375 228.175781 144.402344 223.6875 C 142.867188 228.175781 140.25 231.539062 136.851562 233.359375 C 140.253906 235.179688 142.867188 238.539062 144.402344 243.03125 Z M 144.402344 243.03125 " fill-opacity="1" fill-rule="nonzero"/></svg>