<svg id="Layer_1" data-name="Layer 1" xmlns="http://www.w3.org/2000/svg" viewBox="0 0 400 400"><defs><style>.cls-1{fill:#f63;}</style></defs><path class="cls-1" d="M154.15,47.23H54.41a3.62,3.62,0,1,1,0-7.23h99.74a3.62,3.62,0,0,1,0,7.23Z"/><path class="cls-1" d="M139.05,61.22H54.41a3.62,3.62,0,1,1,0-7.23h84.64a3.62,3.62,0,0,1,0,7.23Z"/><path class="cls-1" d="M126.23,75.22H54.41a3.62,3.62,0,1,1,0-7.23h71.82a3.62,3.62,0,1,1,0,7.23Z"/><path class="cls-1" d="M154.15,353.71H54.41a3.62,3.62,0,1,1,0-7.23h99.74a3.62,3.62,0,0,1,0,7.23Z"/><path class="cls-1" d="M139.05,339.72H54.41a3.61,3.61,0,1,1,0-7.22h84.64a3.62,3.62,0,0,1,0,7.23Z"/><path class="cls-1" d="M126.23,325.72H54.41a3.62,3.62,0,1,1,0-7.23h71.82a3.62,3.62,0,1,1,0,7.23Z"/><path class="cls-1" d="M227.39,224a62.52,62.52,0,1,0-58.12,39.56,62.21,62.21,0,0,0,46.74-21l-27.32-19.37a30.44,30.44,0,1,1,12.53-32.82,30.33,30.33,0,0,1,0,15.14Z"/><path class="cls-1" d="M284.11,176.59H259.19a89.47,89.47,0,0,0-6.36-17.2l17-17a3.34,3.34,0,0,0,.82-1.21,3.56,3.56,0,0,0-.77-3.9l-12.91-13-20.82-20.91a3.62,3.62,0,0,0-2.55-1.06,3.44,3.44,0,0,0-2.56,1.06l-15.85,15.85a95.46,95.46,0,0,0-18.56-8v-22A3.58,3.58,0,0,0,193,85.71H145.32a3.61,3.61,0,0,0-3.61,3.61v22a91.18,91.18,0,0,0-18.32,8l-15.85-15.81a3.61,3.61,0,0,0-2.6-1.06,3.73,3.73,0,0,0-2.56,1.06L68.6,137.32a3.65,3.65,0,0,0,0,5.11l17,17a97,97,0,0,0-6.41,17.2H54.39a3.64,3.64,0,0,0-3.62,3.62V228a3.61,3.61,0,0,0,3.62,3.62H81.57a96.52,96.52,0,0,0,6.6,14.55L68.6,265.89a3.64,3.64,0,0,0,0,5.1l33.78,33.74a3.83,3.83,0,0,0,2.56,1.06h0a3.76,3.76,0,0,0,2.55-1.11l20.72-20.82a87.83,87.83,0,0,0,13.45,5.3V318.9a3.61,3.61,0,0,0,3.61,3.61H193a3.58,3.58,0,0,0,3.61-3.61V289.21a90.28,90.28,0,0,0,13.55-5.35L231,304.73a3.73,3.73,0,0,0,5.11,0l28.05-28.1-42.22-29.92a69.24,69.24,0,0,1-52.67,24.09,69.89,69.89,0,1,1,64.19-42.5l19.08,13.54a104,104,0,0,0,4.34-10.26h27.23a3.58,3.58,0,0,0,3.61-3.62V180.21A3.61,3.61,0,0,0,284.11,176.59Z"/><path class="cls-1" d="M359.47,309.31a30.41,30.41,0,0,1-60.81,0,30.74,30.74,0,0,1,3.66-14.51c-96.74-68.45-129-91.33-132.66-93.92a3.56,3.56,0,0,1,0-5.88l18.69-13.25a21.73,21.73,0,0,1,4.15,5.93L178,197.94l128.57,91a30.37,30.37,0,0,1,52.91,20.39Z"/><path class="cls-1" d="M268.06,125.32,302.32,101a30.4,30.4,0,0,1,26.75-44.86,30.38,30.38,0,1,1-22.51,50.74l-33.3,23.56Z"/></svg>