<svg xmlns="http://www.w3.org/2000/svg" viewBox="0 0 95 76.11"><defs><style>.cls-1{fill:#f63;}</style></defs><g id="Layer_2" data-name="Layer 2"><g id="Layer_1-2" data-name="Layer 1"><path class="cls-1" d="M92.17,0H2.91A2.84,2.84,0,0,0,0,2.75V62.36a3,3,0,0,0,2.91,2.88H38.06c-.05.89-.33,4.75-2.16,6.62-1.44,1.47-3.45,2.85-2.67,3.56.19.44,1.09.69,3.14.69H59.5c2.33,0,3.14-.38,3.15-1h-.08V75h-.08c-.1-.77-1.66-1.91-2.84-3.1-1.83-1.87-2.11-5.73-2.15-6.63H92.17A2.87,2.87,0,0,0,95,62.37V2.75A2.77,2.77,0,0,0,92.17,0ZM47.5,62.5a1.85,1.85,0,1,1,1.85-1.85A1.85,1.85,0,0,1,47.5,62.5ZM91,52.84H4v-49H91Z"/><rect class="cls-1" x="6.5" y="6.52" width="17" height="7.19"/><rect class="cls-1" x="25.41" y="6.52" width="63.09" height="7.19"/><rect class="cls-1" x="6.5" y="15.89" width="12.54" height="15.94"/><rect class="cls-1" x="21.32" y="15.89" width="12.54" height="15.94"/><rect class="cls-1" x="36.03" y="15.89" width="12.54" height="15.94"/><rect class="cls-1" x="50.79" y="15.89" width="12.54" height="15.94"/><rect class="cls-1" x="6.5" y="34.6" width="12.54" height="15.94"/><rect class="cls-1" x="21.32" y="34.6" width="12.54" height="15.94"/><rect class="cls-1" x="36.03" y="34.6" width="12.54" height="15.94"/><rect class="cls-1" x="50.79" y="34.6" width="12.54" height="15.94"/><rect class="cls-1" x="65.5" y="15.89" width="23" height="34.51"/></g></g></svg>