<svg xmlns="http://www.w3.org/2000/svg" viewBox="0 0 97.13 87.74"><defs><style>.cls-1{fill:#f63;}</style></defs><g id="Layer_2" data-name="Layer 2"><g id="Layer_1-2" data-name="Layer 1"><path class="cls-1" d="M83.5,12.14l7.2-4a2,2,0,0,1,2.7.8h0a2,2,0,0,1-.8,2.7l-7.2,4a2,2,0,0,1-2.7-.8h0A2.09,2.09,0,0,1,83.5,12.14ZM84,.74l-5.3,6.5a1.91,1.91,0,0,0,.2,2.7,2,2,0,0,0,2.9-.2l5.3-6.5a1.91,1.91,0,0,0-.2-2.7A2,2,0,0,0,84,.74Zm10.9,16.7-8.3,1a2,2,0,0,0-1.7,2.4,2.07,2.07,0,0,0,2.2,1.6l8.3-1A2,2,0,0,0,97.1,19,2,2,0,0,0,94.9,17.44ZM48.4,87.74H57a8.28,8.28,0,0,0,8.3-8.3v-.6l-5,2.5ZM84.8,35a2.15,2.15,0,0,1-.6,2.8,2,2,0,0,1-2.9-.6h0c-8.8-2.3-18.3.1-23.8,2.1v.1l.9,1.7v.1l-4.2,2.3v.1l4.9,5.3h0c2-1.5,5.6-3.7,8.1-3.1,2.9.7,2.8,3.7,2.8,4h0a4.21,4.21,0,0,1,3,5.5h0a4.67,4.67,0,0,1,1.6,6.2h0c.3.3,3.6,3.5-1.5,7.9a24.92,24.92,0,0,1-6,3.5h0l-8.8,4.4h0l-8.9,4.8h.1l-1.3.7-8.8,4.8H8.3a8.68,8.68,0,0,1-2.8-.5A8.34,8.34,0,0,1,0,79.34V35.54a8.39,8.39,0,0,1,8.4-8.4H30.7a8.75,8.75,0,0,0-1,2.2,9.38,9.38,0,0,0,.1,5.5,4.59,4.59,0,0,0-.7,1.6,5.9,5.9,0,0,0,.5,4.5L30.8,43H5.5v35.4a3.8,3.8,0,0,0,3.8,3.8h4.6l29.3-15.7a4.92,4.92,0,0,0,2.3-2.8,7.38,7.38,0,0,0,.2-1.2c0-.2-.1-.4-.1-.6h0a8.59,8.59,0,0,1,.2-3.1s2-6.1,6.2-7.8v-.1l-4-4.1h0l-1,.5a4.79,4.79,0,0,1-6.5-1.9l-.8-1.5h-.1l-1.2.7a1.7,1.7,0,0,1-2.2-.6l-2.8-5.2a1.7,1.7,0,0,1,.6-2.2l1.2-.7v-.1l-1-1.8a4.79,4.79,0,0,1,1.9-6.5l11.5-6.2h.1l.9,1.7h.1c4.6-3.6,11.7-10.3,14.5-19h0a2.12,2.12,0,0,1,1.1-2.8,2.25,2.25,0,0,1,2.7,1l5.7,10.6h0a6.85,6.85,0,0,1,7.1,3.6,7.1,7.1,0,0,1-.8,7.9h0Zm-64.3.2a2.4,2.4,0,1,0,2.4-2.4A2.43,2.43,0,0,0,20.5,35.24Zm-7,0a2.43,2.43,0,0,0,2.4,2.4h0a2.28,2.28,0,0,0,2.3-1.9v-1a2.35,2.35,0,0,0-2.3-1.9h0A2.43,2.43,0,0,0,13.5,35.24Zm-6.9,0A2.4,2.4,0,1,0,9,32.84,2.37,2.37,0,0,0,6.6,35.24Z"/></g></g></svg>