<svg id="Layer_1" data-name="Layer 1" xmlns="http://www.w3.org/2000/svg" viewBox="0 0 400 400"><defs><style>.cls-1{fill:#f63;}</style></defs><path class="cls-1" d="M341,198a4.34,4.34,0,0,0,4.46-4.9c-4.9-45-27.63-76.2-69.52-95.36a18.83,18.83,0,0,0-16.93,0L246.07,104c8,5.8,12.47,15.15,12.47,26.3a41.45,41.45,0,0,1-82.43,6.23l-6.69,3.12q6.69,7.35,6.69,18.72a32.9,32.9,0,0,1-33,33,33.42,33.42,0,0,1-32.08-24.51c-45.9,23.18-52.14,21.39-50.8,27.63C62,201.11,53.12,196.65,341,198Z"/><path class="cls-1" d="M229.58,275.08a10.84,10.84,0,0,0,10.69-10.7V223.83A17.76,17.76,0,0,1,251,207.35H169v49a7.58,7.58,0,1,0,15.15,0V243.88a16.93,16.93,0,0,1,33.86,0v20.5A11.66,11.66,0,0,0,229.58,275.08Z"/><path class="cls-1" d="M193,243.44v8.91l16.49,1.34V243.44a8,8,0,0,0-8-8C197.05,235.42,193,239,193,243.44Z"/><path class="cls-1" d="M341,206.9H302.21v21.39a16.93,16.93,0,0,1-33.86,0v-4.9A9.42,9.42,0,0,0,259,214a9.73,9.73,0,0,0-9.36,9.36v33l95.81,5.79V206A8.06,8.06,0,0,1,341,206.9Z"/><path class="cls-1" d="M285.28,236.76a8,8,0,0,0,8-8V207.35H266.56c6.24,3.11,10.7,9.35,10.7,16.48v4.9C276.81,232.74,280.82,236.76,285.28,236.76Z"/><path class="cls-1" d="M229.58,284A19.78,19.78,0,0,1,210,264.38V262.6l-17.38-1.34A16.3,16.3,0,0,1,177,272.4c-8,0-14.71-5.79-16.49-13.81l-100.26-4.9v25.84c0,8.47,6.68,15.6,14.7,16.05L328.06,317h1.34a14.5,14.5,0,0,0,11.14-4.9,16.22,16.22,0,0,0,4.9-11.58V270.62l-96.25-5.35C248.29,276,239.83,284,229.58,284Z"/><path class="cls-1" d="M160.06,206.9c-99.37,0-95.8.89-99.81-.45v38.33l99.81,5.34Z"/><path class="cls-1" d="M142.69,182.39a24,24,0,0,0,24.06-24.06c0-10.7-7.13-17.38-18.72-19.16,1.34-7.58,4.9-15.6,12.93-19.16a4.1,4.1,0,0,0,2.22-5.8,4.41,4.41,0,0,0-5.79-2.22c-12.48,5.34-16.93,17.37-18.71,27.18-12.93.89-21,8-21,19.16C118.62,171.7,129.32,182.39,142.69,182.39Z"/><path class="cls-1" d="M216.66,162.78a32.71,32.71,0,0,0,32.53-32.52c0-14.71-9.81-24.07-26.74-25.4,2.23-11.14,7.13-25,20.05-30.31a4.39,4.39,0,1,0-3.56-8c-17.38,7.13-23.62,25-25.4,38.33-18.72.89-29,10.24-29,25.4C184.13,148.08,198.83,162.78,216.66,162.78Z"/></svg>