<svg xmlns="http://www.w3.org/2000/svg" viewBox="0 0 117.99 128"><defs><style>.cls-1{fill:#f63;}</style></defs><g id="Layer_2" data-name="Layer 2"><g id="Layer_1-2" data-name="Layer 1"><path class="cls-1" d="M80,56.28H64L59,41,54,56.28H38l13,9.44L46,81l13-9.44L72,81,67,65.72Zm0,0H64L59,41,54,56.28H38l13,9.44L46,81l13-9.44L72,81,67,65.72Zm38-37.8a4,4,0,0,0-4-3.92,3.18,3.18,0,0,0-.62,0,66.5,66.5,0,0,1-8.91.54C94.64,15.15,76.06,13.31,61.6,1a4,4,0,0,0-5.2,0c-14.46,12.35-33,14.19-42.83,14.19a66.3,66.3,0,0,1-8.91-.54,3.31,3.31,0,0,0-.62,0,4,4,0,0,0-2.57.93,4,4,0,0,0-1.43,3c-.94,47.68,16.62,75.8,31.53,91a90.44,90.44,0,0,0,17.64,14.08c.66.4,5.86,3.49,8.72,4.27v0a3.7,3.7,0,0,0,1,.15H59a4.32,4.32,0,0,0,1.07-.15v0c2.87-.78,8-3.87,8.7-4.26a90.73,90.73,0,0,0,17.64-14.08C101.34,94.28,118.9,66.16,118,18.48ZM84,56.28a4,4,0,0,1-1.71,3.28L71.72,67.25l4.06,12.52a4,4,0,0,1-6.15,4.46L59,76.5,48.37,84.23a4,4,0,0,1-6.15-4.46l4.06-12.52L35.65,59.51A4,4,0,0,1,38,52.28H51.14L55.2,39.77a4,4,0,0,1,5-2.58,4,4,0,0,1,2.58,2.58l4.06,12.51H80A4,4,0,0,1,84,56.28ZM22.4,67.06l-3.23,2.77C15.25,59.16,12.7,46,13,29.84a4,4,0,0,1,4-3.92,3.2,3.2,0,0,1,.61,0,49.55,49.55,0,0,0,6.67.39c7.35,0,21.3-1.35,32.12-10.42a4,4,0,0,1,5.14,0,41.54,41.54,0,0,0,12.23,7l-3.45,3A44.63,44.63,0,0,1,59,19C47.43,28.71,32.88,30.36,24.31,30.36A52,52,0,0,1,17,29.92C16.73,44.76,18.9,57,22.4,67.06ZM81.08,98.35a70.87,70.87,0,0,1-14,11.09,37.1,37.1,0,0,1-7,3.38v0A4,4,0,0,1,59,113H59a3.77,3.77,0,0,1-1.06-.15v0a37,37,0,0,1-7-3.39,70.29,70.29,0,0,1-14-11.09,75.52,75.52,0,0,1-9-11.07L31,84.67a70,70,0,0,0,18.39,19A41.68,41.68,0,0,0,59,109c.58,0,43.23-16.52,42-79.08a51.72,51.72,0,0,1-6.69.44l5-4.26c.71-.07,1.11-.13,1.12-.13a3.08,3.08,0,0,1,.61,0,4,4,0,0,1,4,3.92C105.69,65.59,92.37,86.83,81.08,98.35ZM59,41,54,56.28H38l13,9.44L46,81l13-9.44L72,81,67,65.72l13-9.44H64Z"/></g></g></svg>