<svg xmlns="http://www.w3.org/2000/svg" viewBox="0 0 90 90"><defs><style>.cls-1{fill:#f63;}</style></defs><g id="Layer_2" data-name="Layer 2"><g id="Layer_1-2" data-name="Layer 1"><path class="cls-1" d="M18.76,45.71a3.54,3.54,0,0,0-.34,4,54.45,54.45,0,0,0,9.47,12.4,54.45,54.45,0,0,0,12.4,9.47,3.54,3.54,0,0,0,4-.34c8.13-6.69,10.44-8.72,11.93-8.89C58.87,62.06,72.11,73,72.77,75.06c1,3-1.48,12.44-2.52,13.44-1.33,1.29-7.91,1.33-10.58,1.47-13.06.66-25.8-8.67-38.38-21.26S-.63,43.39,0,30.33c.14-2.67.18-9.25,1.47-10.58,1-1,10.42-3.51,13.44-2.52,2,.66,13,13.9,12.71,16.55C27.48,35.27,25.45,37.58,18.76,45.71ZM90,2.5V38a2.5,2.5,0,0,1-2.5,2.5h-50A2.5,2.5,0,0,1,35,38V2.5A2.5,2.5,0,0,1,37.5,0h50A2.5,2.5,0,0,1,90,2.5ZM83.4,3.6H41.6l17,16.15a5.68,5.68,0,0,0,7.82,0ZM38.6,5.71V34.8L53.9,20.26Zm3,31.21H83.39L68.47,22.72a9.23,9.23,0,0,1-11.94,0ZM86.4,34.8V5.71L71.1,20.26Z"/></g></g></svg>