<svg xmlns="http://www.w3.org/2000/svg" viewBox="0 0 60 60"><defs><style>.cls-1{fill:#f63;}</style></defs><g id="Layer_2" data-name="Layer 2"><g id="Layer_1-2" data-name="Layer 1"><path class="cls-1" d="M30,0A30,30,0,1,0,47.59,54.31l-1.18-1.62A27.68,27.68,0,0,1,31,58V55H29v3a27.86,27.86,0,0,1-18.07-7.49l2.1-2.1L11.61,47l-2.09,2.1A27.86,27.86,0,0,1,2,31H6V29H2A27.86,27.86,0,0,1,9.52,10.93l2.8,2.81,1.42-1.42-2.81-2.8A27.86,27.86,0,0,1,29,2V6h2V2A27.86,27.86,0,0,1,49.07,9.52l-2.81,2.8,1.42,1.42,2.8-2.81A27.92,27.92,0,0,1,58,29H54v2h4a27.67,27.67,0,0,1-5.19,15.27L51.5,45,50,51l6-1.5-1.8-1.8A29.66,29.66,0,0,0,60,30,30,30,0,0,0,30,0Z"/><path class="cls-1" d="M45,28a4,4,0,0,0,2-7.47A4.75,4.75,0,0,0,47,20a5,5,0,0,0-9.5-2.15A5,5,0,0,1,38,20a5,5,0,0,1-2.94,4.55A4,4,0,0,0,39,28h2v5.41a15.92,15.92,0,0,0-10-4.36V24h2a4,4,0,0,0,2-7.47A4.75,4.75,0,0,0,35,16a5,5,0,0,0-10,0,4.75,4.75,0,0,0,.05.53A4,4,0,0,0,27,24h2v5.05a15.92,15.92,0,0,0-10,4.36V28h2a4,4,0,0,0,3.94-3.45A5,5,0,0,1,22,20a5,5,0,0,1,.5-2.15A5,5,0,0,0,13,20a4.75,4.75,0,0,0,.05.53A4,4,0,0,0,15,28h2v7.71A15.87,15.87,0,0,0,14,45a1,1,0,0,0,1,1H45a1,1,0,0,0,1-1,15.87,15.87,0,0,0-3-9.29V28ZM39,39l-3-3-3,1v4l3,3H16a14.73,14.73,0,0,1,.56-3H20l1-2h3l3-2V35l-2.24-3A13.86,13.86,0,0,1,30,31a14,14,0,0,1,12.22,7.2Z"/></g></g></svg>