<svg xmlns="http://www.w3.org/2000/svg" viewBox="0 0 62 62"><defs><style>.cls-1{fill:#f63;}</style></defs><g id="Layer_2" data-name="Layer 2"><g id="Layer_1-2" data-name="Layer 1"><path class="cls-1" d="M62,20.19V19A19,19,0,0,0,43,0h-.2A14.93,14.93,0,0,0,32.19,4.39L31,5.59l-1.19-1.2A14.93,14.93,0,0,0,19.2,0H19A19,19,0,0,0,0,19v1.19A19.05,19.05,0,0,0,4.75,32.77l3.09,3.5C2.78,38.62,0,41.69,0,45c0,6.71,11.54,12.08,26.92,12.89l3.33,3.77a1,1,0,0,0,1.41.09l.09-.09,3.33-3.77A64.18,64.18,0,0,0,47.57,56,4,4,0,1,0,47,54s0,.07,0,.11a60,60,0,0,1-10,1.64L52.77,37.84c4.6,2,7.23,4.61,7.23,7.16,0,2.23-2,4-3.58,5.18l1.14,1.64c2.9-2,4.44-4.37,4.44-6.82,0-3.31-2.78-6.38-7.84-8.73l3.09-3.5A19,19,0,0,0,62,20.19ZM51,52a2,2,0,1,1-2,2A2,2,0,0,1,51,52ZM43,2A17,17,0,0,1,60,19v1.19c0,.13,0,.25,0,.38l-2-2V16a1,1,0,0,0-.29-.71l-2-2a1,1,0,0,0-1.42,0L52.58,15H50a1,1,0,0,0-.7.3L47.58,17H44a1,1,0,0,0-.7.29L41.59,19h-5.2L35,17.59V13.36l1.66-1.65A1,1,0,0,0,36.9,11V8.1a1,1,0,0,0-.27-.68c-1-1.11-1.73-1.84-2.23-2.33A12.87,12.87,0,0,1,42.8,2ZM19,2h.2c.27,0,.53,0,.8,0V5.59l-1.71,1.7A1,1,0,0,0,18,8V9.59l-1.71,1.7A1,1,0,0,0,16,12v2a1,1,0,0,0,.29.71L18,16.41v4.18L16.59,22H14a1,1,0,0,0-.71.29L11.59,24H9.41l-2.7-2.71A1,1,0,0,0,6,21H4.41L2,18.61A17,17,0,0,1,19,2ZM2,45c0-2.55,2.63-5.14,7.23-7.16L25,55.75C12.06,54.68,2,50.19,2,45Zm26.29-7.29L33,42.41v2.18l-1.71,1.7A1,1,0,0,0,31,47v2.59l-1.71,1.7A1,1,0,0,0,29,52v2.59l-1.24,1.23L17,43.62V36.41L18.41,35H22a1,1,0,0,0,.71-.29L24.41,33h2.18L28,34.41V37A1,1,0,0,0,28.29,37.71ZM31,59.49,29.67,58H31l1.33,0ZM31,56h-.58l.29-.28A1,1,0,0,0,31,55V52.41l1.71-1.7A1,1,0,0,0,33,50V47.41l1.71-1.7A1,1,0,0,0,35,45V42a1,1,0,0,0-.29-.71L30,36.59V34a1,1,0,0,0-.29-.71l-2-2A1,1,0,0,0,27,31H24a1,1,0,0,0-.71.29L21.59,33H18a1,1,0,0,0-.71.29l-2,2A1,1,0,0,0,15,36v5.36L6.25,31.44a17,17,0,0,1-4.19-10l1.23,1.24A1,1,0,0,0,4,23H5.59l2.7,2.71A1,1,0,0,0,9,26h3a1,1,0,0,0,.71-.29L14.41,24H17a1,1,0,0,0,.71-.29l2-2A1,1,0,0,0,20,21V16a1,1,0,0,0-.29-.71L18,13.59V12.41l1.71-1.7A1,1,0,0,0,20,10V8.41l1.71-1.7A1,1,0,0,0,22,6V2.31a12.9,12.9,0,0,1,6.39,3.5l1.9,1.9a1,1,0,0,0,1.42,0l1.23-1.24c.51.51,1.26,1.28,2,2v2.09l-1.66,1.66A1,1,0,0,0,33,13V18a1,1,0,0,0,.29.71l2,2A1,1,0,0,0,36,21h6a1,1,0,0,0,.71-.3L44.43,19H48a1,1,0,0,0,.71-.29L50.42,17H53a1,1,0,0,0,.71-.3l1.3-1.3,1,1V19a1,1,0,0,0,.29.71l3.44,3.44A17,17,0,0,1,58.09,28H54.41l-2.7-2.71A1,1,0,0,0,51,25H48a1,1,0,0,0-.71.29L44.59,28H42a1,1,0,0,0-.71.29l-2,2A1,1,0,0,0,39,31v2.59l-1.71,1.7A1,1,0,0,0,37,36v3a1,1,0,0,0,.29.71L39,41.41V44a1,1,0,0,0,.29.71l2.53,2.52-7.68,8.7C33.1,56,32.06,56,31,56ZM43.14,45.73,41,43.59V41a1,1,0,0,0-.29-.71L39,38.59V36.41l1.71-1.7A1,1,0,0,0,41,34V31.41L42.41,30H45a1,1,0,0,0,.71-.29L48.41,27h2.18l2.7,2.71A1,1,0,0,0,54,30h2.87a17.34,17.34,0,0,1-1.12,1.44Z"/><path class="cls-1" d="M31.71,22.29A1,1,0,0,0,31,22H29.41l-1.7-1.71A1,1,0,0,0,27,20H25a1,1,0,0,0-.71.29l-2,2A1,1,0,0,0,22,23v3a1,1,0,0,0,1,1h3.59l1.7,1.71A1,1,0,0,0,29,29h4a1,1,0,0,0,1-1V25a1,1,0,0,0-.29-.71ZM32,27H29.41l-1.7-1.71A1,1,0,0,0,27,25H24V23.41L25.41,22h1.18l1.7,1.71A1,1,0,0,0,29,24h1.59L32,25.41Z"/></g></g></svg>