<svg xmlns="http://www.w3.org/2000/svg" viewBox="0 0 59.99 60"><defs><style>.cls-1{fill:#f63;}</style></defs><g id="Layer_2" data-name="Layer 2"><g id="Layer_1-2" data-name="Layer 1"><rect class="cls-1" x="17" y="35" width="2" height="9"/><polygon class="cls-1" points="30 46 32 46 32 42 25 42 25 35 23 35 23 44 30 44 30 46"/><polygon class="cls-1" points="4 46 6 46 6 44 13 44 13 35 11 35 11 42 4 42 4 46"/><path class="cls-1" d="M10.35,20.64l-.16.52L8,21.76v2.48l2.19.6.16.52a8.52,8.52,0,0,0,.58,1.37l.25.49-1.13,2L11.8,31l2-1.13.49.25a8.15,8.15,0,0,0,1.37.58l.52.16.6,2.19h2.48l.6-2.19.52-.16a8.61,8.61,0,0,0,1.37-.57l.49-.26,2,1.13,1.74-1.75-1.13-2,.26-.49a7.09,7.09,0,0,0,.57-1.37l.17-.52,2.19-.6V21.76l-2.19-.6-.16-.52a8.52,8.52,0,0,0-.58-1.37l-.25-.49,1.13-2L24.2,15.06l-2,1.12-.49-.25a7.82,7.82,0,0,0-1.37-.58l-.52-.16L19.24,13H16.76l-.6,2.19-.52.16a8.52,8.52,0,0,0-1.37.58l-.49.25-2-1.13L10.06,16.8l1.13,2-.26.49A8.52,8.52,0,0,0,10.35,20.64ZM18,18a5,5,0,1,1-5,5A5,5,0,0,1,18,18Z"/><path class="cls-1" d="M43,0H5A3,3,0,0,0,2,3V19a3,3,0,0,0,3,3H6V20.24l2.62-.72c.09-.23.19-.46.29-.69L7.56,16.47l3.91-3.91,2.36,1.35c.23-.1.46-.2.69-.28L15.24,11h5.52l.72,2.62.69.29,2.36-1.35,3.91,3.91-1.35,2.36c.1.23.2.46.28.69l2.63.72V22h3.5l5.9,7.87a.35.35,0,0,0,.6-.2V22h4V7a8.92,8.92,0,0,1,1.73-5.27A3,3,0,0,0,43,0ZM4,2H6V4H4ZM26,8H4V6H26Zm0-4H8V2H26Zm3,7V3H41v8Zm13,9H32V18H42Zm0-4H32V14H42Z"/><path class="cls-1" d="M53,46.12l-4-2-2.67,1.33,6.11,12.21a.64.64,0,0,0,1.1,0l6.11-12.21L57,44.12Z"/><path class="cls-1" d="M53,0a7,7,0,0,0-7,7v3H60V7A7,7,0,0,0,53,0Z"/><rect class="cls-1" x="45.99" y="12" width="14" height="2"/><path class="cls-1" d="M46,43.38l3-1.5,4,2,4-2,3,1.5V16H46ZM53,19a2,2,0,1,1-2,2A2,2,0,0,1,53,19Zm0,8a2,2,0,1,1-2,2A2,2,0,0,1,53,27Zm0,8a2,2,0,1,1-2,2A2,2,0,0,1,53,35Z"/><path class="cls-1" d="M32,50.1V48H30v2.1a5,5,0,1,0,2,0Z"/><path class="cls-1" d="M19,50.1V46H17v4.1a5,5,0,1,0,2,0Z"/><path class="cls-1" d="M6,50.1V48H4v2.1a5,5,0,1,0,2,0Z"/></g></g></svg>