<svg id="Layer_1" data-name="Layer 1" xmlns="http://www.w3.org/2000/svg" viewBox="0 0 400 400"><defs><style>.cls-1{fill:#f63;}</style></defs><path class="cls-1" d="M145.79,362.16A32.66,32.66,0,0,1,129,352.79a29.32,29.32,0,0,1-7.88-20.1V67.3a28.66,28.66,0,0,1,23.24-28.72,9.31,9.31,0,0,0,1.43-.58H263.56c.63.28,1.28.53,1.94.75a28.88,28.88,0,0,1,22.11,28.42V332A29.51,29.51,0,0,1,264,361.61a6,6,0,0,0-1.1.55Zm-15-59.74H277.88V97H130.75ZM204.36,342a14.56,14.56,0,0,0,14.69-14.42v-.2A14.7,14.7,0,1,0,204.2,342Zm0-274.86H186.08c-4,0-6.19,1.88-6.16,5.16a5.16,5.16,0,0,0,5.24,5.06,4.15,4.15,0,0,0,.79-.07h36.7c4,0,6.19-1.88,6.16-5.15a5.18,5.18,0,0,0-6-5Z"/></svg>