<svg xmlns="http://www.w3.org/2000/svg" viewBox="0 0 90 76.52"><defs><style>.cls-1{fill:#f63;}</style></defs><g id="Layer_2" data-name="Layer 2"><g id="Layer_1-2" data-name="Layer 1"><path class="cls-1" d="M31.47,59.69h0S31.64,59.49,31.47,59.69Z"/><path class="cls-1" d="M.71,19.93a2.49,2.49,0,0,1-.33-.33C.51,19.78.83,20.2.71,19.93Z"/><path class="cls-1" d="M36.94,74.65l-.24,0S36.91,74.71,36.94,74.65Z"/><path class="cls-1" d="M9.91.38a.38.38,0,0,0-.12.16A2.65,2.65,0,0,1,10,.31Z"/><path class="cls-1" d="M88.78,32.7c-3-9.24-9.71-8.11-9.71-8.11-1.44-1.25-3.95-2.76-8.31-4,0,0-3.76-1.75-17,2.55l-.16.05S46.28,23.7,43.08,21c-1.13-1-4.2-1.63-5.73-1.57,0,0-14.85-12.32-21.52-14.28L13.85,0l-.73,3.87H11.84S9.45,1.36,9.79.54c-.5.58-1.38,2.1.31,4.25,0,0-1.86,2.84-3.55,3,0,0-.18,1.51-.2,1.83S.61,15.17.61,15.17c0,.16-1.18,2.53-.27,4.09a5.55,5.55,0,0,1,.37.67c.56.47,1.74,1.06,3.77.34,0,0,.46-1.35,2.53-1.22l3.18-.6s4,1.18,5.71-.95c0,0,6.92,9,6.21,13.36,0,0,.06,12.25,3.61,14a17.48,17.48,0,0,0,.91,6.51,16.9,16.9,0,0,1,1.28,7.33s.36,1.83.6,3.07c0,0,.39,7-.56,8.6a32.53,32.53,0,0,1-3.08,4.69c-1,.9-.12.21-.12.21s1.9,1.88,5.39-.13c0,0-1.81-3.31.25-3.92,0,0,1.38-.76.72-2,0,0-.36-8,.07-9.19a.53.53,0,0,1,.06-.13l.23-.26L32.61,49S35,53.57,35,55.25c0,0,.3,3.85,1.64,5.46,0,0,4.22,8.75,1.12,11,0,0-2,1.79-1.2,2.48.31.29.38.4.37.44.87.13,4,.44,4.07-1.27,0,0-2-1.65.26-4,0,0-2.54-7.44-1.91-11.07,0,0-1.63-7.34-.69-10.77,4.17-.25,9.56-.76,12.78-1.79a27.52,27.52,0,0,0,6.74-2c2.7-1.36,6.83-3.39,9.92,1.4,0,0,3.11,3.77,2.92,6.69a4.45,4.45,0,0,0,.49,2.08,34.52,34.52,0,0,1,.36,5.53c-.22,2.16-.79,9.56-5.2,12.22,0,0-2.93,2.07-.44,1.94s3.33,1.55,4,.26-1.27-2.37,1-4.06c0,0,1.09-.81,1.13-1.44A47.7,47.7,0,0,1,75,59.8a5.63,5.63,0,0,1,.5,1.93c.15,3.31.73,7.53,0,8.76,0,0-3.5,4-3.4,5.53,0,0,3.6.84,4.91.33l.09-.16c1.16-2.32-2.09-1.42.27-4.14L78,70.92s1.58-9.56.93-10.14.63-1.55.63-1.55-3.68-9.67-1.62-11.83c0,0,9-8.11,4.72-17.42,2.43,1.85,2.3,8.26,1.3,11.29-1.29,3.91.73,10.91.73,10.91.35,3.06,1.1-.6,1.1-.6C88.76,47.9,91.74,41.94,88.78,32.7Z"/></g></g></svg>