<svg id="Layer_1" data-name="Layer 1" xmlns="http://www.w3.org/2000/svg" viewBox="0 0 400 400"><defs><style>.cls-1{fill:#f63;}</style></defs><path class="cls-1" d="M211.72,262.89a60,60,0,0,0,35-11.18,7.1,7.1,0,0,0-8.23-11.57,46.23,46.23,0,0,1-52.27.87,7.1,7.1,0,0,0-7.85,11.83A60.13,60.13,0,0,0,211.72,262.89Z"/><path class="cls-1" d="M295.09,245.74a7.1,7.1,0,1,0-10,10l23.45,23.45-20,20L265,275.8a7.11,7.11,0,0,0-8.76-1,84.58,84.58,0,0,1-24.95,10.34,7.09,7.09,0,0,0-5.46,6.91v33.15H197.56V292a7.09,7.09,0,0,0-5.47-6.91,84.69,84.69,0,0,1-25-10.34,7.08,7.08,0,0,0-8.75,1L135,299.25l-20-20,23.45-23.45a7.1,7.1,0,1,0-10-10L99.86,274.21a7.1,7.1,0,0,0,0,10l30.06,30.06a7.1,7.1,0,0,0,10,0l24.62-24.61a98.11,98.11,0,0,0,18.78,7.78v34.8a7.1,7.1,0,0,0,7.1,7.11H233a7.1,7.1,0,0,0,7.1-7.11v-34.8a99,99,0,0,0,18.78-7.79l24.61,24.62a7.12,7.12,0,0,0,10.05,0l30.06-30.06a7.1,7.1,0,0,0,0-10Z"/><path class="cls-1" d="M211.72,135.1a60,60,0,0,0-35,11.17A7.1,7.1,0,1,0,185,157.84a46.23,46.23,0,0,1,52.27-.87,7.1,7.1,0,0,0,7.85-11.83A60.12,60.12,0,0,0,211.72,135.1Z"/><path class="cls-1" d="M285.05,152.25a7.12,7.12,0,0,0,10.05,0l28.47-28.47a7.12,7.12,0,0,0,0-10L293.51,83.67a7.1,7.1,0,0,0-10,0l-24.62,24.62a98.41,98.41,0,0,0-18.78-7.79V65.7a7.1,7.1,0,0,0-7.1-7.1H190.46a7.1,7.1,0,0,0-7.1,7.1v34.8a98.15,98.15,0,0,0-18.78,7.79L140,83.67a7.1,7.1,0,0,0-10,0L99.86,113.73a7.12,7.12,0,0,0,0,10l28.47,28.47a7.1,7.1,0,1,0,10-10l-23.45-23.46,20-20,23.44,23.45a7.1,7.1,0,0,0,8.75,1,84.16,84.16,0,0,1,25-10.34,7.1,7.1,0,0,0,5.47-6.91V72.81h28.31V106a7.1,7.1,0,0,0,5.46,6.91,84.16,84.16,0,0,1,24.95,10.34,7.11,7.11,0,0,0,8.76-1l23.45-23.45,20,20-23.45,23.46A7.1,7.1,0,0,0,285.05,152.25Z"/><path class="cls-1" d="M378.89,165.61H89.44l-.44,0h-.23a8.11,8.11,0,0,0-1.57.33l-.06,0L9.82,192.26a7.11,7.11,0,0,0,0,13.45L87.14,232l.07,0,.31.09.33.08.28.06a2.7,2.7,0,0,0,.41.06.91.91,0,0,0,.23,0c.22,0,.44,0,.66,0H378.89a7.1,7.1,0,0,0,7.11-7.1V172.71a7.08,7.08,0,0,0-7.11-7.1Zm-67.58,52.54H96.53V179.81H311.31Zm-229-35.53v32.72L34.18,199Zm289.46,35.53H325.51V179.82h46.28Z"/></svg>