<svg xmlns="http://www.w3.org/2000/svg" viewBox="0 0 89.53 87.96"><defs><style>.cls-1{fill:#f63;}</style></defs><g id="Layer_2" data-name="Layer 2"><g id="Layer_1-2" data-name="Layer 1"><path class="cls-1" d="M13,86.86l71.1-81.7a3.14,3.14,0,0,0-.3-4.4,3.14,3.14,0,0,0-4.4.3l-17.7,20.4a42.88,42.88,0,0,0-16.4-3.3c-25.9,0-44,24.2-44.7,25.2a3,3,0,0,0,0,3.7c7,8.7,14.4,15.1,21.9,19.3L8.34,82.76a3.14,3.14,0,0,0,.3,4.4,3.18,3.18,0,0,0,2,.8A3.59,3.59,0,0,0,13,86.86Zm23.9-37a9.47,9.47,0,0,1-1.3-4.7,9.13,9.13,0,0,1,9.1-9.1,10.48,10.48,0,0,1,3.6.7Zm-29.8-4.8c4.6-5.4,19.3-20.8,38.2-20.8a35.26,35.26,0,0,1,12,2.1L52.54,32a14.7,14.7,0,0,0-7.8-2.1,15.36,15.36,0,0,0-15.3,15.3,15.61,15.61,0,0,0,3.3,9.5l-6,6.9C20,58.06,13.54,52.56,7.14,45.06Zm81.7-1.9a3.15,3.15,0,0,1,.1,3.8c-.8,1-18.8,25.2-44.7,25.2a40.61,40.61,0,0,1-9.2-1.1l4.8-5.5a34,34,0,0,0,4.5.3c18.7.1,33.4-15.3,38-20.7a76.69,76.69,0,0,0-13.7-12.8l4.1-4.7A86.11,86.11,0,0,1,88.84,43.16Z"/></g></g></svg>