<svg xmlns="http://www.w3.org/2000/svg" viewBox="0 0 88 78"><defs><style>.cls-1{fill:#f63;}</style></defs><g id="Layer_2" data-name="Layer 2"><g id="Layer_1-2" data-name="Layer 1"><path class="cls-1" d="M84,20H74.45L44.84.26h0L44.71.18,44.58.12h0l-.09,0-.06,0L44.3,0h0l-.14,0h-.3l-.14,0h0l-.07,0-.13,0-.06,0h0l-.09,0-.16.09h0L13.55,20H4a4,4,0,0,0-4,4V74a4,4,0,0,0,4,4H84a4,4,0,0,0,4-4V24A4,4,0,0,0,84,20ZM42.5,4.3V6.5a1.5,1.5,0,0,0,3,0V4.3L69.05,20H19ZM61.94,40.2l.77,2.37c.25.79-.08,1-.75.55l-2-1.47a2.23,2.23,0,0,0-2.43,0l-2,1.47c-.67.48-1,.24-.75-.55l.77-2.37a2.2,2.2,0,0,0-.75-2.31l-2-1.47c-.66-.48-.54-.88.29-.88h2.5a2.21,2.21,0,0,0,2-1.43l.77-2.37c.26-.79.67-.79.93,0L60,34.11a2.2,2.2,0,0,0,2,1.43h2.5c.82,0,1,.4.28.88l-2,1.47A2.21,2.21,0,0,0,61.94,40.2Zm-15,0,.77,2.37c.25.79-.08,1-.75.55l-2-1.47a2.23,2.23,0,0,0-2.43,0l-2,1.47c-.66.48-1,.24-.75-.55l.77-2.37a2.2,2.2,0,0,0-.75-2.31l-2-1.47c-.66-.48-.54-.88.29-.88h2.5a2.21,2.21,0,0,0,2-1.43l.77-2.37c.26-.79.67-.79.93,0L45,34.11a2.2,2.2,0,0,0,2,1.43h2.5c.82,0,.95.4.29.88l-2,1.47A2.2,2.2,0,0,0,46.94,40.2ZM20.25,36.42l-2,1.47a2.24,2.24,0,0,0-.75,2.31l.78,2.37c.25.79-.09,1-.75.55l-2-1.47a2.23,2.23,0,0,0-2.43,0l-2,1.47c-.67.48-1,.24-.75-.55l.77-2.37a2.22,2.22,0,0,0-.75-2.31l-2-1.47c-.67-.48-.54-.88.29-.88h2.49a2.21,2.21,0,0,0,2-1.43l.77-2.37c.25-.78.67-.78.92,0l.77,2.37a2.21,2.21,0,0,0,2,1.43H20C20.79,35.54,20.92,35.94,20.25,36.42ZM23,35.54h2.5a2.2,2.2,0,0,0,2-1.43l.77-2.37c.26-.78.67-.78.93,0L30,34.11a2.2,2.2,0,0,0,2,1.43h2.5c.82,0,.95.4.28.88l-2,1.47a2.2,2.2,0,0,0-.75,2.31l.77,2.37c.25.79-.09,1-.75.55l-2-1.47a2.23,2.23,0,0,0-2.43,0l-2,1.47c-.67.48-1,.24-.75-.55l.77-2.37a2.2,2.2,0,0,0-.75-2.31l-2-1.47C22.08,35.94,22.21,35.54,23,35.54Zm33.47,30h-25a1.5,1.5,0,0,1,0-3h25a1.5,1.5,0,0,1,0,3ZM64,58H24a1.5,1.5,0,0,1,0-3H64a1.5,1.5,0,0,1,0,3ZM79.71,36.42l-2,1.47a2.2,2.2,0,0,0-.75,2.31l.77,2.37c.25.79-.08,1-.75.55l-2-1.47a2.23,2.23,0,0,0-2.43,0l-2,1.47c-.67.48-1,.24-.75-.55l.77-2.37a2.2,2.2,0,0,0-.75-2.31l-2-1.47c-.67-.48-.54-.88.29-.88h2.49a2.21,2.21,0,0,0,2-1.43l.77-2.37c.25-.78.67-.78.93,0L75,34.11a2.2,2.2,0,0,0,2,1.43h2.5C80.25,35.54,80.37,35.94,79.71,36.42Z"/></g></g></svg>